<svg width="60" height="20" viewBox="0 0 60 20" fill="none" xmlns="http://www.w3.org/2000/svg">
<path d="M13.4402 3.75195H15.4642V16.2479H13.4402V3.75195Z" fill="white"/>
<path d="M22.5038 12.2888C22.5038 14.2248 20.9198 14.4008 20.3918 14.4008C19.1598 14.4008 18.9838 13.2568 18.9838 12.6408V7.80078H16.9598V12.5528C16.9598 13.6968 17.3118 14.7528 18.0158 15.3687C18.6318 15.9847 19.4238 16.2487 20.3918 16.2487C21.0958 16.2487 21.9758 16.0727 22.5038 15.5447V16.2487H24.5278V7.80078H22.5038V12.2888Z" fill="white"/>
<path d="M28.4878 4.72021H26.4638V7.8002H24.9678V9.73619H26.4638V16.2482H28.4878V9.73619H29.9838V7.8002H28.4878V4.72021Z" fill="white"/>
<path d="M36.3195 13.697C35.8795 14.049 35.2636 14.313 34.6476 14.313C33.2396 14.313 32.2716 13.257 32.2716 11.849C32.2716 10.441 33.2396 9.47299 34.6476 9.47299C35.2636 9.47299 35.8795 9.64899 36.3195 10.089L36.5835 10.353L37.9915 9.03299L37.6395 8.76899C36.8475 8.065 35.7916 7.625 34.6476 7.625C32.1836 7.625 30.3356 9.47299 30.3356 11.937C30.3356 14.401 32.1836 16.249 34.6476 16.249C35.7916 16.249 36.8475 15.809 37.6395 15.105L37.9915 14.841L36.5835 13.433L36.3195 13.697Z" fill="white"/>
<path d="M45.1198 8.50393C44.5038 7.88794 43.8878 7.62394 42.9198 7.62394C42.2158 7.62394 41.5118 7.79994 40.9838 8.32793V3.75195H38.9598V16.2479H40.9838V11.5839C40.9838 9.64793 42.3038 9.47193 42.8318 9.47193C44.0638 9.47193 43.9758 10.6159 43.9758 11.2319V16.1599H45.9998V11.3199C45.9998 10.1759 45.7358 9.11993 45.1198 8.50393Z" fill="white"/>
<path d="M34.5599 13.3438C35.3375 13.3438 35.9678 12.7134 35.9678 11.9358C35.9678 11.1582 35.3375 10.5278 34.5599 10.5278C33.7822 10.5278 33.1519 11.1582 33.1519 11.9358C33.1519 12.7134 33.7822 13.3438 34.5599 13.3438Z" fill="#EC4F3C"/>
<path d="M10.624 13.1676C9.91997 13.8716 8.86397 14.3115 7.71998 14.3115C5.51999 14.3115 3.93599 12.5516 3.93599 10.1756C3.93599 7.79958 5.51999 6.03958 7.80798 6.03958C8.86397 6.03958 9.91997 6.47958 10.712 7.27158L10.976 7.53558L12.296 6.21558L12.032 5.95158C10.888 4.80759 9.39197 4.19159 7.80798 4.19159C4.46399 4.10359 2 6.74358 2 10.1756C2 13.6076 4.46399 16.2475 7.71998 16.2475C9.30397 16.2475 10.888 15.6315 11.944 14.4875L12.208 14.2236L10.888 12.9036L10.624 13.1676Z" fill="white"/>
</svg>
