<svg width="20" height="20" viewBox="0 0 20 20" fill="none" xmlns="http://www.w3.org/2000/svg">
<path fill-rule="evenodd" clip-rule="evenodd" d="M10 1C5.03067 1 1 5.13208 1 10.2264C1 14.3019 3.59509 17.7547 7.12884 19C7.57055 19.0566 7.7362 18.7736 7.7362 18.5472C7.7362 18.3208 7.7362 17.7547 7.7362 16.9623C5.25153 17.5283 4.69939 15.717 4.69939 15.717C4.31288 14.6415 3.70552 14.3585 3.70552 14.3585C2.8773 13.7925 3.76074 13.7925 3.76074 13.7925C4.64417 13.8491 5.14111 14.7547 5.14111 14.7547C5.96933 16.1698 7.23926 15.7736 7.7362 15.5472C7.79141 14.9245 8.06749 14.5283 8.28834 14.3019C6.30061 14.0755 4.20245 13.283 4.20245 9.71698C4.20245 8.69811 4.53374 7.90566 5.14111 7.22642C5.08589 7.0566 4.7546 6.09434 5.25153 4.84906C5.25153 4.84906 6.02454 4.62264 7.7362 5.81132C8.45399 5.58491 9.22699 5.5283 10 5.5283C10.773 5.5283 11.546 5.64151 12.2638 5.81132C13.9755 4.62264 14.7485 4.84906 14.7485 4.84906C15.2454 6.09434 14.9141 7.0566 14.8589 7.28302C15.411 7.90566 15.7975 8.75472 15.7975 9.77359C15.7975 13.3396 13.6994 14.0755 11.7117 14.3019C12.0429 14.5849 12.319 15.1509 12.319 16C12.319 17.2453 12.319 18.2075 12.319 18.5472C12.319 18.7736 12.4847 19.0566 12.9264 19C16.5153 17.7547 19.0552 14.3019 19.0552 10.2264C19 5.13208 14.9693 1 10 1Z" fill="white"/>
</svg>
