<svg width="110" height="20" viewBox="0 0 110 20" fill="none" xmlns="http://www.w3.org/2000/svg">
<path d="M7.1475 8.14264C7.1475 8.14264 6.45227 8.07347 6.45227 8.69298V11.4447H11.0434V12.2705C11.0434 12.2705 11.0571 12.6831 10.626 12.6831H6.45227V16.2606H11.4608C11.4608 16.2606 14.4933 15.7925 14.5213 12.6831V8.14264H7.1475ZM26.32 13.6657C26.0815 13.8249 25.905 13.9418 25.7804 14.0163C25.3344 14.2924 24.9093 14.5052 24.5151 14.6752C23.9445 14.9089 23.4359 15.0258 22.9798 15.0258C21.4134 15.0258 20.1166 14.5476 19.0684 13.5805C18.0202 12.6133 17.5026 11.4023 17.5026 9.93616C17.5026 8.52304 17.9695 7.30073 18.9133 6.25908C19.8572 5.21802 20.9984 4.70763 22.3472 4.70763C22.9076 4.70763 23.5087 4.80303 24.1311 5.00575C24.9403 5.26035 25.5938 5.64315 26.1125 6.14221L25.2098 7.14093C24.8264 6.76947 24.3285 6.49281 23.7472 6.32287C23.3119 6.19528 22.8349 6.13207 22.3054 6.13207C21.3616 6.13207 20.5626 6.51368 19.93 7.26853C19.2973 8.03352 18.9759 8.93684 18.9759 9.99936C18.9759 11.0517 19.3385 11.9121 20.0647 12.6032C20.7909 13.2937 21.7139 13.6443 22.8343 13.6443C23.3012 13.6443 23.7788 13.4952 24.2659 13.209C24.6708 12.9007 24.8783 12.7517 24.8884 12.7409V10.5628H21.8594L22.2947 9.20277H26.32V13.6657ZM35.4695 11.0088C35.4695 12.0606 35.0962 12.9747 34.3491 13.7397C33.602 14.5046 32.679 14.8982 31.5795 14.8982C30.5629 14.8982 29.6709 14.5154 28.903 13.7611C28.135 13.0069 27.7617 12.0928 27.7617 11.0196C27.7617 9.95703 28.1254 9.04298 28.8511 8.25652C29.5767 7.47006 30.4693 7.08787 31.5169 7.08787C32.679 7.08787 33.6229 7.45993 34.3593 8.21419C35.0962 8.94758 35.4695 9.8825 35.4695 11.0088ZM34.048 11.0303C34.048 10.3184 33.8095 9.71257 33.3325 9.22364C32.8555 8.72398 32.264 8.47952 31.5587 8.47952C30.895 8.47952 30.3346 8.73471 29.8677 9.24511C29.4008 9.7549 29.1725 10.3392 29.1725 10.9981C29.1725 11.6891 29.411 12.2735 29.8778 12.7624C30.3447 13.2513 30.926 13.5059 31.6308 13.5059C32.2849 13.5059 32.8448 13.2615 33.3224 12.7725C33.8095 12.2836 34.048 11.6993 34.048 11.0303ZM44.4943 11.0088C44.4943 12.0606 44.1211 12.9747 43.374 13.7397C42.6269 14.5046 41.7039 14.8982 40.6044 14.8982C39.5878 14.8982 38.6958 14.5154 37.9278 13.7611C37.1604 13.0069 36.7866 12.0928 36.7866 11.0196C36.7866 9.95703 37.1503 9.04298 37.8759 8.25652C38.6022 7.47006 39.4942 7.08787 40.5418 7.08787C41.7039 7.08787 42.6478 7.45993 43.3841 8.21419C44.1211 8.94758 44.4943 9.8825 44.4943 11.0088ZM43.0729 11.0303C43.0729 10.3184 42.8344 9.71257 42.3574 9.22364C41.8804 8.72398 41.2889 8.47952 40.5835 8.47952C39.9199 8.47952 39.3594 8.73471 38.8926 9.24511C38.4257 9.7549 38.1973 10.3392 38.1973 10.9981C38.1973 11.6891 38.4358 12.2735 38.9033 12.7624C39.3696 13.2513 39.9509 13.5059 40.6563 13.5059C41.3098 13.5059 41.8696 13.2615 42.3472 12.7725C42.8344 12.2836 43.0729 11.6993 43.0729 11.0303ZM52.8455 14.6853L51.5385 14.8874V13.6228L51.2582 13.9412C51.0114 14.1724 50.7317 14.3659 50.4282 14.5154C49.9829 14.7208 49.4978 14.826 49.0074 14.8236C47.9908 14.8236 47.119 14.4516 46.4137 13.6967C45.7083 12.9419 45.3559 12.0499 45.3559 11.0088C45.3559 9.93557 45.7083 9.01137 46.4035 8.24579C47.0988 7.4802 47.949 7.098 48.9656 7.098C49.547 7.098 50.055 7.1934 50.4801 7.3848C50.7812 7.52313 51.0406 7.70379 51.2582 7.92739C51.331 8.02279 51.4037 8.12892 51.4765 8.22432V4.90916L52.8657 4.70703L52.8455 14.6853ZM51.6213 11.1042C51.6213 10.3607 51.3721 9.73344 50.8641 9.22364C50.3561 8.70252 49.7849 8.44792 49.132 8.44792C48.4058 8.44792 47.825 8.69238 47.379 9.18131C46.9634 9.64817 46.7458 10.2224 46.7458 10.892C46.7458 11.6462 46.9634 12.2729 47.3993 12.7618C47.8346 13.2507 48.3849 13.4952 49.0593 13.4952C49.7229 13.4952 50.3042 13.2722 50.823 12.8155C51.3518 12.3474 51.6213 11.7738 51.6213 11.1042Z" fill="#004E88"/>
<path d="M5.33901 3.73926H14.3818L14.3824 7.17963H6.17376C6.17376 7.17963 5.47853 7.30306 5.47853 8.00485V16.2606H2V7.19275C2 7.19275 2.06917 4.50962 5.33901 3.73926Z" fill="#FE9C00"/>
<path d="M56.284 6.29507H60.174L59.8729 4.92369H54.7695V14.902L56.284 14.679V10.3007H59.3022V8.94064H56.284V6.29507Z" fill="#FE9C00"/>
<path d="M62.3628 6.69814L63.2965 5.51875L62.4147 4.3501L61.4708 5.51875L62.3628 6.69814Z" fill="#FE9C00"/>
<path d="M61.6264 14.8805L63.0163 14.6891V7.28306L61.6264 7.49533V14.8805Z" fill="#FE9C00"/>
<path d="M68.639 8.71705L69.2924 7.20853C69.2614 7.18706 69.0122 7.20853 68.5763 7.24013C68.1202 7.28247 67.8191 7.33613 67.6533 7.39933C67.3421 7.51679 67.0619 7.71833 66.8234 7.99499C66.6576 8.27105 66.4811 8.53638 66.3154 8.80231V7.2616L65.0292 7.49533V14.902L66.4185 14.679V11.2147C66.4167 10.6864 66.5414 10.1652 66.7822 9.6949C66.9999 9.28051 67.2491 9.00444 67.5395 8.87684C67.6945 8.80231 67.8394 8.74865 67.9747 8.72778C68.1101 8.70691 68.2448 8.69618 68.3796 8.69618C68.4664 8.69698 68.5531 8.70396 68.639 8.71705Z" fill="#FE9C00"/>
<path d="M78.2547 14.8912L79.6446 14.6891V9.93936C79.6446 9.07838 79.4788 8.41952 79.136 7.97352C78.7216 7.43153 78.0884 7.1656 77.2381 7.1656C76.3455 7.1656 75.6712 7.54839 75.1941 8.30265C74.9658 7.87753 74.7374 7.58059 74.4989 7.43153C74.2187 7.25086 73.8144 7.1656 73.2647 7.1656C72.7775 7.1656 72.3417 7.33613 71.9684 7.68672C71.8331 7.81373 71.6882 7.99439 71.5427 8.21799V7.27233L70.2464 7.49533V14.9336L71.6882 14.6784V10.2792C71.6882 9.80103 71.7711 9.4081 71.9368 9.09984C72.1545 8.68545 72.5074 8.48332 72.9952 8.48332H73.1299C73.4829 8.48332 73.7524 8.60018 73.9599 8.83451C74.1573 9.06764 74.261 9.4081 74.261 9.8541V14.9336L75.6509 14.6784V9.96023C75.6509 9.6627 75.7439 9.36517 75.9102 9.08911C76.1589 8.68545 76.5327 8.48332 77.0199 8.48332C77.4247 8.48332 77.736 8.58945 77.9435 8.80231C78.151 9.01458 78.2547 9.35444 78.2547 9.8225V14.8912Z" fill="#FE9C00"/>
<path d="M85.2791 14.1262C85.7561 13.6904 85.9947 13.1269 85.9947 12.4472C85.9947 11.8414 85.8289 11.3632 85.4449 10.981C85.1027 10.6197 84.6251 10.3645 84.0032 10.2154C83.3807 10.0777 82.9866 9.9501 82.7999 9.83323C82.5817 9.6949 82.478 9.4719 82.478 9.17437C82.478 8.86611 82.5919 8.63238 82.8101 8.47258C82.9967 8.34558 83.2352 8.28178 83.5262 8.28178C83.8267 8.28178 84.1481 8.39865 84.4802 8.63238C84.6245 8.73375 84.7598 8.84746 84.8844 8.97224L85.7144 8.06952C85.5379 7.79286 85.2374 7.55913 84.8224 7.33613C84.4074 7.11253 83.9513 7.0064 83.463 7.0064C82.8202 7.0064 82.2603 7.20853 81.7935 7.63366C81.3266 8.05879 81.0881 8.58945 81.0881 9.22744C81.0881 9.74797 81.202 10.1516 81.4196 10.4599C81.617 10.7258 81.9282 10.9596 82.3641 11.1826C82.4362 11.2147 82.9448 11.3739 83.8893 11.6607C84.3663 11.7991 84.6048 12.0543 84.6048 12.4257C84.6048 12.7555 84.5112 13.0107 84.3037 13.1913C84.1069 13.372 83.8267 13.4674 83.4737 13.4674C82.9657 13.4674 82.5304 13.276 82.1667 12.9039C82.1047 12.8401 82.0421 12.7555 81.97 12.6493L80.9945 13.5205C81.2127 13.8603 81.5442 14.1477 81.9902 14.4023C82.4362 14.6575 82.924 14.7851 83.4737 14.7851C84.1999 14.7851 84.8021 14.5722 85.2791 14.1262Z" fill="#FE9C00"/>
</svg>
