<svg width="18" height="18" viewBox="0 0 18 18" fill="none" xmlns="http://www.w3.org/2000/svg">
<circle cx="9" cy="9" r="8" fill="white"/>
<path d="M10.6785 11.511C10.7422 11.574 10.7422 11.6768 10.6785 11.7405C10.3298 12.087 9.783 12.2557 9.00525 12.2557L8.99925 12.2543L8.99325 12.2557C8.21625 12.2557 7.66875 12.087 7.32 11.7397C7.25625 11.6768 7.25625 11.574 7.32 11.511C7.383 11.448 7.4865 11.448 7.55025 11.511C7.8345 11.7937 8.30625 11.9318 8.99325 11.9318L8.99925 11.9333L9.00525 11.9318C9.6915 11.9318 10.1632 11.7937 10.4482 11.511C10.512 11.448 10.6155 11.448 10.6785 11.511ZM8.0985 9.6975C8.0985 9.31725 7.788 9.00825 7.407 9.00825C7.02525 9.00825 6.71475 9.31725 6.71475 9.6975C6.71475 10.077 7.02525 10.386 7.407 10.386C7.788 10.3867 8.0985 10.0778 8.0985 9.6975ZM18 9C18 13.9703 13.9703 18 9 18C4.02975 18 0 13.9703 0 9C0 4.02975 4.02975 0 9 0C13.9703 0 18 4.02975 18 9ZM14.25 8.90325C14.25 8.265 13.7288 7.746 13.0875 7.746C12.7748 7.746 12.4913 7.87125 12.282 8.07225C11.49 7.551 10.4183 7.2195 9.2325 7.17675L9.88125 5.13375L11.6385 5.5455L11.6363 5.571C11.6363 6.093 12.063 6.5175 12.5873 6.5175C13.1115 6.5175 13.5375 6.093 13.5375 5.571C13.5375 5.049 13.1115 4.6245 12.5873 4.6245C12.1845 4.6245 11.8418 4.87575 11.703 5.2275L9.80925 4.7835C9.72675 4.76325 9.642 4.81125 9.6165 4.89225L8.89275 7.17075C7.65075 7.18575 6.5265 7.52025 5.69925 8.0565C5.4915 7.86525 5.21625 7.74525 4.91175 7.74525C4.27125 7.746 3.75 8.265 3.75 8.90325C3.75 9.32775 3.98325 9.69525 4.326 9.897C4.3035 10.02 4.2885 10.1453 4.2885 10.272C4.2885 11.9827 6.39225 13.3748 8.97825 13.3748C11.5642 13.3748 13.668 11.9827 13.668 10.272C13.668 10.152 13.6553 10.0343 13.635 9.918C13.9995 9.72225 14.25 9.3435 14.25 8.90325ZM10.596 9.009C10.2143 9.009 9.9045 9.318 9.9045 9.69825C9.9045 10.0778 10.215 10.3868 10.596 10.3868C10.977 10.3868 11.2875 10.0778 11.2875 9.69825C11.2875 9.318 10.9777 9.009 10.596 9.009Z" fill="#EC5428"/>
</svg>
