<svg width="20" height="20" viewBox="0 0 20 20" fill="none" xmlns="http://www.w3.org/2000/svg">
<path fill-rule="evenodd" clip-rule="evenodd" d="M16.362 6.73705C16.368 6.87805 16.372 7.01905 16.372 7.16205C16.372 11.499 13.07 16.501 7.032 16.501C5.178 16.501 3.453 15.958 2 15.027C2.257 15.057 2.518 15.072 2.783 15.072C4.321 15.072 5.736 14.548 6.86 13.667C5.423 13.641 4.211 12.692 3.793 11.388C3.994 11.426 4.199 11.446 4.411 11.446C4.71 11.446 5 11.406 5.276 11.331C3.774 11.03 2.643 9.70305 2.643 8.11305C2.643 8.09905 2.643 8.08505 2.643 8.07105C3.085 8.31705 3.592 8.46505 4.13 8.48205C3.249 7.89305 2.669 6.88805 2.669 5.75005C2.669 5.14805 2.831 4.58405 3.114 4.09905C4.733 6.08505 7.152 7.39205 9.88 7.52905C9.824 7.28905 9.795 7.03805 9.795 6.78105C9.795 4.96805 11.265 3.49805 13.077 3.49805C14.022 3.49805 14.875 3.89705 15.473 4.53505C16.221 4.38805 16.924 4.11505 17.558 3.73905C17.313 4.50505 16.792 5.14805 16.115 5.55505C16.779 5.47505 17.411 5.29905 18 5.03805C17.56 5.69605 17.003 6.27405 16.362 6.73705Z" fill="#1DA1F2"/>
</svg>
