<svg width="8" height="7" viewBox="0 0 8 7" fill="none" xmlns="http://www.w3.org/2000/svg">
<path d="M0.578629 4.10324C0.610453 4.1084 0.64266 4.11079 0.674885 4.11037L6.16195 4.11037L6.0423 4.16602C5.92535 4.22137 5.81896 4.29671 5.72788 4.38862L4.18917 5.92733C3.98652 6.12078 3.95247 6.43198 4.10848 6.66469C4.29005 6.91266 4.63826 6.9665 4.88625 6.78492C4.90629 6.77025 4.92533 6.75425 4.94322 6.73703L7.7257 3.95455C7.94315 3.73734 7.94334 3.38499 7.72614 3.16754C7.726 3.1674 7.72584 3.16725 7.7257 3.16711L4.94322 0.384629C4.7256 0.167614 4.37325 0.168101 4.15622 0.385725C4.13914 0.402855 4.12319 0.42108 4.10848 0.440279C3.95247 0.672981 3.98652 0.984184 4.18917 1.17764L5.7251 2.71913C5.80675 2.80086 5.90062 2.8694 6.00335 2.92225L6.1703 2.99738L0.70551 2.99738C0.421227 2.98682 0.171812 3.1854 0.118406 3.46483C0.0692084 3.76821 0.275252 4.05402 0.578629 4.10324Z" fill="#0ACAA0"/>
</svg>
