<svg width="67" height="40" viewBox="0 0 67 40" fill="none" xmlns="http://www.w3.org/2000/svg">
<g filter="url(#filter0_ii)">
<mask id="path-1-inside-1" fill="white">
<path fill-rule="evenodd" clip-rule="evenodd" d="M65.6402 18.2514C65.6496 18.2635 65.6587 18.2758 65.6676 18.2882C65.8282 18.5119 65.9142 18.7803 65.9136 19.0555V19.0557L66.036 19.1027C66.0327 19.3425 65.9642 19.5769 65.8377 19.7807C65.7113 19.9846 65.5316 20.1502 65.3181 20.2597L65.3095 20.2641C63.1182 23.1754 60.7694 25.9652 58.2738 28.6213C56.2095 30.8302 53.9635 32.8624 51.5594 34.6966C49.6508 36.1609 47.5744 37.3928 45.374 38.3663C43.5483 39.1676 41.6131 39.6922 39.6323 39.9228C35.4665 40.2971 31.2922 39.3034 27.7429 37.0927C24.2228 34.8932 20.9186 32.3663 17.8745 29.5458L17.82 29.4985C14.7538 26.835 11.7829 24.2542 8.71496 22.5181C6.1482 22.0696 3.63558 21.3463 1.22083 20.3595C1.21821 20.3591 1.21559 20.3587 1.21297 20.3583L1.21221 20.3582C1.10219 20.3498 0.993402 20.3275 0.888453 20.2917C0.71645 20.2331 0.558519 20.1393 0.424664 20.0165C0.290809 19.8937 0.183947 19.7444 0.110846 19.5782C0.0377457 19.412 0 19.2324 0 19.0508C0 18.8692 0.0377457 18.6897 0.110846 18.5234C0.183947 18.3572 0.290809 18.2079 0.424664 18.0851C0.498957 18.0169 0.580667 17.9577 0.668083 17.9085C3.70268 15.3442 7.16854 13.3369 10.9051 11.9803C13.7444 10.9798 16.7862 10.6915 19.7632 11.1407C20.2147 11.2116 20.6604 11.2995 21.1006 11.4028C22.3522 10.436 23.5762 9.42834 24.7923 8.42722L24.7965 8.42377C27.3998 6.13283 30.2067 4.08355 33.1823 2.30131C34.6224 1.47348 36.1656 0.839088 37.7718 0.414579C39.4298 0.00785177 41.1469 -0.100758 42.843 0.0938343C46.1765 0.490049 49.5573 2.0466 53.1742 4.86727C57.0341 7.8841 61.1109 12.2482 65.6402 18.2514ZM24.0642 12.3454C24.8725 11.6952 25.6644 11.0407 26.4446 10.3958L26.468 10.3765L26.4982 10.3517C31.9532 5.86233 36.6683 1.98186 42.5219 2.67866C45.355 3.01827 48.3108 4.40502 51.5405 6.91438C53.8136 8.66113 56.1767 10.9505 58.6852 13.8158C57.0023 12.9386 55.2696 12.1555 53.495 11.4709C50.4618 10.3012 47.2259 9.7464 43.976 9.83883C41.2833 9.97268 38.6343 10.5728 36.1473 11.6124C33.8256 12.6115 31.5676 13.752 29.3857 15.0274L29.2906 15.0801C27.6223 14.0291 25.8893 13.0738 24.0642 12.3454ZM21.5992 14.2588C23.3378 14.7886 24.9954 15.5842 26.6247 16.5348C21.7892 19.0916 16.794 21.0841 9.89915 20.0767C14.3614 19.0698 18.1553 16.8155 21.5992 14.2588ZM4.84537 18.053C9.57948 14.775 13.9376 13.3045 18.0749 13.5927C14.2114 16.1712 9.97086 18.0659 4.84537 18.053ZM46.7999 24.744C51.6985 25.4557 56.6954 23.6555 62.4236 19.1073C47.3325 8.9469 39.9051 12.2876 31.8053 16.7517C32.4935 17.2283 33.1723 17.7101 33.844 18.1868L33.8717 18.2065L34.0296 18.3185C38.2105 21.2863 42.1368 24.0732 46.7999 24.744ZM32.323 20.3385C31.2803 19.5978 30.2513 18.8673 29.2222 18.1758C25.9452 19.9585 22.4968 21.6639 18.4124 22.48C16.959 22.7642 15.4859 22.922 14.0096 22.9525C15.9484 24.3957 17.8122 25.9382 19.5932 27.5741C25.5898 32.791 31.8036 38.1776 39.3584 37.3757C45.0559 36.7633 51.221 32.7208 58.0366 25.0611C57.0989 25.5339 56.1383 25.9634 55.1574 26.3478C52.3659 27.4082 49.3519 27.7489 46.3938 27.3383C41.096 26.5647 36.5726 23.3573 32.323 20.3385Z"/>
</mask>
<path d="M65.6676 18.2882L63.6366 19.7459L63.6367 19.7461L65.6676 18.2882ZM65.6402 18.2514L63.6446 19.7571C63.6501 19.7645 63.6557 19.7718 63.6613 19.7791L65.6402 18.2514ZM65.9136 19.0555L63.4136 19.0494V19.0555H65.9136ZM65.9136 19.0557H63.4136C63.4136 20.0904 64.051 21.0182 65.0169 21.3893L65.9136 19.0557ZM66.036 19.1027L68.5357 19.1363C68.5498 18.0894 67.91 17.1446 66.9326 16.769L66.036 19.1027ZM65.3181 20.2597L66.4512 22.4882L66.4593 22.484L65.3181 20.2597ZM65.3095 20.2641L64.1764 18.0356C63.8368 18.2083 63.5412 18.4563 63.3121 18.7606L65.3095 20.2641ZM58.2738 28.6213L56.4519 26.9094L56.4472 26.9143L58.2738 28.6213ZM51.5594 34.6966L50.043 32.709L50.0377 32.7131L51.5594 34.6966ZM45.374 38.3663L46.3788 40.6555L46.3854 40.6525L45.374 38.3663ZM39.6323 39.9228L39.856 42.4128C39.8778 42.4108 39.8996 42.4086 39.9214 42.406L39.6323 39.9228ZM27.7429 37.0927L26.4182 39.2129L26.4212 39.2147L27.7429 37.0927ZM17.8745 29.5458L19.5736 27.7119C19.554 27.6938 19.5341 27.6759 19.5139 27.6584L17.8745 29.5458ZM17.82 29.4985L16.1805 31.3858L16.1806 31.3859L17.82 29.4985ZM8.71496 22.5181L9.94624 20.3423C9.69759 20.2016 9.42666 20.1045 9.14522 20.0554L8.71496 22.5181ZM1.22083 20.3595L2.16652 18.0453C1.98074 17.9693 1.78648 17.9161 1.58795 17.8866L1.22083 20.3595ZM1.21297 20.3583L1.5818 17.8857C1.53986 17.8794 1.49777 17.8742 1.45557 17.8701L1.21297 20.3583ZM1.21221 20.3582L1.45481 17.87C1.43766 17.8684 1.42049 17.8669 1.40331 17.8656L1.21221 20.3582ZM0.888453 20.2917L0.0812958 22.6579L0.0813033 22.6579L0.888453 20.2917ZM0.424664 20.0165L2.11491 18.1745H2.11491L0.424664 20.0165ZM0.110846 19.5782L-2.17766 20.5846L-2.17765 20.5846L0.110846 19.5782ZM0.110846 18.5234L2.39935 19.5298H2.39935L0.110846 18.5234ZM0.424664 18.0851L2.11491 19.9271L2.11493 19.9271L0.424664 18.0851ZM0.668083 17.9085L1.89471 20.0869C2.03188 20.0097 2.16145 19.9196 2.28168 19.818L0.668083 17.9085ZM10.9051 11.9803L10.0743 9.62238C10.0668 9.625 10.0594 9.62766 10.052 9.63036L10.9051 11.9803ZM19.7632 11.1407L20.1511 8.67096C20.1461 8.67018 20.1411 8.66941 20.1362 8.66866L19.7632 11.1407ZM21.1006 11.4028L20.5293 13.8367C21.262 14.0086 22.0332 13.8414 22.6288 13.3813L21.1006 11.4028ZM24.7923 8.42722L23.2035 6.49697L23.2033 6.49715L24.7923 8.42722ZM24.7965 8.42377L26.3852 10.354C26.4064 10.3365 26.4274 10.3187 26.448 10.3006L24.7965 8.42377ZM33.1823 2.30131L31.9364 0.133902C31.9234 0.14135 31.9105 0.148915 31.8977 0.156595L33.1823 2.30131ZM37.7718 0.414579L37.1762 -2.01343C37.1618 -2.00989 37.1474 -2.00623 37.1331 -2.00244L37.7718 0.414579ZM42.843 0.0938343L43.1381 -2.38871L43.128 -2.38987L42.843 0.0938343ZM53.1742 4.86727L54.7137 2.89753L54.7116 2.89589L53.1742 4.86727ZM24.0642 12.3454L22.4973 10.3974C21.8048 10.9545 21.4601 11.8373 21.5919 12.7162C21.7237 13.5951 22.3122 14.3379 23.1376 14.6673L24.0642 12.3454ZM26.4446 10.3958L28.0373 12.3228L28.0374 12.3228L26.4446 10.3958ZM26.468 10.3765L24.8793 8.44619L24.8752 8.4496L26.468 10.3765ZM26.4982 10.3517L28.0868 12.282L28.0868 12.282L26.4982 10.3517ZM42.5219 2.67866L42.8195 0.196432L42.8174 0.196188L42.5219 2.67866ZM51.5405 6.91438L50.0066 8.88856L50.0172 8.89671L51.5405 6.91438ZM58.6852 13.8158L57.5296 16.0327C58.5962 16.5887 59.9075 16.3063 60.6508 15.3606C61.394 14.4149 61.3585 13.074 60.5662 12.169L58.6852 13.8158ZM53.495 11.4709L54.3949 9.13844L54.3945 9.13829L53.495 11.4709ZM43.976 9.83883L43.9049 7.33984C43.8872 7.34035 43.8695 7.34104 43.8518 7.34191L43.976 9.83883ZM36.1473 11.6124L35.1831 9.30576C35.1751 9.30913 35.167 9.31254 35.159 9.31599L36.1473 11.6124ZM29.3857 15.0274L30.5984 17.2136C30.6148 17.2044 30.6312 17.1951 30.6474 17.1857L29.3857 15.0274ZM29.2906 15.0801L27.958 17.1954C28.7299 17.6816 29.7055 17.7088 30.5033 17.2663L29.2906 15.0801ZM21.5992 14.2588L22.3279 11.8674C21.5692 11.6362 20.7458 11.7787 20.109 12.2515L21.5992 14.2588ZM26.6247 16.5348L27.7933 18.7449C28.5958 18.3205 29.1052 17.4946 29.1242 16.587C29.1431 15.6795 28.6686 14.8329 27.8846 14.3755L26.6247 16.5348ZM9.89915 20.0767L9.34888 17.638C8.17365 17.9032 7.35472 18.9689 7.401 20.1727C7.44728 21.3766 8.34561 22.3763 9.53773 22.5504L9.89915 20.0767ZM4.84537 18.053L3.4222 15.9976C2.5241 16.6194 2.13374 17.7524 2.45817 18.7955C2.7826 19.8385 3.7467 20.5502 4.83908 20.553L4.84537 18.053ZM18.0749 13.5927L19.4627 15.6722C20.3522 15.0785 20.7656 13.9849 20.4912 12.9513C20.2168 11.9177 19.3154 11.1731 18.2486 11.0988L18.0749 13.5927ZM62.4236 19.1073L63.9781 21.0652C64.6025 20.5695 64.9529 19.8058 64.9217 19.0092C64.8904 18.2126 64.4811 17.4787 63.8198 17.0335L62.4236 19.1073ZM46.7999 24.744L47.1593 22.27L47.1559 22.2695L46.7999 24.744ZM31.8053 16.7517L30.5986 14.5622C29.8407 14.9799 29.3527 15.7599 29.3086 16.6242C29.2645 17.4885 29.6705 18.3141 30.3819 18.8069L31.8053 16.7517ZM33.844 18.1868L35.291 16.1481L35.291 16.1481L33.844 18.1868ZM33.8717 18.2065L35.3188 16.1679L35.3187 16.1678L33.8717 18.2065ZM34.0296 18.3185L35.4766 16.2799L35.4766 16.2799L34.0296 18.3185ZM29.2222 18.1758L30.6166 16.1008C29.8435 15.5813 28.8457 15.5346 28.0275 15.9797L29.2222 18.1758ZM32.323 20.3385L33.7708 18.3004L32.323 20.3385ZM18.4124 22.48L18.8923 24.9335L18.9022 24.9315L18.4124 22.48ZM14.0096 22.9525L13.9579 20.453C12.8899 20.4751 11.9539 21.1734 11.6285 22.1908C11.303 23.2083 11.6599 24.3201 12.5168 24.9579L14.0096 22.9525ZM19.5932 27.5741L17.902 29.4153C17.9186 29.4305 17.9353 29.4455 17.9523 29.4603L19.5932 27.5741ZM39.3584 37.3757L39.6223 39.8618L39.6257 39.8614L39.3584 37.3757ZM58.0366 25.0611L59.9042 26.7229C60.7021 25.8262 60.7501 24.4891 60.0186 23.5374C59.2871 22.5858 57.9825 22.2884 56.9108 22.8289L58.0366 25.0611ZM55.1574 26.3478L56.0452 28.6848C56.0533 28.6817 56.0614 28.6786 56.0695 28.6755L55.1574 26.3478ZM46.3938 27.3383L46.0326 29.8121C46.0384 29.8129 46.0443 29.8137 46.0501 29.8146L46.3938 27.3383ZM67.6987 16.8306C67.6723 16.7938 67.6458 16.7582 67.6192 16.7237L63.6613 19.7791C63.6534 19.7688 63.6451 19.7577 63.6366 19.7459L67.6987 16.8306ZM68.4136 19.0617C68.4155 18.261 68.1652 17.4804 67.6985 16.8303L63.6367 19.7461C63.4912 19.5434 63.4129 19.2996 63.4136 19.0494L68.4136 19.0617ZM68.4136 19.0557V19.0555H63.4136V19.0557H68.4136ZM66.9326 16.769L66.8102 16.722L65.0169 21.3893L65.1393 21.4364L66.9326 16.769ZM67.962 21.0988C68.328 20.509 68.5264 19.8306 68.5357 19.1363L63.5362 19.0691C63.5391 18.8544 63.6004 18.6448 63.7134 18.4627L67.962 21.0988ZM66.4593 22.484C67.0765 22.1674 67.5961 21.6886 67.962 21.0988L63.7134 18.4627C63.8264 18.2806 63.9867 18.133 64.1768 18.0355L66.4593 22.484ZM66.4427 22.4925L66.4512 22.4882L64.1849 18.0313L64.1764 18.0356L66.4427 22.4925ZM60.0957 30.3332C62.6536 27.6109 65.0609 24.7515 67.3069 21.7676L63.3121 18.7606C61.1754 21.5993 58.8853 24.3196 56.4519 26.9094L60.0957 30.3332ZM53.0758 36.6842C55.591 34.7653 57.9407 32.6392 60.1003 30.3282L56.4472 26.9143C54.4783 29.0212 52.3361 30.9595 50.043 32.709L53.0758 36.6842ZM46.3854 40.6525C48.7673 39.5988 51.0151 38.2652 53.0812 36.68L50.0377 32.7131C48.2866 34.0565 46.3814 35.1868 44.3625 36.08L46.3854 40.6525ZM39.9214 42.406C42.149 42.1467 44.3254 41.5567 46.3787 40.6554L44.3692 36.0771C42.7711 36.7785 41.0771 37.2378 39.3432 37.4396L39.9214 42.406ZM26.4212 39.2147C30.432 41.713 35.1489 42.8357 39.856 42.4128L39.4086 37.4328C35.7841 37.7585 32.1523 36.8939 29.0647 34.9707L26.4212 39.2147ZM16.1753 31.3796C19.335 34.3072 22.7646 36.9299 26.4182 39.2129L29.0677 34.9726C25.6811 32.8565 22.5022 30.4255 19.5736 27.7119L16.1753 31.3796ZM16.1806 31.3859L16.235 31.4332L19.5139 27.6584L19.4594 27.6111L16.1806 31.3859ZM7.48369 24.6938C10.2904 26.2822 13.0649 28.6794 16.1805 31.3858L19.4595 27.6111C16.4427 24.9905 13.2754 22.2263 9.94624 20.3423L7.48369 24.6938ZM0.275139 22.6737C2.856 23.7284 5.54144 24.5015 8.2847 24.9808L9.14522 20.0554C6.75497 19.6378 4.41515 18.9641 2.16652 18.0453L0.275139 22.6737ZM0.844136 22.831C0.846581 22.8313 0.85008 22.8319 0.85371 22.8324L1.58795 17.8866C1.58634 17.8864 1.5846 17.8861 1.5818 17.8857L0.844136 22.831ZM0.969606 22.8465L0.970369 22.8465L1.45557 17.8701L1.45481 17.87L0.969606 22.8465ZM0.0813033 22.6579C0.386021 22.7618 0.701829 22.8265 1.0211 22.8509L1.40331 17.8656C1.50256 17.8732 1.60078 17.8933 1.6956 17.9256L0.0813033 22.6579ZM-1.26558 21.8585C-0.876707 22.2154 -0.418044 22.4875 0.0812958 22.6579L1.69561 17.9256C1.85094 17.9786 1.99375 18.0633 2.11491 18.1745L-1.26558 21.8585ZM-2.17765 20.5846C-1.96511 21.0679 -1.65448 21.5017 -1.26558 21.8585L2.11491 18.1745C2.2361 18.2857 2.333 18.421 2.39935 18.5718L-2.17765 20.5846ZM-2.5 19.0508C-2.5 19.5789 -2.39021 20.1012 -2.17766 20.5846L2.39935 18.5718C2.4657 18.7227 2.5 18.8858 2.5 19.0508H-2.5ZM-2.17765 17.5171C-2.39021 18.0004 -2.5 18.5227 -2.5 19.0508H2.5C2.5 19.2158 2.4657 19.3789 2.39935 19.5298L-2.17765 17.5171ZM-1.26558 16.2431C-1.65448 16.5999 -1.96511 17.0337 -2.17765 17.5171L2.39935 19.5298C2.333 19.6807 2.2361 19.8159 2.11491 19.9271L-1.26558 16.2431ZM-0.558546 15.7301C-0.812389 15.8731 -1.04974 16.045 -1.2656 16.2431L2.11493 19.9271C2.04766 19.9889 1.97372 20.0424 1.89471 20.0869L-0.558546 15.7301ZM10.052 9.63036C6.03792 11.0877 2.31461 13.2441 -0.945519 15.999L2.28168 19.818C5.09076 17.4443 8.29915 15.5861 11.7583 14.3302L10.052 9.63036ZM20.1362 8.66866C16.7547 8.15841 13.2995 8.48589 10.0743 9.62238L11.736 14.3382C14.1893 13.4737 16.8177 13.2245 19.3901 13.6127L20.1362 8.66866ZM21.6718 8.96896C21.1732 8.85194 20.6664 8.7519 20.1511 8.67096L19.3752 13.6104C19.7631 13.6713 20.1476 13.7471 20.5293 13.8367L21.6718 8.96896ZM23.2033 6.49715C21.9823 7.5024 20.7881 8.48522 19.5723 9.42431L22.6288 13.3813C23.9163 12.3868 25.1702 11.3543 26.3812 10.3573L23.2033 6.49715ZM23.2077 6.49353L23.2035 6.49697L26.381 10.3575L26.3852 10.354L23.2077 6.49353ZM31.8977 0.156595C28.792 2.0168 25.8622 4.15576 23.1449 6.54697L26.448 10.3006C28.9374 8.10991 31.6215 6.1503 34.4669 4.44603L31.8977 0.156595ZM37.1331 -2.00244C35.3144 -1.52179 33.567 -0.803484 31.9364 0.133902L34.4282 4.46873C35.6778 3.75043 37.0168 3.19996 38.4106 2.8316L37.1331 -2.00244ZM43.128 -2.38987C41.1374 -2.61825 39.122 -2.49079 37.1762 -2.01343L38.3675 2.84258C39.7375 2.50649 41.1565 2.41674 42.558 2.57754L43.128 -2.38987ZM54.7116 2.89589C50.8587 -0.108818 47.0585 -1.92272 43.1381 -2.38869L42.5479 2.57636C45.2946 2.90282 48.2559 4.20203 51.6368 6.83866L54.7116 2.89589ZM67.6359 16.7457C63.0347 10.6472 58.8086 6.098 54.7137 2.89753L51.6347 6.83702C55.2596 9.67019 59.187 13.8491 63.6446 19.7571L67.6359 16.7457ZM25.6312 14.2934C26.4546 13.6311 27.2591 12.966 28.0373 12.3228L24.8519 8.46885C24.0697 9.11534 23.2905 9.75933 22.4973 10.3974L25.6312 14.2934ZM28.0374 12.3228L28.0607 12.3035L24.8752 8.4496L24.8519 8.46889L28.0374 12.3228ZM28.0566 12.3069L28.0868 12.282L24.9096 8.42131L24.8793 8.44619L28.0566 12.3069ZM28.0868 12.282C30.8605 9.9993 33.2211 8.06691 35.5772 6.75433C37.8706 5.47673 39.9798 4.89371 42.2264 5.16113L42.8174 0.196188C39.2104 -0.233189 36.0353 0.775622 33.1439 2.38639C30.3153 3.96219 27.5908 6.2147 24.9095 8.42132L28.0868 12.282ZM42.2244 5.16089C44.4533 5.42808 46.9895 6.54431 50.0066 8.88854L53.0743 4.94023C49.6321 2.26574 46.2566 0.608464 42.8195 0.196433L42.2244 5.16089ZM50.0172 8.89671C52.1236 10.5153 54.368 12.6799 56.8042 15.4626L60.5662 12.169C57.9853 9.22113 55.5036 6.80695 53.0637 4.93205L50.0172 8.89671ZM59.8407 11.5989C58.0749 10.6785 56.2569 9.85683 54.3949 9.13844L52.5951 13.8033C54.2823 14.4542 55.9296 15.1988 57.5296 16.0327L59.8407 11.5989ZM54.3945 9.13829C51.052 7.84932 47.4862 7.23798 43.9049 7.33984L44.047 12.3378C46.9657 12.2548 49.8717 12.753 52.5955 13.8034L54.3945 9.13829ZM43.8518 7.34191C40.8703 7.49012 37.9371 8.15459 35.1831 9.30576L37.1114 13.919C39.3316 12.991 41.6963 12.4552 44.1001 12.3357L43.8518 7.34191ZM35.159 9.31599C32.7435 10.3555 30.3941 11.5421 28.1241 12.8691L30.6474 17.1857C32.741 15.9618 34.9078 14.8675 37.1355 13.9087L35.159 9.31599ZM28.1731 12.8412L28.078 12.8939L30.5033 17.2663L30.5984 17.2136L28.1731 12.8412ZM30.6232 12.9649C28.8774 11.865 27.0041 10.8269 24.9909 10.0235L23.1376 14.6673C24.7745 15.3206 26.3673 16.1932 27.958 17.1954L30.6232 12.9649ZM20.8705 16.6502C22.368 17.1066 23.844 17.8068 25.3648 18.6941L27.8846 14.3755C26.1468 13.3616 24.3076 12.4706 22.3279 11.8674L20.8705 16.6502ZM25.4561 14.3247C20.8162 16.7782 16.3901 18.4985 10.2606 17.603L9.53773 22.5504C17.1979 23.6696 22.7623 21.4051 27.7933 18.7449L25.4561 14.3247ZM10.4494 22.5154C15.3981 21.3987 19.5187 18.9169 23.0894 16.2661L20.109 12.2515C16.792 14.714 13.3246 16.7409 9.34888 17.638L10.4494 22.5154ZM6.26853 20.1083C10.7152 17.0294 14.5156 15.8508 17.9011 16.0867L18.2486 11.0988C13.3596 10.7582 8.44374 12.5206 3.4222 15.9976L6.26853 20.1083ZM16.6871 11.5133C13.0595 13.9343 9.30428 15.5642 4.85166 15.553L4.83908 20.553C10.6374 20.5675 15.3633 18.4081 19.4627 15.6722L16.6871 11.5133ZM60.869 17.1494C55.4229 21.4736 51.1076 22.8436 47.1593 22.27L46.4405 27.2181C52.2894 28.0677 57.9678 25.8374 63.9781 21.0652L60.869 17.1494ZM33.012 18.9412C37.0576 16.7115 40.4662 15.0504 44.5575 14.9445C48.6098 14.8396 53.7296 16.2677 61.0274 21.1811L63.8198 17.0335C56.0265 11.7865 49.8872 9.8048 44.428 9.94615C39.0078 10.0865 34.6529 12.3278 30.5986 14.5622L33.012 18.9412ZM35.291 16.1481C34.6211 15.6727 33.9306 15.1826 33.2288 14.6965L30.3819 18.8069C31.0563 19.274 31.7235 19.7475 32.3971 20.2255L35.291 16.1481ZM35.3187 16.1678L35.291 16.1481L32.3971 20.2255L32.4248 20.2452L35.3187 16.1678ZM35.4766 16.2799L35.3188 16.1679L32.4247 20.2451L32.5825 20.3572L35.4766 16.2799ZM47.1559 22.2695C43.1981 21.7002 39.7688 19.3266 35.4766 16.2799L32.5825 20.3571C36.6522 23.2459 41.0754 26.4463 46.4439 27.2186L47.1559 22.2695ZM27.8278 20.2508C28.8255 20.9213 29.8284 21.633 30.8752 22.3766L33.7708 18.3004C32.7323 17.5627 31.677 16.8134 30.6166 16.1008L27.8278 20.2508ZM18.9022 24.9315C23.3736 24.0382 27.0961 22.1784 30.4169 20.3718L28.0275 15.9797C24.7942 17.7387 21.6199 19.2897 17.9226 20.0284L18.9022 24.9315ZM14.0613 25.452C15.6812 25.4185 17.2976 25.2454 18.8923 24.9335L17.9325 20.0265C16.6205 20.2831 15.2907 20.4255 13.9579 20.453L14.0613 25.452ZM21.2844 25.733C19.44 24.0389 17.5101 22.4415 15.5023 20.9471L12.5168 24.9579C14.3868 26.3498 16.1843 27.8375 17.902 29.4153L21.2844 25.733ZM39.0946 34.8897C36.0216 35.2159 33.1183 34.3072 30.1533 32.5737C27.1446 30.8147 24.2695 28.3287 21.2341 25.688L17.9523 29.4603C20.9135 32.0364 24.1437 34.8521 27.6297 36.8902C31.1594 38.9537 35.1405 40.3375 39.6223 39.8618L39.0946 34.8897ZM56.1689 23.3992C49.4774 30.9194 43.8449 34.379 39.0912 34.89L39.6257 39.8614C46.2668 39.1475 52.9645 34.5222 59.9042 26.7229L56.1689 23.3992ZM56.0695 28.6755C57.1231 28.2626 58.1551 27.8012 59.1623 27.2933L56.9108 22.8289C56.0428 23.2666 55.1534 23.6643 54.2454 24.0201L56.0695 28.6755ZM46.0501 29.8146C49.4239 30.2829 52.8614 29.8943 56.0452 28.6848L54.2696 24.0107C51.8705 24.9221 49.28 25.215 46.7376 24.862L46.0501 29.8146ZM30.8752 22.3766C35.0264 25.3255 40.0372 28.9366 46.0326 29.8121L46.755 24.8645C42.1548 24.1928 38.1188 21.3891 33.7708 18.3004L30.8752 22.3766Z" fill="url(#paint0_linear)" fill-opacity="0.5" mask="url(#path-1-inside-1)"/>
</g>
<defs>
<filter id="filter0_ii" x="-0.5" y="-0.5" width="67.036" height="41" filterUnits="userSpaceOnUse" color-interpolation-filters="sRGB">
<feFlood flood-opacity="0" result="BackgroundImageFix"/>
<feBlend mode="normal" in="SourceGraphic" in2="BackgroundImageFix" result="shape"/>
<feColorMatrix in="SourceAlpha" type="matrix" values="0 0 0 0 0 0 0 0 0 0 0 0 0 0 0 0 0 0 127 0" result="hardAlpha"/>
<feOffset dx="-0.5" dy="-0.5"/>
<feGaussianBlur stdDeviation="0.25"/>
<feComposite in2="hardAlpha" operator="arithmetic" k2="-1" k3="1"/>
<feColorMatrix type="matrix" values="0 0 0 0 1 0 0 0 0 1 0 0 0 0 1 0 0 0 0.4 0"/>
<feBlend mode="normal" in2="shape" result="effect1_innerShadow"/>
<feColorMatrix in="SourceAlpha" type="matrix" values="0 0 0 0 0 0 0 0 0 0 0 0 0 0 0 0 0 0 127 0" result="hardAlpha"/>
<feOffset dx="0.5" dy="0.5"/>
<feGaussianBlur stdDeviation="0.25"/>
<feComposite in2="hardAlpha" operator="arithmetic" k2="-1" k3="1"/>
<feColorMatrix type="matrix" values="0 0 0 0 0.127604 0 0 0 0 0.267969 0 0 0 0 0.408333 0 0 0 0.4 0"/>
<feBlend mode="normal" in2="effect1_innerShadow" result="effect2_innerShadow"/>
</filter>
<linearGradient id="paint0_linear" x1="61.0833" y1="40" x2="30.6819" y2="-22.735" gradientUnits="userSpaceOnUse">
<stop stop-color="#48647D"/>
<stop offset="0.234375" stop-color="#6B8299"/>
<stop offset="0.442708" stop-color="#31456A"/>
<stop offset="0.682292" stop-color="#8CA2B7"/>
<stop offset="1" stop-color="#EDF2F7"/>
</linearGradient>
</defs>
</svg>
