<svg width="60" height="60" viewBox="0 0 60 60" fill="none" xmlns="http://www.w3.org/2000/svg">
<g filter="url(#filter0_ii__2)">
<path fill-rule="evenodd" clip-rule="evenodd" d="M29.935 21.734V21.7318H36.6567L36.2227 26.579H29.9178V31.3172H35.7997L35.2448 37.4456L29.9305 38.8698V38.8742H29.9222L24.6166 37.45L24.2771 33.6747H19.4979L20.1662 41.1078L29.9265 43.8068H29.9544V43.7958L39.6973 41.1119L39.7682 40.3112L40.5788 31.3172H40.5806L41.7518 18.2705L41.8657 17H29.935H29.9178H18L18.1139 18.2705L18.3309 20.6706L18.4298 21.734H29.935ZM29.9178 31.313V26.579H29.9156H24.249L24.3629 27.8495L24.5799 30.2496L24.6723 31.313H29.9178Z" fill="#0ACAA0"/>
</g>
<defs>
<filter id="filter0_ii__2" x="15" y="14" width="29.8657" height="32.8068" filterUnits="userSpaceOnUse" color-interpolation-filters="sRGB">
<feFlood flood-opacity="0" result="BackgroundImageFix"/>
<feBlend mode="normal" in="SourceGraphic" in2="BackgroundImageFix" result="shape"/>
<feColorMatrix in="SourceAlpha" type="matrix" values="0 0 0 0 0 0 0 0 0 0 0 0 0 0 0 0 0 0 127 0" result="hardAlpha"/>
<feOffset dx="3" dy="3"/>
<feGaussianBlur stdDeviation="3.5"/>
<feComposite in2="hardAlpha" operator="arithmetic" k2="-1" k3="1"/>
<feColorMatrix type="matrix" values="0 0 0 0 0.0392157 0 0 0 0 0.792157 0 0 0 0 0.627451 0 0 0 1 0"/>
<feBlend mode="normal" in2="shape" result="effect1_innerShadow"/>
<feColorMatrix in="SourceAlpha" type="matrix" values="0 0 0 0 0 0 0 0 0 0 0 0 0 0 0 0 0 0 127 0" result="hardAlpha"/>
<feOffset dx="-3" dy="-3"/>
<feGaussianBlur stdDeviation="3.5"/>
<feComposite in2="hardAlpha" operator="arithmetic" k2="-1" k3="1"/>
<feColorMatrix type="matrix" values="0 0 0 0 1 0 0 0 0 1 0 0 0 0 1 0 0 0 0.5 0"/>
<feBlend mode="normal" in2="effect1_innerShadow" result="effect2_innerShadow"/>
</filter>
</defs>
</svg>
