<svg width="60" height="60" viewBox="0 0 60 60" fill="none" xmlns="http://www.w3.org/2000/svg">
<g filter="url(#filter0_ii__3)">
<path fill-rule="evenodd" clip-rule="evenodd" d="M30 14C30.2693 13.9984 30.5301 14.1264 30.6953 14.3555L37.5222 23.8243C37.5426 23.852 37.5614 23.8809 37.5785 23.9108C37.596 23.9415 37.6117 23.9734 37.6254 24.0061C37.6484 24.0608 37.6659 24.118 37.6774 24.1767L40.9791 39.4908C40.9812 39.5003 40.9832 39.5099 40.985 39.5195C40.9888 39.5399 40.9919 39.5605 40.9943 39.5811C41.0068 39.6905 40.9988 39.8017 40.9702 39.9087C40.9508 39.9813 40.922 40.052 40.8837 40.1187C40.8262 40.2188 40.7507 40.3045 40.6628 40.3724C40.6421 40.3884 40.6208 40.4034 40.5989 40.4173L30.4593 46.8675C30.3183 46.9571 30.1588 47.001 30 47C29.8412 47.001 29.6817 46.9571 29.5407 46.8675L19.4011 40.4173C19.4011 40.4173 19.4011 40.4173 19.4011 40.4173C19.3947 40.4132 19.3884 40.4091 19.3822 40.4049C19.256 40.3199 19.1573 40.2046 19.0918 40.0729C19.0638 40.0167 19.0422 39.9581 19.0271 39.8983C19.0002 39.7925 18.9933 39.6828 19.0065 39.575C19.0096 39.5493 19.0138 39.5237 19.0192 39.4984C19.0198 39.4958 19.0204 39.4932 19.0209 39.4905L22.3226 24.1767C22.3356 24.1103 22.3563 24.0459 22.3839 23.9848C22.3962 23.9573 22.41 23.9306 22.4251 23.9046C22.4412 23.8769 22.4588 23.8502 22.4778 23.8244L29.3047 14.3555C29.4699 14.1264 29.7306 13.9984 30 14ZM29.1396 17.5247L24.1084 24.5029L25.2726 28.2148L29.1396 21.2869V17.5247ZM30 23.2679L25.98 30.4699L28.597 38.8132H31.403L34.02 30.4699L30 23.2679ZM35.1693 32.529L33.1982 38.8132H38.677L35.1693 32.529ZM37.169 40.5498H32.6535L31.528 44.1383L37.169 40.5498ZM30 43.2864L30.8583 40.5498H29.1417L30 43.2864ZM26.8018 38.8132L24.8307 32.529L21.323 38.8132H26.8018ZM21.9005 34.2562L24.1233 30.2739L23.3148 27.6963L21.9005 34.2562ZM22.831 40.5498H27.3465L28.472 44.1383L22.831 40.5498ZM38.0995 34.2562L35.8767 30.2739L36.6852 27.6963L38.0995 34.2562ZM35.8916 24.5029L34.7274 28.2148L30.8604 21.2869V17.5247L35.8916 24.5029Z" fill="#0ACAA0"/>
</g>
<defs>
<filter id="filter0_ii__3" x="16" y="11" width="28" height="39" filterUnits="userSpaceOnUse" color-interpolation-filters="sRGB">
<feFlood flood-opacity="0" result="BackgroundImageFix"/>
<feBlend mode="normal" in="SourceGraphic" in2="BackgroundImageFix" result="shape"/>
<feColorMatrix in="SourceAlpha" type="matrix" values="0 0 0 0 0 0 0 0 0 0 0 0 0 0 0 0 0 0 127 0" result="hardAlpha"/>
<feOffset dx="3" dy="3"/>
<feGaussianBlur stdDeviation="3.5"/>
<feComposite in2="hardAlpha" operator="arithmetic" k2="-1" k3="1"/>
<feColorMatrix type="matrix" values="0 0 0 0 0.0392157 0 0 0 0 0.792157 0 0 0 0 0.627451 0 0 0 1 0"/>
<feBlend mode="normal" in2="shape" result="effect1_innerShadow"/>
<feColorMatrix in="SourceAlpha" type="matrix" values="0 0 0 0 0 0 0 0 0 0 0 0 0 0 0 0 0 0 127 0" result="hardAlpha"/>
<feOffset dx="-3" dy="-3"/>
<feGaussianBlur stdDeviation="3.5"/>
<feComposite in2="hardAlpha" operator="arithmetic" k2="-1" k3="1"/>
<feColorMatrix type="matrix" values="0 0 0 0 1 0 0 0 0 1 0 0 0 0 1 0 0 0 0.5 0"/>
<feBlend mode="normal" in2="effect1_innerShadow" result="effect2_innerShadow"/>
</filter>
</defs>
</svg>
