<svg width="60" height="60" viewBox="0 0 60 60" fill="none" xmlns="http://www.w3.org/2000/svg">
<g filter="url(#filter0_ii__5)">
<path fill-rule="evenodd" clip-rule="evenodd" d="M15.4798 27.6259C15.4472 27.6737 15.4635 27.7056 15.5288 27.7056L21.4347 27.7216C21.4836 27.7216 21.5652 27.6737 21.5978 27.6259L21.8752 27.2112C21.9078 27.1634 21.8915 27.1155 21.8262 27.1155H16.0019C15.9366 27.1155 15.8551 27.1474 15.8224 27.1952L15.4798 27.6259ZM13.0163 29.0932C12.9837 29.141 13 29.1729 13.0653 29.1729L20.7821 29.157C20.8473 29.157 20.9126 29.1251 20.9289 29.0613L21.0594 28.6785C21.0757 28.6306 21.0431 28.5828 20.9779 28.5828H13.5384C13.4731 28.5828 13.3916 28.6147 13.3589 28.6625L13.0163 29.0932ZM16.9645 30.5445C16.9318 30.5924 16.9481 30.6402 17.0134 30.6402L20.57 30.6562C20.6189 30.6562 20.6842 30.6083 20.6842 30.5445L20.7168 30.1617C20.7168 30.0979 20.6842 30.0501 20.6189 30.0501H17.356C17.2907 30.0501 17.2255 30.0979 17.1929 30.1458L16.9645 30.5445ZM32.4259 27.8072C32.9053 27.6827 33.3762 27.5605 33.948 27.4185C34.1438 27.3707 34.209 27.2909 34.1111 27.1474C33.7033 26.2224 33.0833 25.4568 32.2186 24.8986C30.8971 24.0214 29.4288 23.846 27.8953 24.1171C26.0191 24.452 24.4855 25.393 23.3272 26.8763C22.2504 28.2479 21.7283 29.8109 21.9404 31.5493C22.1199 33.0166 22.8051 34.1968 24.0124 35.0899C25.3175 36.0469 26.8022 36.3499 28.401 36.1426C30.3424 35.8874 31.876 34.9464 33.0507 33.4313C33.317 33.0881 33.5451 32.7274 33.7359 32.3508C34.0108 33.3219 34.5641 34.1561 35.3673 34.8348C36.5093 35.7917 37.8634 36.2064 39.348 36.2383C39.4935 36.2219 39.6409 36.2092 39.7896 36.1965C40.0744 36.172 40.3638 36.1471 40.6532 36.0948C42.1705 35.7917 43.492 35.1219 44.5687 34.0533C46.086 32.5541 46.7223 30.7997 46.4449 28.6466C46.2328 27.1155 45.4334 25.9513 44.1446 25.09C42.7252 24.149 41.159 23.9896 39.4949 24.2766C37.5534 24.6116 36.1177 25.409 34.9268 26.9401C34.4164 27.593 34.0339 28.2831 33.798 29.0134H28.5478C28.3031 29.0134 28.1889 29.1729 28.14 29.2686C27.9116 29.6833 27.52 30.5126 27.3079 31.007C27.1937 31.2782 27.2753 31.4855 27.6179 31.4855H30.7666C30.7245 31.5432 30.6845 31.5987 30.6459 31.6524C30.535 31.8066 30.435 31.9455 30.3261 32.0756C29.592 32.889 28.662 33.2718 27.5526 33.1282C26.2638 32.9528 25.3665 31.9002 25.3502 30.6243C25.3339 29.3324 25.9049 28.2957 27.0143 27.594C27.9442 27.0039 28.9394 26.8603 29.9672 27.3547C30.3098 27.5142 30.4893 27.6897 30.734 27.9608C30.938 28.1909 30.9609 28.1849 31.1802 28.1273C31.1888 28.1251 31.1978 28.1227 31.2071 28.1203C31.6559 28.0071 32.0436 27.9064 32.4259 27.8072ZM43.2196 29.6244C43.2228 29.678 43.2262 29.7344 43.2309 29.7949C43.1494 31.1666 42.4478 32.1873 41.159 32.8412C40.2943 33.2718 39.397 33.3196 38.4997 32.9369C37.325 32.4265 36.7051 31.1666 36.9987 29.9225C37.3577 28.4233 38.3365 27.4824 39.8538 27.1474C41.4037 26.7966 42.8883 27.6897 43.182 29.2686C43.2051 29.3816 43.2118 29.4945 43.2196 29.6244Z" fill="#0ACAA0"/>
</g>
<defs>
<filter id="filter0_ii__5" x="10" y="21" width="39.5082" height="18.2383" filterUnits="userSpaceOnUse" color-interpolation-filters="sRGB">
<feFlood flood-opacity="0" result="BackgroundImageFix"/>
<feBlend mode="normal" in="SourceGraphic" in2="BackgroundImageFix" result="shape"/>
<feColorMatrix in="SourceAlpha" type="matrix" values="0 0 0 0 0 0 0 0 0 0 0 0 0 0 0 0 0 0 127 0" result="hardAlpha"/>
<feOffset dx="3" dy="3"/>
<feGaussianBlur stdDeviation="3.5"/>
<feComposite in2="hardAlpha" operator="arithmetic" k2="-1" k3="1"/>
<feColorMatrix type="matrix" values="0 0 0 0 0.0392157 0 0 0 0 0.792157 0 0 0 0 0.627451 0 0 0 1 0"/>
<feBlend mode="normal" in2="shape" result="effect1_innerShadow"/>
<feColorMatrix in="SourceAlpha" type="matrix" values="0 0 0 0 0 0 0 0 0 0 0 0 0 0 0 0 0 0 127 0" result="hardAlpha"/>
<feOffset dx="-3" dy="-3"/>
<feGaussianBlur stdDeviation="3.5"/>
<feComposite in2="hardAlpha" operator="arithmetic" k2="-1" k3="1"/>
<feColorMatrix type="matrix" values="0 0 0 0 1 0 0 0 0 1 0 0 0 0 1 0 0 0 0.5 0"/>
<feBlend mode="normal" in2="effect1_innerShadow" result="effect2_innerShadow"/>
</filter>
</defs>
</svg>
