<svg width="60" height="60" viewBox="0 0 60 60" fill="none" xmlns="http://www.w3.org/2000/svg">
<mask id="mask0" mask-type="alpha" maskUnits="userSpaceOnUse" x="11" y="21" width="39" height="18">
<path d="M11.0647 21.8745H49.1295V38.2679H11.0647" fill="white"/>
</mask>
<g mask="url(#mask0)">
<g filter="url(#filter0_ii__7)">
<path fill-rule="evenodd" clip-rule="evenodd" d="M47.5038 27.8529C47.5038 26.6257 47.6914 25.9021 47.6914 24.5806C47.6914 22.5353 46.941 21.8745 45.2844 21.8745H44.0653V23.3219H44.4404C45.2844 23.3219 45.4719 23.6051 45.4719 24.6435C45.4719 25.6188 45.3781 26.5943 45.3781 27.7271C45.3781 29.1745 45.847 29.7408 46.7847 29.961V30.0555C45.847 30.2757 45.3781 30.8422 45.3781 32.2896C45.3781 33.4222 45.4719 34.3348 45.4719 35.3732C45.4719 36.443 45.2531 36.7261 44.4404 36.7261V36.7575H44.0653V38.2679H45.2844C46.941 38.2679 47.6914 37.6071 47.6914 35.562C47.6914 34.2089 47.5038 33.5167 47.5038 32.2896C47.5038 31.6288 47.9101 30.9365 49.1292 30.8736V29.2374C47.9101 29.2059 47.5038 28.5137 47.5038 27.8529ZM33.656 29.7723C32.6869 29.3947 31.8116 29.1745 31.8116 28.5451C31.8116 28.0732 32.1867 27.79 32.8744 27.79C33.5621 27.79 34.1874 28.0732 34.8751 28.5767L36.1254 26.909C35.3439 26.3112 34.2811 25.6818 32.8432 25.6818C30.7176 25.6818 29.2796 26.909 29.2796 28.6396C29.2796 30.1814 30.6238 30.968 31.7492 31.4085C32.7181 31.7861 33.656 32.1008 33.656 32.73C33.656 33.202 33.2808 33.5167 32.4369 33.5167C31.6553 33.5167 30.8739 33.202 30.0299 32.5412L28.8108 34.3663C29.7485 35.1528 31.1864 35.6877 32.3743 35.6877C34.8751 35.6877 36.2191 34.3663 36.2191 32.6357C36.2191 30.9051 34.8751 30.1814 33.656 29.7723ZM41.2206 29.7723C40.2829 29.3947 39.4076 29.1745 39.4076 28.5451C39.4076 28.0732 39.7827 27.79 40.4704 27.79C41.1581 27.79 41.7834 28.0732 42.4711 28.5767L43.7214 26.909C42.9399 26.3112 41.8771 25.6818 40.4392 25.6818C38.3135 25.6818 36.8756 26.909 36.8756 28.6396C36.8756 30.1814 38.2198 30.968 39.345 31.4085C40.3141 31.7861 41.2518 32.1008 41.2518 32.73C41.2518 33.202 40.8768 33.5167 40.0327 33.5167C39.2513 33.5167 38.4698 33.202 37.6259 32.5412L36.3754 34.3663C37.3133 35.1528 38.7512 35.6877 39.939 35.6877C42.4397 35.6877 43.7839 34.3663 43.7839 32.6357C43.7839 30.9051 42.4397 30.1814 41.2206 29.7723ZM22.6527 29.6149C22.8402 28.3563 23.5904 27.7586 24.4657 27.7586C25.5911 27.7586 26.0288 28.5451 26.0288 29.6149H22.6527ZM28.4043 30.1814C28.4356 27.6327 27.0602 25.6504 24.4344 25.6504C22.1525 25.6504 19.9645 27.5698 20.0269 30.5904C20.0269 33.7055 22.0588 35.5304 24.747 35.5304C25.8724 35.5304 27.1228 35.1214 28.0917 34.4606L27.154 32.793C26.4663 33.202 25.8098 33.3908 25.1221 33.3908C23.8718 33.3908 22.9027 32.793 22.6527 31.3455H28.3106C28.3419 31.1253 28.4043 30.6849 28.4043 30.1814Z" fill="#0ACAA0"/>
</g>
<g filter="url(#filter1_ii___8)">
<path fill-rule="evenodd" clip-rule="evenodd" d="M19.8703 33.3279C19.6515 33.3279 19.3701 33.1391 19.3701 32.5412V21.8745H14.9313C13.2434 21.8745 12.4931 22.5353 12.4931 24.5806C12.4931 25.9335 12.6806 26.6888 12.6806 27.8529C12.6806 28.5137 12.2743 29.2059 11.0552 29.2688V30.9051C12.2743 30.9365 12.6806 31.6288 12.6806 32.2896C12.6806 33.4538 12.4931 34.1459 12.4931 35.499C12.4931 37.5442 13.2434 38.205 14.9 38.205H16.1191V36.7575H15.744C14.9626 36.7575 14.7125 36.443 14.7125 35.4046C14.7125 34.3663 14.8063 33.4853 14.8063 32.321C14.8063 30.8736 14.3374 30.3072 13.3995 30.0869V29.9926C14.3374 29.7723 14.8063 29.2059 14.8063 27.7586C14.8063 26.6257 14.7125 25.7133 14.7125 24.6749C14.7125 23.6366 14.9313 23.3535 15.744 23.3535H16.5881V32.3839C16.5881 34.3033 17.2445 35.562 19.1513 35.562C19.7452 35.562 20.2141 35.4675 20.558 35.3416L20.2454 33.2965C20.0578 33.3279 19.9641 33.3279 19.8703 33.3279Z" fill="#0ACAA0"/>
</g>
</g>
<defs>
<filter id="filter0_ii__7" x="17.0256" y="18.8745" width="35.1036" height="22.3934" filterUnits="userSpaceOnUse" color-interpolation-filters="sRGB">
<feFlood flood-opacity="0" result="BackgroundImageFix"/>
<feBlend mode="normal" in="SourceGraphic" in2="BackgroundImageFix" result="shape"/>
<feColorMatrix in="SourceAlpha" type="matrix" values="0 0 0 0 0 0 0 0 0 0 0 0 0 0 0 0 0 0 127 0" result="hardAlpha"/>
<feOffset dx="3" dy="3"/>
<feGaussianBlur stdDeviation="3.5"/>
<feComposite in2="hardAlpha" operator="arithmetic" k2="-1" k3="1"/>
<feColorMatrix type="matrix" values="0 0 0 0 0.0392157 0 0 0 0 0.792157 0 0 0 0 0.627451 0 0 0 1 0"/>
<feBlend mode="normal" in2="shape" result="effect1_innerShadow"/>
<feColorMatrix in="SourceAlpha" type="matrix" values="0 0 0 0 0 0 0 0 0 0 0 0 0 0 0 0 0 0 127 0" result="hardAlpha"/>
<feOffset dx="-3" dy="-3"/>
<feGaussianBlur stdDeviation="3.5"/>
<feComposite in2="hardAlpha" operator="arithmetic" k2="-1" k3="1"/>
<feColorMatrix type="matrix" values="0 0 0 0 1 0 0 0 0 1 0 0 0 0 1 0 0 0 0.5 0"/>
<feBlend mode="normal" in2="effect1_innerShadow" result="effect2_innerShadow"/>
</filter>
<filter id="filter1_ii___8" x="8.05518" y="18.8745" width="15.5028" height="22.3305" filterUnits="userSpaceOnUse" color-interpolation-filters="sRGB">
<feFlood flood-opacity="0" result="BackgroundImageFix"/>
<feBlend mode="normal" in="SourceGraphic" in2="BackgroundImageFix" result="shape"/>
<feColorMatrix in="SourceAlpha" type="matrix" values="0 0 0 0 0 0 0 0 0 0 0 0 0 0 0 0 0 0 127 0" result="hardAlpha"/>
<feOffset dx="3" dy="3"/>
<feGaussianBlur stdDeviation="3.5"/>
<feComposite in2="hardAlpha" operator="arithmetic" k2="-1" k3="1"/>
<feColorMatrix type="matrix" values="0 0 0 0 0.0392157 0 0 0 0 0.792157 0 0 0 0 0.627451 0 0 0 1 0"/>
<feBlend mode="normal" in2="shape" result="effect1_innerShadow"/>
<feColorMatrix in="SourceAlpha" type="matrix" values="0 0 0 0 0 0 0 0 0 0 0 0 0 0 0 0 0 0 127 0" result="hardAlpha"/>
<feOffset dx="-3" dy="-3"/>
<feGaussianBlur stdDeviation="3.5"/>
<feComposite in2="hardAlpha" operator="arithmetic" k2="-1" k3="1"/>
<feColorMatrix type="matrix" values="0 0 0 0 1 0 0 0 0 1 0 0 0 0 1 0 0 0 0.5 0"/>
<feBlend mode="normal" in2="effect1_innerShadow" result="effect2_innerShadow"/>
</filter>
</defs>
</svg>
