<svg width="60" height="60" viewBox="0 0 60 60" fill="none" xmlns="http://www.w3.org/2000/svg">
<g filter="url(#filter0_ii__8)">
<path fill-rule="evenodd" clip-rule="evenodd" d="M22.0199 28.7804C21.5871 37.6298 28.3551 42.9142 29.2727 43.5886C29.9246 45.1324 29.8622 47.7635 29.8622 47.7635L30.8133 48.0918C30.8133 48.0918 30.6278 45.5138 30.9064 44.2951C30.9842 43.9159 31.1724 43.5848 31.3962 43.3077C31.5597 43.1918 31.9895 42.8735 32.5562 42.3498C32.5846 42.3342 32.6002 42.3263 32.6002 42.3263L32.599 42.3101C34.8515 40.2127 39.1658 34.9449 37.7046 26.3192C36.2504 19.8447 33.2676 16.7385 31.7671 15.176C31.3287 14.7194 31.0168 14.3946 30.9066 14.1561C30.3731 13.4061 29.8624 12.0939 29.8624 12.0939L29.8633 12.1528C29.8481 12.087 29.8323 12.0357 29.8158 12C29.7693 12.75 29.7462 13.0313 29.05 13.7813C27.9827 14.625 22.4606 19.2888 22.0199 28.7804Z" fill="#0ACAA0"/>
</g>
<defs>
<filter id="filter0_ii__8" x="19" y="9" width="22.0002" height="42.0918" filterUnits="userSpaceOnUse" color-interpolation-filters="sRGB">
<feFlood flood-opacity="0" result="BackgroundImageFix"/>
<feBlend mode="normal" in="SourceGraphic" in2="BackgroundImageFix" result="shape"/>
<feColorMatrix in="SourceAlpha" type="matrix" values="0 0 0 0 0 0 0 0 0 0 0 0 0 0 0 0 0 0 127 0" result="hardAlpha"/>
<feOffset dx="3" dy="3"/>
<feGaussianBlur stdDeviation="3.5"/>
<feComposite in2="hardAlpha" operator="arithmetic" k2="-1" k3="1"/>
<feColorMatrix type="matrix" values="0 0 0 0 0.0392157 0 0 0 0 0.792157 0 0 0 0 0.627451 0 0 0 1 0"/>
<feBlend mode="normal" in2="shape" result="effect1_innerShadow"/>
<feColorMatrix in="SourceAlpha" type="matrix" values="0 0 0 0 0 0 0 0 0 0 0 0 0 0 0 0 0 0 127 0" result="hardAlpha"/>
<feOffset dx="-3" dy="-3"/>
<feGaussianBlur stdDeviation="3.5"/>
<feComposite in2="hardAlpha" operator="arithmetic" k2="-1" k3="1"/>
<feColorMatrix type="matrix" values="0 0 0 0 1 0 0 0 0 1 0 0 0 0 1 0 0 0 0.5 0"/>
<feBlend mode="normal" in2="effect1_innerShadow" result="effect2_innerShadow"/>
</filter>
</defs>
</svg>
