<svg width="60" height="60" viewBox="0 0 60 60" fill="none" xmlns="http://www.w3.org/2000/svg">
<g filter="url(#filter0_ii__9)">
<path fill-rule="evenodd" clip-rule="evenodd" d="M50.2369 28.7109C49.2719 28.6859 48.5247 28.7849 47.8977 29.0551C47.852 29.0737 47.7997 29.0875 47.7464 29.1017C47.5882 29.1436 47.4224 29.1875 47.4036 29.3619C47.4593 29.4181 47.4869 29.4939 47.5161 29.5739C47.5381 29.6344 47.561 29.6972 47.5975 29.7557C47.7421 30.0013 47.9942 30.3318 48.2243 30.5041C48.477 30.7013 48.7306 30.8966 48.9966 31.0686C49.2276 31.2142 49.4737 31.3298 49.7187 31.4448C49.9711 31.5633 50.2222 31.6812 50.4541 31.8307C50.6062 31.9286 50.7579 32.0429 50.9097 32.1574L50.9098 32.1574C51.0235 32.2432 51.1373 32.329 51.2515 32.408C51.3 32.4444 51.342 32.4891 51.3843 32.5341C51.4564 32.6109 51.5294 32.6885 51.6366 32.7273V32.6898C51.5922 32.6322 51.5643 32.5613 51.536 32.4891C51.51 32.4228 51.4836 32.3555 51.4436 32.2966L51.0815 31.9408C50.7316 31.4621 50.2969 31.0442 49.8279 30.701C49.7276 30.6306 49.5963 30.5536 49.4542 30.4702C49.0495 30.2329 48.557 29.9441 48.4412 29.6088L48.4166 29.5838C48.6651 29.5601 48.9568 29.4726 49.1999 29.3998L49.1999 29.3998L49.2486 29.3852C49.4546 29.3299 49.6515 29.3087 49.8498 29.2873C50.0463 29.2661 50.2442 29.2447 50.4537 29.1899C50.625 29.1463 50.795 29.0929 50.9665 29.039L51.0337 29.018V28.9072C50.9334 28.8054 50.8463 28.6883 50.7591 28.5711C50.6568 28.4335 50.5544 28.2958 50.4305 28.1829C49.8167 27.6427 49.1402 27.1143 48.4412 26.6721C48.214 26.5227 47.9474 26.4056 47.6838 26.2898C47.513 26.2148 47.3434 26.1403 47.1867 26.0579C47.1383 26.033 47.0788 26.0124 47.0179 25.9912L47.0179 25.9912C46.8979 25.9496 46.7725 25.9061 46.7164 25.8245C46.5604 25.6294 46.4536 25.3899 46.3473 25.1514L46.3472 25.1513C46.3063 25.0594 46.2653 24.9676 46.2217 24.8786C45.8731 24.2036 45.5346 23.4546 45.2338 22.7409C45.154 22.5653 45.0857 22.3898 45.0181 22.2161C44.9013 21.9162 44.7867 21.6217 44.6187 21.3412C43.3761 19.2535 42.0268 17.989 39.9529 16.7478C39.5476 16.5128 39.0723 16.4004 38.5636 16.2801L38.4105 16.2438L37.5059 16.1951C37.3914 16.144 37.2767 16.0409 37.1672 15.9424L37.1672 15.9424C37.0922 15.875 37.0196 15.8097 36.9511 15.7648C36.263 15.3229 34.4915 14.3651 33.9855 15.6296C33.7147 16.2937 34.2267 16.9484 34.5668 17.3834C34.6361 17.472 34.6983 17.5515 34.7452 17.6201C34.7874 17.6779 34.8321 17.7374 34.8777 17.7982C35.0542 18.0332 35.2452 18.2874 35.3591 18.5413C35.4025 18.6482 35.43 18.7584 35.4578 18.8701C35.4844 18.9767 35.5113 19.0846 35.5527 19.1923C35.5988 19.3214 35.6442 19.454 35.69 19.5878L35.69 19.5879C35.8361 20.0146 35.9867 20.4546 36.1798 20.8385C36.3121 21.0956 36.4564 21.3659 36.6255 21.5987C36.6578 21.6441 36.6981 21.6811 36.7389 21.7185C36.8201 21.793 36.903 21.8691 36.9276 22.0169C36.8178 22.1765 36.774 22.3893 36.7301 22.6032C36.7067 22.717 36.6832 22.8312 36.6497 22.9378C36.2159 24.3256 36.3854 26.0448 37.0002 27.0647C37.1925 27.3717 37.6515 28.0477 38.2653 27.7886C38.6542 27.6305 38.7032 27.2272 38.7568 26.7856V26.7856C38.7781 26.6101 38.8002 26.4285 38.8446 26.2539C38.8575 26.2006 38.8627 26.154 38.8674 26.1115C38.8759 26.0357 38.8828 25.9733 38.9292 25.911V25.935C38.9754 26.0295 39.0218 26.1231 39.068 26.2163L39.0681 26.2165C39.1897 26.4619 39.31 26.7045 39.4229 26.9542C39.797 27.5555 40.4483 28.1822 40.9908 28.5988C41.0963 28.6799 41.1938 28.7822 41.2927 28.8858C41.4645 29.066 41.6406 29.2507 41.8703 29.3369V29.3001H41.8464C41.798 29.2274 41.735 29.1812 41.6701 29.1337C41.6365 29.1091 41.6025 29.0842 41.5698 29.0551C41.3523 28.8338 41.1115 28.5636 40.9427 28.3183C40.4373 27.6302 39.99 26.8684 39.593 26.0823C39.4153 25.7335 39.2601 25.355 39.1151 25.0016L39.1151 25.0016L39.0747 24.9033C39.048 24.8494 39.031 24.7854 39.0143 24.7224L39.0143 24.7224C38.9855 24.6136 38.9574 24.5076 38.8808 24.4607C38.8177 24.5545 38.7447 24.6439 38.6706 24.7346C38.5316 24.9048 38.3891 25.0793 38.3027 25.2952C38.1217 25.7125 38.0686 26.2055 38.0125 26.7273L38.0125 26.7273C37.9974 26.8669 37.9822 27.0086 37.9642 27.1515L37.9167 27.1751C37.5675 27.0857 37.4253 26.7429 37.2927 26.4232L37.2927 26.423C37.2795 26.3912 37.2664 26.3596 37.2532 26.3285C36.8921 25.4559 36.8314 24.0553 37.1448 23.0486C37.1609 22.9992 37.1873 22.9293 37.2184 22.847L37.2184 22.8469C37.3494 22.5006 37.5639 21.9333 37.4468 21.7351C37.4012 21.5875 37.2891 21.4798 37.1792 21.3743C37.1141 21.3118 37.0497 21.25 37.0005 21.1811C36.8449 20.9483 36.6745 20.6537 36.5661 20.3953C36.4306 20.0732 36.3267 19.7349 36.2224 19.3955L36.2224 19.3954L36.2224 19.3954C36.1041 19.0104 35.9854 18.6241 35.8199 18.2589C35.701 17.9973 35.5107 17.7283 35.3334 17.4778C35.2936 17.4216 35.2545 17.3664 35.2171 17.3123C35.1395 17.2004 35.0593 17.0997 34.9801 17.0002C34.8247 16.8051 34.6732 16.6148 34.5529 16.3546C34.4928 16.2195 34.4086 15.9985 34.5051 15.8516C34.5287 15.7529 34.5777 15.7161 34.6739 15.6914C34.8301 15.557 35.2764 15.7279 35.433 15.8019C35.88 15.986 36.2537 16.158 36.6268 16.4157C36.6817 16.4559 36.738 16.5077 36.7964 16.5615C36.9173 16.6728 37.0471 16.7925 37.1932 16.834H37.4468C37.6236 16.8732 37.8107 16.8814 37.9965 16.8895C38.2153 16.8991 38.4323 16.9086 38.6284 16.9688C39.2671 17.1779 39.8457 17.4846 40.3647 17.8157C41.9438 18.8359 43.2461 20.2855 44.1252 22.0169C44.2066 22.1761 44.2617 22.3278 44.3178 22.4827C44.3611 22.6022 44.4051 22.7235 44.4625 22.8517C44.5944 23.1645 44.7425 23.4806 44.8897 23.7947C45.026 24.0853 45.1614 24.3743 45.2825 24.6576L45.353 24.8188C45.5818 25.3433 45.8109 25.8684 46.1391 26.3032C46.2659 26.4845 46.662 26.6051 46.9989 26.7077C47.1412 26.751 47.2729 26.7911 47.3693 26.8312C47.4635 26.8743 47.5781 26.9156 47.6958 26.9579C47.8788 27.0238 48.0691 27.0922 48.201 27.1745C48.6112 27.4319 49.0198 27.7275 49.4055 28.0106C49.454 28.0478 49.5288 28.0952 49.6141 28.1493L49.6142 28.1494C49.8664 28.3092 50.2101 28.5271 50.2369 28.7109ZM37.9387 18.0373C37.7722 18.0355 37.6063 18.0563 37.4452 18.0991V18.1238H37.4685C37.5278 18.2437 37.6139 18.3411 37.6993 18.4379L37.6993 18.4379C37.7538 18.4995 37.8079 18.5608 37.8548 18.6275C37.9072 18.7337 37.9558 18.8395 38.0045 18.9453L38.0045 18.9453C38.046 19.0356 38.0875 19.1258 38.1314 19.2163L38.1546 19.192C38.3247 19.0693 38.4092 18.8727 38.4092 18.5778C38.3686 18.5297 38.3471 18.4822 38.3255 18.4347L38.3255 18.4347C38.3082 18.3966 38.2909 18.3584 38.2637 18.32C38.2206 18.2454 38.146 18.1936 38.0722 18.1423C38.0244 18.109 37.977 18.0761 37.9387 18.0373ZM16.7747 42.3092H18.4522C18.3731 39.2074 18.1157 35.786 17.68 32.0455H15.6907L13.2559 39.5872H13.241L10.8212 32.0455H8.742C8.3462 35.2389 8.09854 38.66 8 42.3092H9.52906C9.57833 39.3084 9.69697 36.5817 9.88531 34.1292H9.8999L12.4387 42.3092H13.7159L16.2699 34.1292H16.2849C16.552 36.6836 16.7153 39.4096 16.7747 42.3092ZM23.0248 43.0116C24.1431 41.2901 25.0443 38.5322 25.7273 34.7367V34.736H24.1386C23.851 37.0677 23.3463 39.2224 22.6238 41.1985C22.6734 40.8032 22.5495 40.109 22.2526 39.1148L20.9313 34.7363H19.2833L21.1242 40.5907C21.4011 41.4724 21.5398 42.0546 21.5398 42.3394C21.5398 42.7547 21.3618 43.1302 21.0059 43.4641C20.7083 43.7383 20.318 43.8751 19.8324 43.8751C19.5653 43.8751 19.3329 43.8585 19.1349 43.8293V44.7445C19.5401 44.9144 19.882 45.0001 20.1592 45.0001C21.1988 45.0001 22.1534 44.3368 23.0248 43.0116ZM43.493 42.2621H48.2271V41.0229H45.0856V32.1953H43.493V42.2621ZM40.4233 41.5921L42.2538 42.5053L41.6039 43.6364L39.2208 42.2338C38.825 42.352 38.3906 42.4106 37.9172 42.4106C36.648 42.4106 35.699 42.0371 35.0694 41.2912C34.3812 40.4678 34.0372 39.1697 34.0372 37.4001C34.0372 35.6 34.4253 34.2383 35.2027 33.3137C35.9102 32.4681 36.8995 32.0455 38.1677 32.0455C40.7541 32.0455 42.0468 33.7115 42.0468 37.042C42.0468 38.8519 41.6587 40.2184 40.8806 41.1424C40.7409 41.3114 40.5856 41.4573 40.4233 41.5921ZM35.7192 37.0872C35.7192 38.539 35.9208 39.592 36.324 40.2477C36.6979 40.8559 37.2821 41.1584 38.0795 41.1581C39.6034 41.1581 40.3657 39.8801 40.3657 37.3246C40.3657 35.893 40.1631 34.8495 39.7606 34.1928C39.387 33.5872 38.8028 33.2837 38.0058 33.2837C36.4809 33.2837 35.7192 34.5525 35.7192 37.0872ZM32.4144 41.5745C33.0334 41.0259 33.3432 40.3255 33.3432 39.4718C33.3432 38.4938 32.9558 37.9009 32.18 37.3444C32.18 37.3444 30.7495 36.5204 30.0423 36.1323C29.2648 35.6957 28.8436 35.178 28.8436 34.5828C28.8436 34.1934 29.014 33.876 29.2903 33.6279C29.5643 33.3788 29.9585 33.2547 30.469 33.2547C31.0992 33.2547 31.7381 33.3938 32.3854 33.6718L32.7693 32.8071C32.0125 32.3115 31.1723 32.0611 30.248 32.0611C29.3531 32.0611 28.623 32.3118 28.0572 32.8149C27.492 33.316 27.2096 33.9746 27.2096 34.7905C27.2096 35.7764 27.5883 36.3748 28.3448 36.9323C28.3448 36.9323 29.7405 37.7423 30.4384 38.1298C31.1952 38.5579 31.6077 39.0691 31.6077 39.6672C31.6077 40.1419 31.4051 40.5173 31.0654 40.7849C30.7253 41.0516 30.2564 41.1861 29.6565 41.1861C29.0172 41.1861 28.3052 40.9881 27.5187 40.5899L27.0907 41.4543C28.0047 42.0801 28.9489 42.3946 29.9228 42.3946C30.9639 42.3946 31.7948 42.1208 32.4144 41.5745ZM51.6366 42.2729H51.3768V41.2357L51.0163 42.2729H50.8294L50.4676 41.2357H50.4538V42.2729H50.2085V40.9096H50.5837L50.9291 41.84L51.2469 40.9096H51.6366V42.2729ZM49.5591 42.2729H49.2842L49.2835 41.1407H48.9093V40.9093H49.9188V41.1407H49.5591V42.2729Z" fill="#0ACAA0"/>
</g>
<defs>
<filter id="filter0_ii__9" x="5" y="12" width="49.6366" height="36.0001" filterUnits="userSpaceOnUse" color-interpolation-filters="sRGB">
<feFlood flood-opacity="0" result="BackgroundImageFix"/>
<feBlend mode="normal" in="SourceGraphic" in2="BackgroundImageFix" result="shape"/>
<feColorMatrix in="SourceAlpha" type="matrix" values="0 0 0 0 0 0 0 0 0 0 0 0 0 0 0 0 0 0 127 0" result="hardAlpha"/>
<feOffset dx="3" dy="3"/>
<feGaussianBlur stdDeviation="3.5"/>
<feComposite in2="hardAlpha" operator="arithmetic" k2="-1" k3="1"/>
<feColorMatrix type="matrix" values="0 0 0 0 0.0392157 0 0 0 0 0.792157 0 0 0 0 0.627451 0 0 0 1 0"/>
<feBlend mode="normal" in2="shape" result="effect1_innerShadow"/>
<feColorMatrix in="SourceAlpha" type="matrix" values="0 0 0 0 0 0 0 0 0 0 0 0 0 0 0 0 0 0 127 0" result="hardAlpha"/>
<feOffset dx="-3" dy="-3"/>
<feGaussianBlur stdDeviation="3.5"/>
<feComposite in2="hardAlpha" operator="arithmetic" k2="-1" k3="1"/>
<feColorMatrix type="matrix" values="0 0 0 0 1 0 0 0 0 1 0 0 0 0 1 0 0 0 0.5 0"/>
<feBlend mode="normal" in2="effect1_innerShadow" result="effect2_innerShadow"/>
</filter>
</defs>
</svg>
