<svg width="60" height="60" viewBox="0 0 60 60" fill="none" xmlns="http://www.w3.org/2000/svg">
<g filter="url(#filter0_ii__10)">
<path d="M45.0914 33.2692C44.904 32.7013 44.4132 32.3057 43.7785 32.2107C43.4791 32.166 43.1364 32.1851 42.7308 32.2688C42.0238 32.4148 41.4992 32.4704 41.1164 32.4811C42.5613 30.0395 43.7362 27.2552 44.4126 24.6342C45.5063 20.3962 44.9218 18.4655 44.2389 17.5922C42.4315 15.2807 39.7945 14.0389 36.6132 14.0009C34.9161 13.9802 33.4263 14.3155 32.6491 14.5567C31.9255 14.4289 31.1475 14.3575 30.3311 14.3443C28.8008 14.3199 27.4487 14.6538 26.2933 15.3401C25.6537 15.1236 24.6271 14.8184 23.4416 14.6236C20.6534 14.1655 18.4062 14.5225 16.7624 15.6847C14.772 17.0919 13.8493 19.5368 14.02 22.9515C14.0742 24.0357 14.6801 27.3343 15.6342 30.4627C16.1825 32.2608 16.7672 33.754 17.372 34.9012C18.2298 36.5279 19.1476 37.4859 20.1779 37.8299C20.7554 38.0225 21.8047 38.1574 22.9083 37.2374C23.0482 37.407 23.2348 37.5755 23.4825 37.732C23.7971 37.9305 24.1817 38.0927 24.5658 38.1889C25.9502 38.5352 27.2469 38.4486 28.3532 37.9631C28.36 38.16 28.3652 38.3482 28.3696 38.5107C28.377 38.7742 28.3843 39.0326 28.3939 39.2743C28.4595 40.9082 28.5706 42.1787 28.8996 43.0676C28.9177 43.1165 28.942 43.191 28.9676 43.27C29.1318 43.7731 29.4063 44.6154 30.1048 45.275C30.828 45.9583 31.7029 46.1678 32.5041 46.1678C32.906 46.1678 33.2894 46.1151 33.6257 46.043C34.8243 45.7858 36.1857 45.3941 37.1706 43.9906C38.1017 42.6638 38.5543 40.6654 38.6362 37.5167C38.6468 37.4276 38.6566 37.3426 38.666 37.2616L38.6855 37.0952L38.9049 37.1145L38.9614 37.1183C40.1823 37.174 41.6751 36.9149 42.592 36.4886C43.3164 36.1521 45.638 34.9254 45.0914 33.2692Z" fill="#0ACAA0"/>
</g>
<g filter="url(#filter1_ii)">
<path d="M43.0039 33.5911C39.3737 34.3407 39.1241 33.1105 39.1241 33.1105C42.9569 27.4181 44.5593 20.1925 43.1767 18.424C39.4043 13.6 32.8745 15.8815 32.7654 15.9406L32.7304 15.947C32.0132 15.7979 31.2106 15.7092 30.3084 15.6944C28.6659 15.6675 27.4198 16.1255 26.4743 16.8431C26.4743 16.8431 14.8256 12.04 15.3675 22.8838C15.4827 25.1907 18.671 40.339 22.4739 35.7635C23.8638 34.0903 25.2069 32.6757 25.2069 32.6757C25.8739 33.1192 26.6724 33.3454 27.5096 33.2642L27.5746 33.209C27.5544 33.4167 27.5636 33.6198 27.6006 33.8604C26.6209 34.9559 26.9089 35.1482 24.9504 35.5518C22.9687 35.9605 24.1329 36.6882 24.893 36.8785C25.8144 37.1091 27.9462 37.4358 29.3866 35.4176L29.3292 35.6479C29.713 35.9557 29.9825 37.6495 29.9373 39.185C29.8921 40.7205 29.862 41.7747 30.1644 42.5982C30.467 43.4216 30.7683 45.2744 33.3429 44.7223C35.4941 44.2608 36.6089 43.0651 36.7641 41.0705C36.8741 39.6526 37.1232 39.8622 37.1388 38.5945L37.3386 37.9943C37.569 36.0722 37.3753 35.4521 38.7005 35.7405L39.0228 35.7689C39.9981 35.8132 41.2749 35.6117 42.0242 35.2632C43.6377 34.5138 44.5947 33.2624 43.0037 33.5911H43.0039Z" fill="#0ACAA0"/>
</g>
<g filter="url(#filter2_ii)">
<path d="M27.1561 23.9156C26.8289 23.87 26.5327 23.9122 26.3828 24.0258C26.2986 24.0897 26.2725 24.1637 26.2654 24.2147C26.2466 24.3497 26.3411 24.499 26.3992 24.5759C26.5635 24.7939 26.8034 24.9437 27.041 24.9766C27.0754 24.9815 27.1097 24.9837 27.1438 24.9837C27.5399 24.9837 27.9001 24.675 27.9318 24.4472C27.9715 24.1618 27.5576 23.9715 27.1561 23.9157V23.9156ZM37.9935 23.9246C37.9623 23.7009 37.5646 23.6372 37.1872 23.6897C36.8102 23.7422 36.4448 23.9125 36.4753 24.1367C36.4997 24.3111 36.8143 24.6087 37.1866 24.6087C37.2181 24.6087 37.2498 24.6066 37.2818 24.6021C37.5303 24.5676 37.7127 24.4096 37.7993 24.3186C37.9312 24.1798 38.0076 24.0252 37.9935 23.9246Z" fill="#60798E"/>
</g>
<g filter="url(#filter3_ii)">
<path d="M44.2118 33.5061C44.0734 33.0872 43.6279 32.9524 42.8877 33.1054C40.6899 33.5594 39.9028 33.2449 39.6444 33.0544C41.3527 30.4497 42.758 27.3011 43.5162 24.3634C43.8753 22.9719 44.0736 21.6795 44.0899 20.6262C44.1078 19.47 43.9111 18.6205 43.5053 18.1015C41.8694 16.0093 39.4684 14.887 36.562 14.8562C34.5639 14.8337 32.8757 15.3455 32.5485 15.4894C31.8593 15.3179 31.108 15.2126 30.29 15.1991C28.7901 15.1748 27.4935 15.5342 26.4201 16.2669C25.9538 16.0932 24.7487 15.6791 23.275 15.4415C20.7273 15.031 18.7027 15.3421 17.2579 16.3665C15.534 17.5889 14.7381 19.7741 14.8923 22.8612C14.9442 23.8998 15.5355 27.0948 16.4685 30.1547C17.6968 34.182 19.0319 36.4618 20.4366 36.9308C20.6011 36.9857 20.7906 37.0241 20.9997 37.0241C21.5122 37.0241 22.1404 36.7929 22.7941 36.0064C23.5914 35.0491 24.4161 34.115 25.2673 33.2054C25.8195 33.5021 26.4262 33.6677 27.0466 33.6843C27.0478 33.7006 27.0494 33.7168 27.0509 33.733C26.9441 33.8604 26.8395 33.9898 26.7372 34.1209C26.3073 34.6671 26.2178 34.7808 24.8339 35.066C24.4403 35.1474 23.3948 35.363 23.3794 36.0965C23.3628 36.898 24.6153 37.2346 24.758 37.2702C25.2553 37.3949 25.7344 37.4563 26.1913 37.4563C27.3025 37.4563 28.2803 37.0908 29.0618 36.3835C29.0377 39.2406 29.1568 42.056 29.4995 42.9138C29.7803 43.616 30.466 45.3322 32.6322 45.332C32.9501 45.332 33.2999 45.295 33.6848 45.2124C35.9456 44.7274 36.9273 43.7273 37.3071 41.5225C37.5103 40.3441 37.8591 37.5303 38.0231 36.021C38.3693 36.1291 38.8149 36.1786 39.2967 36.1785C40.3016 36.1785 41.4611 35.9648 42.1882 35.627C43.0051 35.2473 44.4792 34.3156 44.2118 33.5061ZM38.828 23.3071C38.8206 23.7527 38.7593 24.1572 38.6943 24.5794C38.6244 25.0335 38.5521 25.503 38.534 26.073C38.516 26.6276 38.5852 27.2043 38.6521 27.762C38.7874 28.8885 38.9261 30.0481 38.3889 31.1924C38.2997 31.0341 38.2202 30.8706 38.1509 30.7026C38.0841 30.5406 37.9391 30.2804 37.7383 29.9202C36.9572 28.5181 35.1281 25.2349 36.0644 23.8951C36.3434 23.4964 37.0512 23.0864 38.828 23.3071ZM36.6743 15.7584C39.2784 15.816 41.3384 16.791 42.7968 18.6564C43.9155 20.0871 42.6837 26.5974 39.1178 32.2138C39.0819 32.1681 39.0459 32.1226 39.0096 32.0773L38.9645 32.0208C39.8859 30.4977 39.7058 28.9907 39.5454 27.6546C39.4795 27.1063 39.4172 26.5884 39.4331 26.1019C39.4494 25.5864 39.5176 25.1441 39.5835 24.7165C39.6644 24.1896 39.7468 23.6443 39.7241 23.0016C39.7411 22.9341 39.7479 22.8545 39.739 22.7599C39.681 22.1435 38.9779 20.2989 37.5449 18.6292C36.761 17.716 35.6178 16.694 34.057 16.0047C34.7283 15.8655 35.6464 15.7356 36.6743 15.7584ZM22.1024 35.4307C21.3822 36.2974 20.8849 36.1312 20.7213 36.0767C19.6557 35.721 18.4191 33.4666 17.329 29.8919C16.3857 26.7987 15.8344 23.6883 15.7907 22.8161C15.653 20.0577 16.3211 18.1353 17.7765 17.1022C20.145 15.4211 24.0392 16.4273 25.6039 16.9376C25.5815 16.9599 25.558 16.9806 25.5358 17.0032C22.968 19.5987 23.029 24.0331 23.0353 24.3042C23.0351 24.4087 23.0438 24.5568 23.0558 24.7605C23.1 25.5063 23.1823 26.8945 22.9625 28.4665C22.7585 29.9273 23.2084 31.3571 24.1968 32.3893C24.2982 32.495 24.4048 32.5957 24.5162 32.6908C24.0763 33.1624 23.1201 34.2053 22.1024 35.4307ZM24.8463 31.7664C24.0497 30.9344 23.6879 29.7771 23.8535 28.5911C24.0854 26.9305 23.9999 25.4842 23.9538 24.7072C23.9474 24.5985 23.9416 24.5032 23.9383 24.4281C24.3134 24.0951 26.0518 23.163 27.2915 23.4472C27.8571 23.5769 28.2018 23.9625 28.3451 24.6256C29.0868 28.059 28.4433 29.49 27.9262 30.64C27.8197 30.8769 27.719 31.1009 27.633 31.3325L27.5664 31.5116C27.3977 31.9644 27.2407 32.3854 27.1434 32.7852C26.2965 32.7827 25.4727 32.4206 24.8463 31.7662V31.7664ZM24.9763 36.3967C24.729 36.3349 24.5066 36.2275 24.3761 36.1384C24.4851 36.0871 24.679 36.0172 25.0154 35.9478C26.6434 35.6125 26.8949 35.3757 27.4439 34.678C27.5698 34.5179 27.7125 34.3366 27.9101 34.1157L27.9103 34.1155C28.2046 33.7856 28.3393 33.8416 28.5834 33.943C28.7813 34.0248 28.974 34.2731 29.0521 34.5463C29.0891 34.6753 29.1306 34.9201 28.9948 35.1107C27.8479 36.718 26.1765 36.6974 24.9763 36.3967ZM33.4963 44.3321C31.5047 44.7592 30.7995 43.7421 30.3348 42.5794C30.0349 41.8287 29.8874 38.4438 29.9921 34.7057C29.9934 34.656 29.9863 34.608 29.9726 34.5628C29.9604 34.4735 29.9418 34.3852 29.917 34.2986C29.7615 33.7547 29.3825 33.2997 28.9278 33.1111C28.7471 33.0362 28.4156 32.8988 28.0172 33.0008C28.1021 32.6504 28.2494 32.2547 28.4092 31.8262L28.4762 31.646C28.5517 31.4428 28.6464 31.2323 28.7465 31.0095C29.2876 29.8063 30.0287 28.1583 29.2244 24.4354C28.9231 23.0409 27.9171 22.3599 26.392 22.5181C25.4777 22.6128 24.6412 22.982 24.224 23.1937C24.1343 23.2392 24.0522 23.2832 23.9756 23.3259C24.092 21.9209 24.5319 19.2952 26.1776 17.6339C27.2138 16.5881 28.5938 16.0716 30.2751 16.0994C33.588 16.1537 35.7124 17.8553 36.9113 19.2733C37.9445 20.4952 38.5039 21.7261 38.7272 22.39C37.0482 22.219 35.9062 22.5507 35.3274 23.3791C34.0681 25.1809 36.0164 28.678 36.9527 30.3587C37.1245 30.6667 37.2726 30.9329 37.3193 31.046C37.6242 31.7857 38.019 32.2795 38.3072 32.6399C38.3955 32.7503 38.4812 32.8575 38.5464 32.9511C38.0379 33.0978 37.1245 33.4368 37.2077 35.1315C37.1406 35.9818 36.6632 39.9629 36.4206 41.3695C36.1005 43.2277 35.4173 43.9199 33.4963 44.3322V44.3321ZM41.8095 34.8104C41.2895 35.0519 40.4193 35.2331 39.5926 35.2721C38.6796 35.3149 38.2148 35.1697 38.1054 35.0804C38.0541 34.0244 38.4468 33.914 38.8624 33.7972C38.9277 33.7789 38.9915 33.7609 39.053 33.7394C39.0912 33.7706 39.133 33.8015 39.1789 33.8318C39.9128 34.3166 41.2217 34.3689 43.0697 33.9871L43.0899 33.9831C42.8407 34.2163 42.4142 34.5293 41.8095 34.8104Z" fill="#60798E"/>
</g>
<defs>
<filter id="filter0_ii__10" x="11" y="11" width="37.1739" height="38.1678" filterUnits="userSpaceOnUse" color-interpolation-filters="sRGB">
<feFlood flood-opacity="0" result="BackgroundImageFix"/>
<feBlend mode="normal" in="SourceGraphic" in2="BackgroundImageFix" result="shape"/>
<feColorMatrix in="SourceAlpha" type="matrix" values="0 0 0 0 0 0 0 0 0 0 0 0 0 0 0 0 0 0 127 0" result="hardAlpha"/>
<feOffset dx="3" dy="3"/>
<feGaussianBlur stdDeviation="3.5"/>
<feComposite in2="hardAlpha" operator="arithmetic" k2="-1" k3="1"/>
<feColorMatrix type="matrix" values="0 0 0 0 0.0392157 0 0 0 0 0.792157 0 0 0 0 0.627451 0 0 0 1 0"/>
<feBlend mode="normal" in2="shape" result="effect1_innerShadow"/>
<feColorMatrix in="SourceAlpha" type="matrix" values="0 0 0 0 0 0 0 0 0 0 0 0 0 0 0 0 0 0 127 0" result="hardAlpha"/>
<feOffset dx="-3" dy="-3"/>
<feGaussianBlur stdDeviation="3.5"/>
<feComposite in2="hardAlpha" operator="arithmetic" k2="-1" k3="1"/>
<feColorMatrix type="matrix" values="0 0 0 0 1 0 0 0 0 1 0 0 0 0 1 0 0 0 0.5 0"/>
<feBlend mode="normal" in2="effect1_innerShadow" result="effect2_innerShadow"/>
</filter>
<filter id="filter1_ii" x="12.3491" y="12.3503" width="34.4704" height="35.473" filterUnits="userSpaceOnUse" color-interpolation-filters="sRGB">
<feFlood flood-opacity="0" result="BackgroundImageFix"/>
<feBlend mode="normal" in="SourceGraphic" in2="BackgroundImageFix" result="shape"/>
<feColorMatrix in="SourceAlpha" type="matrix" values="0 0 0 0 0 0 0 0 0 0 0 0 0 0 0 0 0 0 127 0" result="hardAlpha"/>
<feOffset dx="3" dy="3"/>
<feGaussianBlur stdDeviation="3.5"/>
<feComposite in2="hardAlpha" operator="arithmetic" k2="-1" k3="1"/>
<feColorMatrix type="matrix" values="0 0 0 0 0.0392157 0 0 0 0 0.792157 0 0 0 0 0.627451 0 0 0 1 0"/>
<feBlend mode="normal" in2="shape" result="effect1_innerShadow"/>
<feColorMatrix in="SourceAlpha" type="matrix" values="0 0 0 0 0 0 0 0 0 0 0 0 0 0 0 0 0 0 127 0" result="hardAlpha"/>
<feOffset dx="-3" dy="-3"/>
<feGaussianBlur stdDeviation="3.5"/>
<feComposite in2="hardAlpha" operator="arithmetic" k2="-1" k3="1"/>
<feColorMatrix type="matrix" values="0 0 0 0 1 0 0 0 0 1 0 0 0 0 1 0 0 0 0.5 0"/>
<feBlend mode="normal" in2="effect1_innerShadow" result="effect2_innerShadow"/>
</filter>
<filter id="filter2_ii" x="23.2629" y="20.6724" width="17.7323" height="7.31137" filterUnits="userSpaceOnUse" color-interpolation-filters="sRGB">
<feFlood flood-opacity="0" result="BackgroundImageFix"/>
<feBlend mode="normal" in="SourceGraphic" in2="BackgroundImageFix" result="shape"/>
<feColorMatrix in="SourceAlpha" type="matrix" values="0 0 0 0 0 0 0 0 0 0 0 0 0 0 0 0 0 0 127 0" result="hardAlpha"/>
<feOffset dx="3" dy="3"/>
<feGaussianBlur stdDeviation="3.5"/>
<feComposite in2="hardAlpha" operator="arithmetic" k2="-1" k3="1"/>
<feColorMatrix type="matrix" values="0 0 0 0 0.534167 0 0 0 0 0.645967 0 0 0 0 0.749167 0 0 0 0.68 0"/>
<feBlend mode="normal" in2="shape" result="effect1_innerShadow"/>
<feColorMatrix in="SourceAlpha" type="matrix" values="0 0 0 0 0 0 0 0 0 0 0 0 0 0 0 0 0 0 127 0" result="hardAlpha"/>
<feOffset dx="-3" dy="-3"/>
<feGaussianBlur stdDeviation="3.5"/>
<feComposite in2="hardAlpha" operator="arithmetic" k2="-1" k3="1"/>
<feColorMatrix type="matrix" values="0 0 0 0 1 0 0 0 0 1 0 0 0 0 1 0 0 0 1 0"/>
<feBlend mode="normal" in2="effect1_innerShadow" result="effect2_innerShadow"/>
</filter>
<filter id="filter3_ii" x="11.8735" y="11.8555" width="35.3703" height="36.4766" filterUnits="userSpaceOnUse" color-interpolation-filters="sRGB">
<feFlood flood-opacity="0" result="BackgroundImageFix"/>
<feBlend mode="normal" in="SourceGraphic" in2="BackgroundImageFix" result="shape"/>
<feColorMatrix in="SourceAlpha" type="matrix" values="0 0 0 0 0 0 0 0 0 0 0 0 0 0 0 0 0 0 127 0" result="hardAlpha"/>
<feOffset dx="3" dy="3"/>
<feGaussianBlur stdDeviation="3.5"/>
<feComposite in2="hardAlpha" operator="arithmetic" k2="-1" k3="1"/>
<feColorMatrix type="matrix" values="0 0 0 0 0.534167 0 0 0 0 0.645967 0 0 0 0 0.749167 0 0 0 0.68 0"/>
<feBlend mode="normal" in2="shape" result="effect1_innerShadow"/>
<feColorMatrix in="SourceAlpha" type="matrix" values="0 0 0 0 0 0 0 0 0 0 0 0 0 0 0 0 0 0 127 0" result="hardAlpha"/>
<feOffset dx="-3" dy="-3"/>
<feGaussianBlur stdDeviation="3.5"/>
<feComposite in2="hardAlpha" operator="arithmetic" k2="-1" k3="1"/>
<feColorMatrix type="matrix" values="0 0 0 0 1 0 0 0 0 1 0 0 0 0 1 0 0 0 1 0"/>
<feBlend mode="normal" in2="effect1_innerShadow" result="effect2_innerShadow"/>
</filter>
</defs>
</svg>
