<svg width="60" height="60" viewBox="0 0 60 60" fill="none" xmlns="http://www.w3.org/2000/svg">
<g filter="url(#filter0_ii__11)">
<path fill-rule="evenodd" clip-rule="evenodd" d="M23.2435 19.0986C23.2435 19.0986 22.7992 16 29.9159 16C37.3534 16 36.7786 19.736 36.7786 19.736V25.9092C36.7786 29.6428 32.9942 29.5814 32.9942 29.5814H26.2584C22.2191 29.5814 22.347 33.5722 22.347 33.5722V36.9179H19.9748C19.9748 36.9179 16 37.1735 16 29.9637C16 22.7542 20.554 23.2727 20.554 23.2727H30.0428V22.3089H23.2514L23.2435 19.0986ZM26.6389 18.2519C26.4906 18.1903 26.3316 18.1587 26.1711 18.1588C26.0107 18.1587 25.8517 18.1903 25.7034 18.2519C25.5551 18.3135 25.4204 18.4039 25.3069 18.5178C25.1934 18.6317 25.1034 18.767 25.0421 18.9159C24.9807 19.0648 24.9492 19.2244 24.9494 19.3855C24.9492 19.5466 24.9807 19.7062 25.0421 19.8551C25.1034 20.004 25.1934 20.1393 25.3069 20.2532C25.4204 20.3672 25.5551 20.4575 25.7034 20.5191C25.8517 20.5807 26.0107 20.6123 26.1711 20.6122C26.3316 20.6123 26.4906 20.5807 26.6389 20.5191C26.7872 20.4575 26.9219 20.3672 27.0354 20.2532C27.1489 20.1393 27.2389 20.004 27.3002 19.8551C27.3615 19.7062 27.3931 19.5466 27.3929 19.3855C27.3931 19.2244 27.3615 19.0648 27.3002 18.9159C27.2389 18.767 27.1489 18.6317 27.0354 18.5178C26.9219 18.4039 26.7872 18.3135 26.6389 18.2519ZM36.7905 40.9014C36.7905 40.9014 37.2349 44 30.1182 44H30.118C22.6807 44 23.2553 40.2641 23.2553 40.2641V34.0908C23.2553 30.3571 27.0397 30.4185 27.0397 30.4185H33.7755C37.8148 30.4185 37.6869 26.4277 37.6869 26.4277V23.0822H40.0591C40.0591 23.0822 44.034 22.8265 44.034 30.0362C44.034 37.246 39.4799 36.7274 39.4799 36.7274H29.9911V37.6912H36.7826L36.7905 40.9014ZM33.3952 41.7483C33.5435 41.8099 33.7024 41.8415 33.8629 41.8414V41.8413C34.0234 41.8414 34.1823 41.8098 34.3306 41.7482C34.4789 41.6866 34.6137 41.5963 34.7272 41.4823C34.8406 41.3684 34.9306 41.2331 34.992 41.0842C35.0533 40.9353 35.0848 40.7758 35.0847 40.6146C35.0848 40.4535 35.0533 40.2939 34.992 40.145C34.9306 39.9961 34.8406 39.8608 34.7272 39.7469C34.6137 39.633 34.4789 39.5426 34.3306 39.481C34.1823 39.4194 34.0234 39.3878 33.8629 39.388C33.7024 39.3878 33.5435 39.4194 33.3952 39.481C33.2469 39.5426 33.1121 39.633 32.9986 39.747C32.8852 39.8609 32.7952 39.9962 32.7338 40.1451C32.6725 40.294 32.641 40.4536 32.6412 40.6147C32.641 40.7759 32.6725 40.9354 32.7339 41.0843C32.7952 41.2332 32.8852 41.3685 32.9987 41.4824C33.1122 41.5964 33.2469 41.6867 33.3952 41.7483Z" fill="#0ACAA0"/>
</g>
<defs>
<filter id="filter0_ii__11" x="13" y="13" width="34.034" height="34" filterUnits="userSpaceOnUse" color-interpolation-filters="sRGB">
<feFlood flood-opacity="0" result="BackgroundImageFix"/>
<feBlend mode="normal" in="SourceGraphic" in2="BackgroundImageFix" result="shape"/>
<feColorMatrix in="SourceAlpha" type="matrix" values="0 0 0 0 0 0 0 0 0 0 0 0 0 0 0 0 0 0 127 0" result="hardAlpha"/>
<feOffset dx="3" dy="3"/>
<feGaussianBlur stdDeviation="3.5"/>
<feComposite in2="hardAlpha" operator="arithmetic" k2="-1" k3="1"/>
<feColorMatrix type="matrix" values="0 0 0 0 0.0392157 0 0 0 0 0.792157 0 0 0 0 0.627451 0 0 0 1 0"/>
<feBlend mode="normal" in2="shape" result="effect1_innerShadow"/>
<feColorMatrix in="SourceAlpha" type="matrix" values="0 0 0 0 0 0 0 0 0 0 0 0 0 0 0 0 0 0 127 0" result="hardAlpha"/>
<feOffset dx="-3" dy="-3"/>
<feGaussianBlur stdDeviation="3.5"/>
<feComposite in2="hardAlpha" operator="arithmetic" k2="-1" k3="1"/>
<feColorMatrix type="matrix" values="0 0 0 0 1 0 0 0 0 1 0 0 0 0 1 0 0 0 0.5 0"/>
<feBlend mode="normal" in2="effect1_innerShadow" result="effect2_innerShadow"/>
</filter>
</defs>
</svg>
