<svg width="60" height="60" viewBox="0 0 60 60" fill="none" xmlns="http://www.w3.org/2000/svg">
    <g filter="url(#filter0_ii__12)">
        <path fill-rule="evenodd" clip-rule="evenodd" d="M39.6336 24.3815C39.9982 24.4864 40.3601 24.6004 40.7189 24.7235C44.36 25.9772 46.713 27.941 46.713 29.9715C46.713 32.0892 44.1985 34.1597 40.3335 35.4404C40.1293 35.5081 39.92 35.5732 39.7066 35.6362C39.7827 35.9424 39.8506 36.2431 39.9088 36.5375C40.6718 40.3921 40.0842 43.5604 38.2759 44.6073C36.525 45.621 33.6953 44.6253 30.83 42.1593C30.5186 41.8906 30.2147 41.6133 29.9187 41.3277C29.6837 41.5549 29.449 41.7717 29.2152 41.9762C26.2571 44.5623 23.2194 45.6352 21.4094 44.5914C19.6571 43.5804 19.1064 40.6312 19.8115 36.917C19.8885 36.5133 19.9769 36.1119 20.0763 35.7132C19.7701 35.6257 19.4662 35.5307 19.1647 35.4281C15.4469 34.1573 13 32.0613 13 29.9715C13 27.9483 15.2795 25.9976 18.8487 24.7531C19.2477 24.614 19.6647 24.4833 20.0965 24.3606C20.004 23.9905 19.9209 23.6181 19.8473 23.2438C19.1077 19.4639 19.6281 16.4431 21.3851 15.4258C23.2175 14.365 26.2691 15.5042 29.3135 18.2079C29.5029 18.3764 29.6891 18.5484 29.8721 18.7239C30.1454 18.46 30.4253 18.2031 30.7115 17.9534C33.6165 15.4251 36.4928 14.3674 38.2514 15.3818C40.0857 16.4395 40.6229 19.6527 39.8013 23.6412C39.75 23.889 39.6941 24.1358 39.6336 24.3815ZM39.3147 34.2502C39.5075 34.1931 39.6967 34.1341 39.8809 34.0731H39.8811C43.218 32.9672 45.2732 31.275 45.2732 29.9715C45.2732 28.7478 43.3703 27.1596 40.2505 26.0856C39.9279 25.9744 39.5931 25.8692 39.2483 25.7692C38.8335 27.1115 38.28 28.5296 37.6075 29.9786C38.3121 31.4627 38.888 32.8993 39.3147 34.2502ZM38.6584 41.2675C38.8819 40.0628 38.8337 38.5217 38.4963 36.8172C38.4437 36.5512 38.3825 36.2791 38.3139 36.0016C36.9175 36.3243 35.3777 36.5609 33.7478 36.7055C32.8213 38.047 31.8719 39.2551 30.922 40.2944C31.2057 40.5674 31.4888 40.8256 31.7697 41.0673C34.2199 43.1762 36.4921 43.9758 37.5546 43.3607C38.0538 43.0716 38.4575 42.3499 38.6584 41.2675ZM22.1294 43.3433C22.6291 43.6315 23.4558 43.6211 24.4938 43.2544H24.4939C25.649 42.8463 26.9598 42.0351 28.2678 40.8914C28.4867 40.6995 28.7009 40.5023 28.9101 40.2999C27.9257 39.2432 26.9489 38.0366 26.0162 36.7238C24.3825 36.5913 22.8539 36.3715 21.473 36.066C21.3806 36.4368 21.2986 36.8101 21.2269 37.1855C20.6239 40.3618 21.0659 42.73 22.1294 43.3433ZM15.6988 31.9759C16.6294 32.7727 17.9869 33.5031 19.6308 34.065C19.9061 34.1587 20.1836 34.2456 20.4631 34.3256C20.8889 32.937 21.4502 31.4792 22.1267 30.0065C21.4589 28.5555 20.9055 27.1205 20.4835 25.7481C20.0933 25.8584 19.7063 25.9802 19.3232 26.1132C16.2707 27.1776 14.4404 28.7438 14.4404 29.9715C14.4404 30.5485 14.8627 31.2596 15.6988 31.9759ZM22.107 16.6724C21.0481 17.2854 20.6274 19.7284 21.261 22.9671V22.9669C21.3295 23.3151 21.4068 23.6615 21.4927 24.0058C22.8881 23.6896 24.4059 23.4536 25.9915 23.3066C26.9161 22.0014 27.8839 20.8039 28.8633 19.752C28.6942 19.5904 28.5255 19.4341 28.3575 19.2849C25.7289 16.9506 23.235 16.0194 22.107 16.6724ZM34.7781 24.8722C35.1319 25.4269 35.4737 25.9891 35.8032 26.5585C36.1382 27.1369 36.4615 27.7218 36.7731 28.3131C37.1995 27.3148 37.5616 26.3409 37.8521 25.4096C36.8844 25.1886 35.8538 25.008 34.7781 24.8722ZM31.8569 23.1767C31.2025 22.3048 30.5372 21.5011 29.8729 20.7814C29.1982 21.5094 28.5273 22.312 27.8723 23.1758C29.1998 23.1137 30.5294 23.114 31.8569 23.1767ZM22.953 28.3121C23.2566 27.7235 23.5739 27.1421 23.9046 26.5684C24.2357 25.9941 24.5803 25.4277 24.9381 24.8696C23.8694 25.0031 22.8436 25.1791 21.8817 25.3944C22.1747 26.339 22.5336 27.3172 22.953 28.3121ZM21.8619 34.6766C22.8235 34.8859 23.8647 35.0529 24.9688 35.1762C24.6023 34.6075 24.2494 34.0301 23.9104 33.4446C23.5782 32.8705 23.2595 32.2888 22.9546 31.6998C22.5263 32.716 22.1595 33.7153 21.8619 34.6766ZM27.8844 36.8354C28.5494 37.7118 29.2302 38.5266 29.9128 39.2633C30.5725 38.5368 31.2354 37.7208 31.8919 36.8284C31.2234 36.8583 30.544 36.8736 29.8568 36.8736C29.1879 36.8736 28.5298 36.8608 27.8844 36.8354ZM37.9189 34.6142C37.6172 33.6691 37.2374 32.6753 36.7868 31.648C36.4742 32.2507 36.1482 32.8464 35.8091 33.4346C35.4755 34.0133 35.1304 34.5854 34.774 35.1504C35.886 35.017 36.9413 34.8373 37.9189 34.6142ZM32.9441 35.325C33.5113 34.4727 34.0508 33.6023 34.5614 32.715H34.5616C35.0767 31.8227 35.5599 30.9123 36.0102 29.9856C35.5552 29.0683 35.0705 28.166 34.5568 27.2802C34.046 26.3967 33.5042 25.5315 32.9325 24.6862C31.9301 24.6098 30.9008 24.5698 29.857 24.5698C28.8178 24.5698 27.7898 24.6095 26.7871 24.6853C26.2095 25.5319 25.6642 26.4001 25.1525 27.2881V27.2878C24.6406 28.1756 24.1623 29.0823 23.7185 30.0061C24.1634 30.9296 24.6432 31.8358 25.1568 32.7229C25.6729 33.6147 26.2225 34.4867 26.8045 35.3369C27.7872 35.4006 28.8078 35.4333 29.8568 35.4333C30.9102 35.4333 31.9438 35.3964 32.9441 35.325ZM38.3911 23.3504C39.1004 19.9067 38.6613 17.2808 37.5325 16.6296C36.4726 16.0182 34.1464 16.8736 31.6574 19.04C31.3931 19.2706 31.1346 19.5078 30.8821 19.7512C31.8457 20.7896 32.8055 21.9892 33.7319 23.3085C35.3221 23.4577 36.8409 23.698 38.2395 24.0208C38.2941 23.7982 38.3446 23.5748 38.3911 23.3504Z" fill="#0ACAA0"/>
    </g>
    <g filter="url(#filter1_ii___13)">
        <path d="M29.8564 26.9607C31.5191 26.9607 32.8668 28.3088 32.8668 29.9716C32.8668 31.6346 31.5191 32.9827 29.8564 32.9827C28.1938 32.9827 26.8459 31.6346 26.8459 29.9716C26.8459 28.3088 28.1938 26.9607 29.8564 26.9607Z" fill="#0ACAA0"/>
    </g>
    <defs>
        <filter id="filter0_ii__12" x="10" y="12" width="39.713" height="36" filterUnits="userSpaceOnUse" color-interpolation-filters="sRGB">
            <feFlood flood-opacity="0" result="BackgroundImageFix"/>
            <feBlend mode="normal" in="SourceGraphic" in2="BackgroundImageFix" result="shape"/>
            <feColorMatrix in="SourceAlpha" type="matrix" values="0 0 0 0 0 0 0 0 0 0 0 0 0 0 0 0 0 0 127 0" result="hardAlpha"/>
            <feOffset dx="3" dy="3"/>
            <feGaussianBlur stdDeviation="3.5"/>
            <feComposite in2="hardAlpha" operator="arithmetic" k2="-1" k3="1"/>
            <feColorMatrix type="matrix" values="0 0 0 0 0.0392157 0 0 0 0 0.792157 0 0 0 0 0.627451 0 0 0 1 0"/>
            <feBlend mode="normal" in2="shape" result="effect1_innerShadow"/>
            <feColorMatrix in="SourceAlpha" type="matrix" values="0 0 0 0 0 0 0 0 0 0 0 0 0 0 0 0 0 0 127 0" result="hardAlpha"/>
            <feOffset dx="-3" dy="-3"/>
            <feGaussianBlur stdDeviation="3.5"/>
            <feComposite in2="hardAlpha" operator="arithmetic" k2="-1" k3="1"/>
            <feColorMatrix type="matrix" values="0 0 0 0 1 0 0 0 0 1 0 0 0 0 1 0 0 0 0.5 0"/>
            <feBlend mode="normal" in2="effect1_innerShadow" result="effect2_innerShadow"/>
        </filter>
        <filter id="filter1_ii___13" x="23.8459" y="23.9607" width="12.0209" height="12.022" filterUnits="userSpaceOnUse" color-interpolation-filters="sRGB">
            <feFlood flood-opacity="0" result="BackgroundImageFix"/>
            <feBlend mode="normal" in="SourceGraphic" in2="BackgroundImageFix" result="shape"/>
            <feColorMatrix in="SourceAlpha" type="matrix" values="0 0 0 0 0 0 0 0 0 0 0 0 0 0 0 0 0 0 127 0" result="hardAlpha"/>
            <feOffset dx="3" dy="3"/>
            <feGaussianBlur stdDeviation="3.5"/>
            <feComposite in2="hardAlpha" operator="arithmetic" k2="-1" k3="1"/>
            <feColorMatrix type="matrix" values="0 0 0 0 0.0392157 0 0 0 0 0.792157 0 0 0 0 0.627451 0 0 0 1 0"/>
            <feBlend mode="normal" in2="shape" result="effect1_innerShadow"/>
            <feColorMatrix in="SourceAlpha" type="matrix" values="0 0 0 0 0 0 0 0 0 0 0 0 0 0 0 0 0 0 127 0" result="hardAlpha"/>
            <feOffset dx="-3" dy="-3"/>
            <feGaussianBlur stdDeviation="3.5"/>
            <feComposite in2="hardAlpha" operator="arithmetic" k2="-1" k3="1"/>
            <feColorMatrix type="matrix" values="0 0 0 0 1 0 0 0 0 1 0 0 0 0 1 0 0 0 0.5 0"/>
            <feBlend mode="normal" in2="effect1_innerShadow" result="effect2_innerShadow"/>
        </filter>
    </defs>
</svg>
