<svg width="60" height="60" viewBox="0 0 60 60" fill="none" xmlns="http://www.w3.org/2000/svg">
<g filter="url(#filter0_ii__13)">
<path d="M41.5471 31.7815C40.4283 31.7878 39.4595 32.0567 38.6469 32.457C38.3469 31.8628 38.0468 31.3437 37.9969 30.956C37.9406 30.5057 37.8719 30.2305 37.9406 29.6927C38.0093 29.1548 38.3219 28.3918 38.3219 28.3292C38.3155 28.2729 38.253 27.9978 37.6093 27.9915C36.9655 27.9852 36.4092 28.1166 36.3467 28.2854C36.2842 28.4543 36.1592 28.8421 36.0779 29.2423C35.9654 29.8302 34.7903 31.9128 34.1215 33.0073C33.9027 32.582 33.7152 32.2068 33.6776 31.9065C33.6214 31.4563 33.5526 31.181 33.6214 30.6432C33.6902 30.1053 34.0027 29.3424 34.0027 29.2798C33.9965 29.2236 33.934 28.9484 33.2902 28.9421C32.6464 28.9359 32.0901 29.0672 32.0276 29.2361C31.9651 29.4049 31.8964 29.8052 31.7588 30.1929C31.6275 30.5807 30.0649 34.058 29.6586 34.9648C29.4523 35.4276 29.2711 35.7966 29.1398 36.0468C29.0085 36.2969 29.1336 36.0655 29.121 36.0905C29.0085 36.3032 28.946 36.422 28.946 36.422V36.4283C28.8585 36.5847 28.7648 36.7347 28.721 36.7347C28.6897 36.7347 28.6272 36.3157 28.7335 35.7404C28.9647 34.5333 29.5273 32.6509 29.5211 32.5821C29.5211 32.5508 29.6273 32.2193 29.1585 32.0505C28.7022 31.8816 28.5397 32.163 28.5022 32.163C28.4647 32.163 28.4334 32.2631 28.4334 32.2631C28.4334 32.2631 28.9397 30.143 27.4646 30.143C26.5395 30.143 25.2644 31.1499 24.6331 32.0693C24.2331 32.2882 23.383 32.7509 22.4829 33.2451C22.1391 33.4327 21.7828 33.6328 21.4453 33.8142L21.3766 33.739C19.589 31.8315 16.2824 30.4806 16.4199 27.9164C16.4699 26.9846 16.795 24.5267 22.7706 21.5498C27.6647 19.1107 31.5838 19.7799 32.2651 21.2683C33.2339 23.3947 30.1711 27.3473 25.0833 27.9164C23.1456 28.1353 22.1267 27.3848 21.8705 27.1034C21.6017 26.8095 21.5642 26.797 21.4642 26.8533C21.3017 26.9408 21.4017 27.2035 21.4642 27.3598C21.6142 27.7538 22.2393 28.4543 23.3019 28.8045C24.2331 29.111 26.5084 29.2798 29.2586 28.2166C32.3401 27.0221 34.7466 23.7074 34.0403 20.9369C33.3215 18.1163 28.6461 17.1907 24.2269 18.7605C21.5954 19.6986 18.7451 21.162 16.695 23.082C14.2573 25.3585 13.8697 27.3473 14.0322 28.1729C14.6011 31.1185 18.6576 33.0385 20.2828 34.4582C20.2015 34.5019 20.1265 34.5457 20.0578 34.5833C19.2452 34.9835 16.1512 36.6034 15.3761 38.3169C14.501 40.2557 15.5136 41.6504 16.1887 41.8381C18.2764 42.4197 20.414 41.3752 21.5704 39.6554C22.7204 37.9355 22.583 35.7028 22.0517 34.6834L22.0329 34.6458L22.6704 34.2706C23.083 34.0267 23.4893 33.8015 23.8455 33.6076C23.6456 34.1517 23.5017 34.7959 23.4268 35.734C23.3393 36.8348 23.7893 38.2607 24.3831 38.8235C24.6457 39.0674 24.9582 39.0737 25.152 39.0737C25.8395 39.0737 26.152 38.5045 26.4958 37.8229C26.9209 36.9911 27.2959 36.0279 27.2959 36.0279C27.2959 36.0279 26.8271 38.6359 28.1085 38.6359C28.5773 38.6359 29.046 38.0292 29.2586 37.7165V37.7228C29.2586 37.7228 29.2711 37.704 29.2961 37.6603C29.3223 37.6215 29.3473 37.5819 29.3711 37.5415V37.529C29.5586 37.2038 29.9774 36.4595 30.6024 35.2275C31.4087 33.6389 32.1838 31.6501 32.1838 31.6501C32.1838 31.6501 32.2588 32.138 32.4901 32.9385C32.6275 33.4139 32.9276 33.9329 33.1588 34.4395C32.9713 34.7021 32.8588 34.8523 32.8588 34.8523L32.8651 34.8586C32.7151 35.0587 32.5463 35.2714 32.3713 35.484C31.7338 36.247 30.9712 37.1163 30.8712 37.3665C30.7524 37.6604 30.7774 37.8793 31.0087 38.0545C31.1775 38.1795 31.4775 38.2045 31.7963 38.1795C32.3713 38.1419 32.7714 37.9982 32.9714 37.9105C33.2839 37.798 33.6402 37.6291 33.984 37.379C34.609 36.9162 34.9903 36.2595 34.9528 35.384C34.9341 34.9024 34.7778 34.4271 34.584 33.9768C34.6403 33.8955 34.6966 33.8141 34.7528 33.7266C35.7404 32.2819 36.5029 30.6934 36.5029 30.6934C36.5029 30.6934 36.578 31.1812 36.8092 31.9817C36.9279 32.3882 37.1655 32.8323 37.378 33.2701C36.4529 34.0269 35.8716 34.9025 35.6716 35.4778C35.3028 36.541 35.5904 37.0226 36.1342 37.1352C36.3779 37.1852 36.728 37.0726 36.9904 36.9601C37.3155 36.8537 37.7092 36.6723 38.0718 36.4034C38.6969 35.9406 39.2969 35.2965 39.2657 34.4271C39.2469 34.0269 39.1407 33.6329 38.9969 33.2576C39.7845 32.9324 40.8033 32.7448 42.0972 32.9011C44.8787 33.2264 45.4287 34.965 45.3225 35.6905C45.2163 36.416 44.635 36.8162 44.4411 36.9413C44.2474 37.0601 44.1849 37.104 44.2036 37.1915C44.2286 37.3228 44.3161 37.3165 44.4849 37.2916C44.7162 37.254 45.9475 36.6974 45.9975 35.3591C46.0725 33.639 44.4411 31.7628 41.5471 31.7815ZM20.0953 39.0175C19.1764 40.0244 17.8826 40.4059 17.3325 40.0807C16.7387 39.7367 16.9699 38.2545 18.1013 37.185C18.7889 36.5346 19.6827 35.9342 20.2703 35.5652C20.4015 35.4839 20.6016 35.3651 20.8391 35.2212C20.8766 35.1963 20.9016 35.1837 20.9016 35.1837C20.9453 35.1587 20.9953 35.1274 21.0453 35.0961C21.4641 36.6221 21.0641 37.9605 20.0953 39.0175ZM26.8146 34.4457C26.4958 35.2275 25.8208 37.235 25.4145 37.1225C25.0644 37.0287 24.8519 35.5089 25.3457 34.0079C25.5957 33.2511 26.127 32.3506 26.4395 32.0003C26.9459 31.4374 27.4958 31.2498 27.6334 31.4812C27.7959 31.7815 27.0146 33.9579 26.8146 34.4457ZM32.3588 37.0975C32.2213 37.1663 32.0963 37.2163 32.0401 37.1788C31.9963 37.1538 32.0962 37.06 32.0962 37.06C32.0962 37.06 32.7901 36.3158 33.0651 35.9718C33.2213 35.7717 33.4089 35.5403 33.6089 35.2776V35.3526C33.6089 36.2531 32.7464 36.8535 32.3588 37.0975ZM36.6341 36.1218C36.5341 36.0468 36.5467 35.8154 36.8842 35.0899C37.0155 34.8022 37.3155 34.3206 37.8342 33.8641C37.8968 34.0517 37.9343 34.233 37.928 34.4019C37.9218 35.5277 37.1217 35.9467 36.6341 36.1218Z" fill="#0ACAA0"/>
</g>
<defs>
<filter id="filter0_ii__13" x="11" y="15" width="38" height="30" filterUnits="userSpaceOnUse" color-interpolation-filters="sRGB">
<feFlood flood-opacity="0" result="BackgroundImageFix"/>
<feBlend mode="normal" in="SourceGraphic" in2="BackgroundImageFix" result="shape"/>
<feColorMatrix in="SourceAlpha" type="matrix" values="0 0 0 0 0 0 0 0 0 0 0 0 0 0 0 0 0 0 127 0" result="hardAlpha"/>
<feOffset dx="3" dy="3"/>
<feGaussianBlur stdDeviation="3.5"/>
<feComposite in2="hardAlpha" operator="arithmetic" k2="-1" k3="1"/>
<feColorMatrix type="matrix" values="0 0 0 0 0.0392157 0 0 0 0 0.792157 0 0 0 0 0.627451 0 0 0 1 0"/>
<feBlend mode="normal" in2="shape" result="effect1_innerShadow"/>
<feColorMatrix in="SourceAlpha" type="matrix" values="0 0 0 0 0 0 0 0 0 0 0 0 0 0 0 0 0 0 127 0" result="hardAlpha"/>
<feOffset dx="-3" dy="-3"/>
<feGaussianBlur stdDeviation="3.5"/>
<feComposite in2="hardAlpha" operator="arithmetic" k2="-1" k3="1"/>
<feColorMatrix type="matrix" values="0 0 0 0 1 0 0 0 0 1 0 0 0 0 1 0 0 0 0.5 0"/>
<feBlend mode="normal" in2="effect1_innerShadow" result="effect2_innerShadow"/>
</filter>
</defs>
</svg>
