<svg width="60" height="60" viewBox="0 0 60 60" fill="none" xmlns="http://www.w3.org/2000/svg">
<g filter="url(#filter0_ii__14)">
<path d="M33.5096 46C31.1718 46 29.4679 45.4621 28.3979 44.3519C27.3278 43.2418 26.8103 42.0801 26.8103 40.7983C26.8103 40.3462 26.8975 39.9456 27.101 39.6309C27.2755 39.3162 27.5314 39.0644 27.8512 38.8927C28.1711 38.721 28.5723 38.6066 29.0376 38.6066C29.5028 38.6066 29.904 38.6924 30.2239 38.8927C30.5437 39.0644 30.7996 39.3162 30.9741 39.6309C31.1485 39.9456 31.2648 40.3405 31.2648 40.7983C31.2648 41.3648 31.1195 41.8226 30.8578 42.1602C30.5961 42.5036 30.253 42.7554 29.875 42.8698C30.1948 43.2933 30.7124 43.608 31.4044 43.8083C32.0964 44.0086 32.7885 44.0944 33.4863 44.0944C34.4691 44.0944 35.3356 43.8369 36.1149 43.3276C36.8941 42.8183 37.4698 42.0515 37.8478 41.0558C38.2258 40.0601 38.3945 38.927 38.3945 37.6452C38.3945 36.2546 38.1909 35.0873 37.7897 34.1202C37.3826 33.1245 36.8069 32.3863 36.0276 31.9342C35.2484 31.4535 34.411 31.2246 33.4863 31.2246C32.8815 31.2246 32.1604 31.4821 31.2648 31.9628L29.6365 32.7296V31.9342L36.9988 22.2747H26.8103V32.3062C26.8103 33.1302 26.9847 33.8112 27.3569 34.3548C27.7349 34.8927 28.3106 35.1502 29.0608 35.1502C29.6656 35.1502 30.2181 34.9499 30.7647 34.5551C31.3114 34.1545 31.7766 33.6738 32.1779 33.1359C32.236 33.0215 32.2942 32.9356 32.3523 32.907C32.4395 32.8498 32.4977 32.8212 32.5849 32.8212C32.7303 32.8212 32.8757 32.8784 33.0734 33.0215C33.2479 33.2217 33.3351 33.4449 33.3351 33.7024C33.3351 33.8169 33.277 33.9886 33.2479 34.2117C32.8408 35.1502 32.2651 35.8598 31.5149 36.3405C30.7647 36.8212 29.9564 37.0787 29.0608 37.0787C26.8394 37.0787 25.3332 36.6552 24.4667 35.8026C23.6293 34.9499 23.1989 33.7825 23.1989 32.3348V22.2747H18V20.3977H23.228V16.1345L22.0417 14.9671V14H25.5076L26.8045 14.6524V20.3691L40.2903 20.3405L41.6162 21.6452L33.3642 29.8054C33.8527 29.6052 34.3761 29.4907 34.9227 29.4335C35.8183 29.4335 36.8301 29.7196 37.9234 30.2861C39.0516 30.824 39.9181 31.5908 40.5229 32.5579C41.1277 33.525 41.5348 34.4349 41.7092 35.3162C41.8837 36.1974 42 36.9642 42 37.6738C42 39.2361 41.6511 40.6838 40.9881 42.0229C40.3252 43.3562 39.3133 44.3805 37.9292 45.0329C36.5685 45.6853 35.0972 46 33.5096 46Z" fill="#0ACAA0"/>
</g>
<defs>
<filter id="filter0_ii__14" x="15" y="11" width="30" height="38" filterUnits="userSpaceOnUse" color-interpolation-filters="sRGB">
<feFlood flood-opacity="0" result="BackgroundImageFix"/>
<feBlend mode="normal" in="SourceGraphic" in2="BackgroundImageFix" result="shape"/>
<feColorMatrix in="SourceAlpha" type="matrix" values="0 0 0 0 0 0 0 0 0 0 0 0 0 0 0 0 0 0 127 0" result="hardAlpha"/>
<feOffset dx="3" dy="3"/>
<feGaussianBlur stdDeviation="3.5"/>
<feComposite in2="hardAlpha" operator="arithmetic" k2="-1" k3="1"/>
<feColorMatrix type="matrix" values="0 0 0 0 0.0392157 0 0 0 0 0.792157 0 0 0 0 0.627451 0 0 0 1 0"/>
<feBlend mode="normal" in2="shape" result="effect1_innerShadow"/>
<feColorMatrix in="SourceAlpha" type="matrix" values="0 0 0 0 0 0 0 0 0 0 0 0 0 0 0 0 0 0 127 0" result="hardAlpha"/>
<feOffset dx="-3" dy="-3"/>
<feGaussianBlur stdDeviation="3.5"/>
<feComposite in2="hardAlpha" operator="arithmetic" k2="-1" k3="1"/>
<feColorMatrix type="matrix" values="0 0 0 0 1 0 0 0 0 1 0 0 0 0 1 0 0 0 0.5 0"/>
<feBlend mode="normal" in2="effect1_innerShadow" result="effect2_innerShadow"/>
</filter>
</defs>
</svg>
