<svg width="60" height="60" viewBox="0 0 60 60" fill="none" xmlns="http://www.w3.org/2000/svg">
<g filter="url(#filter0_ii__15)">
<path d="M44.5507 21.9517C43.14 20.9877 41.6315 19.96 40.1556 18.9402C40.123 18.9163 40.0903 18.8924 40.0496 18.8685C39.8865 18.749 39.6989 18.6215 39.4706 18.5498L39.4543 18.5419C35.5077 17.6097 31.4959 16.6537 27.6145 15.7295C24.0919 14.893 20.5774 14.0564 17.0548 13.2199C16.9652 13.196 16.8755 13.1721 16.7776 13.1482C16.4596 13.0606 16.0927 12.965 15.7013 13.0128C15.5871 13.0287 15.4892 13.0685 15.3996 13.1243L15.3017 13.204C15.1468 13.3474 15.0652 13.5306 15.0245 13.6342L15 13.6979V14.0644L15.0163 14.1202C17.2424 20.2149 19.5256 26.3973 21.7272 32.3806C23.4232 36.9855 25.1845 41.7577 26.9051 46.4423C27.0111 46.761 27.3128 46.9681 27.6879 47H27.7694C28.12 47 28.4299 46.8327 28.5848 46.5618L35.0429 37.3599C36.6167 35.1212 38.1904 32.8745 39.7642 30.6358C40.4084 29.7196 41.0525 28.7954 41.6967 27.8792C42.7568 26.3655 43.8494 24.8039 44.9339 23.2822L44.991 23.2026V23.107C45.0155 22.8281 45.0236 22.2545 44.5507 21.9517ZM36.9836 25.3059C35.4669 26.0786 33.9176 26.8753 32.3602 27.6641C33.2653 26.716 34.1786 25.76 35.0837 24.8119C36.2171 23.6168 37.3995 22.382 38.5574 21.171L38.5818 21.1471C38.6797 21.0196 38.802 20.9001 38.9325 20.7726C39.0222 20.685 39.12 20.5974 39.2097 20.4938C39.8131 20.9001 40.4247 21.3144 41.0118 21.7207C41.4358 22.0155 41.868 22.3103 42.3083 22.605C40.5144 23.4973 38.7204 24.4135 36.9836 25.3059ZM33.0859 24.9234C31.9199 26.1583 30.7131 27.4251 29.5144 28.6759C27.1905 25.9193 24.8176 23.1229 22.5181 20.4221C21.4744 19.1952 20.4225 17.9603 19.3788 16.7334L19.3706 16.7254C19.1342 16.4625 18.9058 16.1757 18.6775 15.9048C18.5308 15.7215 18.3758 15.5463 18.2209 15.363C19.1668 15.602 20.1208 15.8251 21.0585 16.0402C21.8821 16.2314 22.7383 16.4306 23.5782 16.6378C28.3076 17.7611 33.0452 18.8844 37.7746 20.0078C36.2008 21.649 34.6189 23.3141 33.0859 24.9234ZM28.9844 40.4511C29.0741 39.6146 29.1719 38.7542 29.2535 37.9097C29.3269 37.2325 29.4002 36.5393 29.4736 35.8781C29.5878 34.8185 29.7101 33.719 29.808 32.6435L29.8324 32.4523C29.914 31.7671 29.9955 31.058 30.0444 30.349C30.1341 30.3012 30.232 30.2534 30.338 30.2135C30.4603 30.1578 30.5826 30.11 30.7049 30.0383C32.5885 29.0742 34.4721 28.1102 36.3639 27.1542C38.2475 26.1982 40.18 25.2102 42.0963 24.2303C40.3513 26.7001 38.5981 29.1937 36.9021 31.6237C35.4425 33.7031 33.9421 35.8462 32.4499 37.9575C31.8628 38.802 31.2512 39.6624 30.6723 40.491C30.02 41.4151 29.3513 42.3632 28.699 43.3113C28.7805 42.3552 28.8784 41.3912 28.9844 40.4511ZM17.6175 17.2432C17.5115 16.9564 17.3973 16.6617 17.2995 16.3828C19.5011 18.9801 21.719 21.5932 23.8799 24.1267C24.997 25.4413 26.1141 26.7479 27.2312 28.0704C27.4514 28.3174 27.6716 28.5803 27.8836 28.8352C28.1608 29.1619 28.4381 29.5045 28.7398 29.8311C28.6419 30.6517 28.5604 31.4803 28.4707 32.277C28.4136 32.8347 28.3565 33.3924 28.2913 33.958V33.966C28.2668 34.3245 28.2179 34.683 28.1771 35.0336C28.12 35.5195 27.9896 36.619 27.9896 36.619L27.9814 36.6748C27.8346 38.2841 27.6553 39.9094 27.484 41.4868C27.4106 42.1401 27.3454 42.8094 27.272 43.4786C27.2312 43.3591 27.1823 43.2396 27.1415 43.128C27.0192 42.8094 26.8969 42.4747 26.7828 42.1481L25.9103 39.7819C23.146 32.269 20.3817 24.7641 17.6175 17.2432Z" fill="#0ACAA0"/>
</g>
<defs>
<filter id="filter0_ii__15" x="12" y="10" width="36" height="40" filterUnits="userSpaceOnUse" color-interpolation-filters="sRGB">
<feFlood flood-opacity="0" result="BackgroundImageFix"/>
<feBlend mode="normal" in="SourceGraphic" in2="BackgroundImageFix" result="shape"/>
<feColorMatrix in="SourceAlpha" type="matrix" values="0 0 0 0 0 0 0 0 0 0 0 0 0 0 0 0 0 0 127 0" result="hardAlpha"/>
<feOffset dx="3" dy="3"/>
<feGaussianBlur stdDeviation="3.5"/>
<feComposite in2="hardAlpha" operator="arithmetic" k2="-1" k3="1"/>
<feColorMatrix type="matrix" values="0 0 0 0 0.0392157 0 0 0 0 0.792157 0 0 0 0 0.627451 0 0 0 1 0"/>
<feBlend mode="normal" in2="shape" result="effect1_innerShadow"/>
<feColorMatrix in="SourceAlpha" type="matrix" values="0 0 0 0 0 0 0 0 0 0 0 0 0 0 0 0 0 0 127 0" result="hardAlpha"/>
<feOffset dx="-3" dy="-3"/>
<feGaussianBlur stdDeviation="3.5"/>
<feComposite in2="hardAlpha" operator="arithmetic" k2="-1" k3="1"/>
<feColorMatrix type="matrix" values="0 0 0 0 1 0 0 0 0 1 0 0 0 0 1 0 0 0 0.5 0"/>
<feBlend mode="normal" in2="effect1_innerShadow" result="effect2_innerShadow"/>
</filter>
</defs>
</svg>
