<svg width="93" height="46" viewBox="0 0 93 46" fill="none" xmlns="http://www.w3.org/2000/svg">
<g filter="url(#awwards_01432)">
<path d="M31.0915 35.408C31.0915 35.408 28.743 36.8153 26.4286 37.0728H26.4456C26.2074 37.0899 25.9521 37.1071 25.6968 37.1071C9.81922 37.5705 -0.663748 17.7478 11.0275 4.4126C-2.26342 19.241 12.1847 42.6677 31.4999 36.6609C31.4999 36.6609 30.5639 35.8885 31.0915 35.408Z" fill="#0ACAA0"/>
<path d="M23.1952 39.8707C22.2082 37.9829 20.6426 36.6785 18.9578 36.1465C18.4303 37.8456 18.6004 39.8879 19.5875 41.7758C20.5745 43.6636 22.1401 44.968 23.8249 45.5C24.3525 43.8009 24.1653 41.7414 23.1952 39.8707Z" fill="#0ACAA0"/>
<path d="M17.2391 40.7634C17.9878 38.8584 17.9538 37.0735 17.3071 35.5117C15.7755 36.1982 14.4141 37.4168 13.6653 39.3218C12.9165 41.2268 12.9506 43.2177 13.5972 44.7794C15.1289 44.0929 16.4903 42.6685 17.2391 40.7634Z" fill="#0ACAA0"/>
<path d="M11.7764 38.3774C13.4781 37.4163 14.6694 35.9404 15.1459 34.3957C13.6143 33.9838 11.7423 34.2069 10.0405 35.168C8.33877 36.1291 7.14752 37.6051 6.67102 39.1497C8.21964 39.5616 10.0746 39.3385 11.7764 38.3774Z" fill="#0ACAA0"/>
<path d="M17.9708 29.9855C16.4051 31.1697 15.4351 32.8002 15.1628 34.3963C16.7455 34.6022 18.5494 34.1045 20.115 32.9203C21.6807 31.7361 22.6507 30.1057 22.923 28.5096C21.3403 28.3208 19.5364 28.8013 17.9708 29.9855Z" fill="#0ACAA0"/>
<path d="M7.38573 33.967C9.1726 33.4006 10.5851 32.2507 11.3509 30.9292C10.0065 30.2599 8.20258 30.1226 6.41571 30.689C4.62884 31.2553 3.21636 32.4052 2.45056 33.7267C3.81199 34.396 5.59886 34.5333 7.38573 33.967Z" fill="#0ACAA0"/>
<path d="M13.5122 26.7073C12.2018 28.0632 11.487 29.7451 11.453 31.2897C12.9506 31.2382 14.6013 30.5002 15.9117 29.1444C17.222 27.7886 17.9368 26.1066 17.9708 24.562C16.4562 24.6135 14.8225 25.3515 13.5122 26.7073Z" fill="#0ACAA0"/>
<path d="M4.37358 29.2812C6.17747 29.367 7.82819 28.835 8.95137 27.9082C7.94732 26.8785 6.38168 26.192 4.57779 26.1062C2.7739 26.0204 1.12318 26.5524 0 27.4792C1.00405 28.4918 2.56969 29.1954 4.37358 29.2812Z" fill="#0ACAA0"/>
<path d="M10.6191 24.2531C9.54697 25.3515 8.96836 26.7073 8.93433 27.943C10.1596 27.8744 11.487 27.2737 12.5591 26.1753C13.6312 25.0769 14.2098 23.721 14.2439 22.4854C13.0186 22.5368 11.6912 23.1547 10.6191 24.2531Z" fill="#0ACAA0"/>
<path d="M2.90997 22.7429C4.23735 23.7383 5.75194 24.2017 7.04529 24.133C6.77301 22.8802 5.9051 21.5758 4.57771 20.5804C3.25032 19.585 1.73574 19.1216 0.442383 19.1902C0.714668 20.4431 1.58258 21.7474 2.90997 22.7429Z" fill="#0ACAA0"/>
<path d="M8.61095 20.3739C7.62392 21.5752 7.09636 23.0169 7.07935 24.3041C8.23656 24.1668 9.49587 23.4631 10.4829 22.2617C11.4699 21.0604 11.9975 19.6187 12.0145 18.3315C10.8573 18.4688 9.59798 19.1725 8.61095 20.3739Z" fill="#0ACAA0"/>
<path d="M2.46765 17.5423C3.52275 18.7265 4.85014 19.4645 6.04139 19.6533C5.99034 18.4519 5.41173 17.0789 4.33961 15.8947C3.2845 14.7105 1.95712 13.9725 0.765869 13.7837C0.816923 14.9851 1.41255 16.3581 2.46765 17.5423Z" fill="#0ACAA0"/>
<path d="M8.16849 16.3757C7.02829 17.2853 6.27951 18.4867 6.04126 19.6537C7.1304 19.7395 8.40674 19.3276 9.54693 18.418C10.6871 17.5084 11.4359 16.307 11.6742 15.14C10.585 15.0542 9.30868 15.4661 8.16849 16.3757Z" fill="#0ACAA0"/>
<path d="M3.31841 11.5527C4.11825 12.8399 5.22441 13.7666 6.27951 14.1614C6.39864 13.0458 6.05828 11.6556 5.25845 10.3685C4.44159 9.08127 3.35245 8.1545 2.28033 7.75977C2.1612 8.87533 2.50156 10.2655 3.31841 11.5527Z" fill="#0ACAA0"/>
<path d="M8.88327 12.5995C7.77711 12.8398 6.84113 13.4405 6.27954 14.2128C7.01131 14.7105 8.04939 14.8993 9.15555 14.659C10.2617 14.4187 11.1977 13.8181 11.7593 13.0458C11.0275 12.5652 9.98942 12.3764 8.88327 12.5995Z" fill="#0ACAA0"/>
<path d="M4.98623 7.67396C5.47975 9.02979 6.31362 10.111 7.19855 10.7117C7.48785 9.69913 7.41978 8.3433 6.92626 6.98746C6.43275 5.63163 5.59887 4.55039 4.71395 3.94971C4.40763 4.96229 4.49271 6.31813 4.98623 7.67396Z" fill="#0ACAA0"/>
<path d="M7.57287 4.84186C7.65796 5.99175 8.06639 7.02149 8.66201 7.67367C9.15553 6.97001 9.44483 5.9231 9.35974 4.77321C9.27465 3.62333 8.86622 2.59358 8.2706 1.94141C7.77708 2.6279 7.48778 3.67481 7.57287 4.84186Z" fill="#0ACAA0"/>
<path d="M10.3298 2.49085C10.3808 3.28032 10.6531 3.98398 11.0616 4.4302C11.4019 3.94965 11.5891 3.22883 11.521 2.43936C11.47 1.64988 11.1807 0.946224 10.7893 0.5C10.4489 0.980549 10.2617 1.70137 10.3298 2.49085Z" fill="#0ACAA0"/>
<path d="M12.9676 3.692C12.1847 3.74349 11.487 4.01809 11.0446 4.42999C11.5211 4.77323 12.2358 4.96202 13.0186 4.89337C13.8014 4.84188 14.4992 4.56728 14.9416 4.15539C14.4651 3.8293 13.7504 3.64051 12.9676 3.692Z" fill="#0ACAA0"/>
<path d="M10.6872 6.40389C9.9044 6.4897 9.20667 6.9016 8.74719 7.48512C9.22369 7.94851 9.92142 8.20594 10.7042 8.10297C11.4871 8.01716 12.1848 7.60526 12.6443 7.02173C12.1678 6.55835 11.47 6.30091 10.6872 6.40389Z" fill="#0ACAA0"/>
<path d="M9.41095 9.26986C8.52602 9.39 7.76022 9.90487 7.23267 10.6257C7.76022 11.1921 8.54304 11.501 9.41095 11.3808C10.2959 11.2607 11.0617 10.7458 11.5892 10.025C11.0617 9.45865 10.2789 9.14972 9.41095 9.26986Z" fill="#0ACAA0"/>
<path d="M12.389 2.01036C11.8784 2.61105 11.5721 3.29755 11.5381 3.89823C12.1167 3.79526 12.7464 3.41768 13.2569 2.83416C13.7674 2.23347 14.0737 1.54698 14.1078 0.946289C13.5462 1.0321 12.8995 1.40968 12.389 2.01036Z" fill="#0ACAA0"/>
</g>
<g filter="url(#awards_=213-)">
<path d="M61.9252 35.4086C61.9252 35.4086 64.2724 36.8159 66.5856 37.0733H66.5686C66.8067 37.0905 67.0618 37.1076 67.3169 37.1076C83.169 37.5539 93.6463 17.7484 81.9614 4.396C95.2451 19.2244 80.8048 42.6511 61.5 36.6443C61.517 36.6614 62.4355 35.8891 61.9252 35.4086Z" fill="#0ACAA0"/>
<path d="M69.8172 39.8707C70.8037 37.9829 72.3685 36.6785 74.0523 36.1465C74.5796 37.8456 74.4095 39.8879 73.423 41.7758C72.4365 43.6636 70.8717 44.968 69.1879 45.5C68.6606 43.8009 68.8307 41.7414 69.8172 39.8707Z" fill="#0ACAA0"/>
<path d="M75.7702 40.7627C75.0219 38.8576 75.0559 37.0213 75.7022 35.4595C77.233 36.146 78.5937 37.416 79.3421 39.321C80.0904 41.2261 80.0564 43.2169 79.4101 44.7787C77.8793 44.0922 76.5186 42.6677 75.7702 40.7627Z" fill="#0ACAA0"/>
<path d="M81.213 38.3774C79.5122 37.4163 78.3216 35.9404 77.8453 34.3957C79.3761 33.9838 81.2471 34.2069 82.9479 35.168C84.6488 36.1291 85.8394 37.6051 86.3156 39.1497C84.7849 39.5616 82.9309 39.3385 81.213 38.3774Z" fill="#0ACAA0"/>
<path d="M75.0389 29.9855C76.6037 31.1697 77.5731 32.8002 77.8453 34.3963C76.2635 34.6022 74.4606 34.1045 72.8958 32.9203C71.331 31.7361 70.3615 30.1057 70.0894 28.5096C71.6541 28.3208 73.4741 28.8013 75.0389 29.9855Z" fill="#0ACAA0"/>
<path d="M85.6012 33.967C83.8153 33.4006 82.4036 32.2507 81.6382 30.9292C82.9819 30.2599 84.7848 30.1226 86.5707 30.689C88.3566 31.2553 89.7683 32.4052 90.5337 33.7267C89.19 34.396 87.4041 34.5333 85.6012 33.967Z" fill="#0ACAA0"/>
<path d="M79.4951 26.7073C80.8047 28.0632 81.5191 29.7451 81.5531 31.2897C80.0564 31.2382 78.4065 30.5002 77.0969 29.1444C75.7872 27.7886 75.0728 26.1066 75.0388 24.562C76.5356 24.6135 78.1684 25.3515 79.4951 26.7073Z" fill="#0ACAA0"/>
<path d="M88.6288 29.2812C86.8259 29.367 85.176 28.835 84.0535 27.9082C85.057 26.8785 86.6218 26.192 88.4247 26.1062C90.2276 26.0204 91.8774 26.5524 93 27.4792C91.9965 28.4918 90.4317 29.1954 88.6288 29.2812Z" fill="#0ACAA0"/>
<path d="M82.3865 24.2526C83.4581 25.351 84.0363 26.7068 84.0704 27.9425C82.8457 27.8739 81.5191 27.2732 80.4475 26.1748C79.376 25.0764 78.7977 23.7206 78.7637 22.4849C79.9883 22.5364 81.315 23.1542 82.3865 24.2526Z" fill="#0ACAA0"/>
<path d="M90.0916 22.7429C88.7649 23.7383 87.2512 24.2017 85.9585 24.133C86.2306 22.8802 87.0981 21.5758 88.4247 20.5804C89.7514 19.585 91.2652 19.1216 92.5578 19.1902C92.2687 20.4431 91.4183 21.7474 90.0916 22.7429Z" fill="#0ACAA0"/>
<path d="M84.3937 20.3739C85.3802 21.5752 85.9074 23.0169 85.9244 24.3041C84.7679 24.1668 83.5092 23.4631 82.5227 22.2617C81.5362 21.0604 81.009 19.6187 80.9919 18.3315C82.1485 18.4688 83.3902 19.1725 84.3937 20.3739Z" fill="#0ACAA0"/>
<path d="M90.5337 17.5423C89.4792 18.7265 88.1525 19.4645 86.9619 19.6533C87.0129 18.4519 87.5912 17.0789 88.6628 15.8947C89.7173 14.7105 91.044 13.9725 92.2346 13.7837C92.1666 14.9851 91.5883 16.3581 90.5337 17.5423Z" fill="#0ACAA0"/>
<path d="M84.8187 16.3757C85.9583 17.2853 86.7067 18.4867 86.9448 19.6537C85.8562 19.7395 84.5806 19.3276 83.441 18.418C82.3014 17.5084 81.5531 16.307 81.3149 15.14C82.4035 15.0542 83.6961 15.4661 84.8187 16.3757Z" fill="#0ACAA0"/>
<path d="M89.6833 11.5527C88.8839 12.8399 87.7784 13.7666 86.7238 14.1614C86.6048 13.0458 86.9449 11.6556 87.7444 10.3685C88.5438 9.08127 89.6493 8.1545 90.7039 7.75977C90.8229 8.87533 90.4827 10.2655 89.6833 11.5527Z" fill="#0ACAA0"/>
<path d="M84.1044 12.5995C85.21 12.8398 86.1455 13.4405 86.7068 14.2128C85.9754 14.7105 84.9379 14.8993 83.8323 14.659C82.7267 14.4187 81.7913 13.8181 81.23 13.0458C81.9614 12.5652 82.9989 12.3764 84.1044 12.5995Z" fill="#0ACAA0"/>
<path d="M88.0164 7.67396C87.5232 9.02979 86.6898 10.111 85.8053 10.7117C85.5162 9.69913 85.5842 8.3433 86.0775 6.98746C86.5707 5.63163 87.4041 4.55039 88.2886 3.94971C88.5777 4.96229 88.5097 6.31813 88.0164 7.67396Z" fill="#0ACAA0"/>
<path d="M85.431 4.84235C85.346 5.99223 84.9378 7.02198 84.3425 7.67415C83.8492 6.97049 83.5601 5.92358 83.6451 4.7737C83.7302 3.62382 84.1384 2.59407 84.7337 1.94189C85.2269 2.62839 85.4991 3.6753 85.431 4.84235Z" fill="#0ACAA0"/>
<path d="M82.6757 2.49085C82.6246 3.28032 82.3525 3.98398 81.9443 4.4302C81.6041 3.94965 81.417 3.22883 81.4851 2.43936C81.5361 1.64988 81.8082 0.946224 82.2164 0.5C82.5396 0.980549 82.7267 1.70137 82.6757 2.49085Z" fill="#0ACAA0"/>
<path d="M80.0223 3.692C80.8047 3.74349 81.5021 4.01809 81.9443 4.42999C81.468 4.77323 80.7537 4.96202 79.9713 4.89337C79.1889 4.84188 78.4915 4.56728 78.0493 4.15539C78.5426 3.8293 79.2399 3.64051 80.0223 3.692Z" fill="#0ACAA0"/>
<path d="M82.3185 6.40389C83.1009 6.4897 83.7983 6.9016 84.2575 7.48512C83.7813 7.94851 83.0839 8.20594 82.3015 8.10297C81.5191 8.01716 80.8218 7.60526 80.3625 7.02173C80.8218 6.55835 81.5361 6.30091 82.3185 6.40389Z" fill="#0ACAA0"/>
<path d="M83.5943 9.26986C84.4788 9.39 85.2442 9.90487 85.7714 10.6257C85.2442 11.1921 84.4618 11.501 83.5943 11.3808C82.7099 11.2607 81.9445 10.7458 81.4172 10.025C81.9275 9.45865 82.7099 9.14972 83.5943 9.26986Z" fill="#0ACAA0"/>
<path d="M80.6178 2.01036C81.128 2.61105 81.4342 3.29755 81.4682 3.89823C80.8899 3.79526 80.2606 3.41768 79.7503 2.83416C79.2401 2.23347 78.9339 1.54698 78.8999 0.946289C79.4612 1.0321 80.0905 1.40968 80.6178 2.01036Z" fill="#0ACAA0"/>
</g>
<defs>
<filter id="awwards_01432" x="-3" y="-2.5" width="37.4999" height="51" filterUnits="userSpaceOnUse" color-interpolation-filters="sRGB">
<feFlood flood-opacity="0" result="BackgroundImageFix"/>
<feBlend mode="normal" in="SourceGraphic" in2="BackgroundImageFix" result="shape"/>
<feColorMatrix in="SourceAlpha" type="matrix" values="0 0 0 0 0 0 0 0 0 0 0 0 0 0 0 0 0 0 127 0" result="hardAlpha"/>
<feOffset dx="3" dy="3"/>
<feGaussianBlur stdDeviation="3.5"/>
<feComposite in2="hardAlpha" operator="arithmetic" k2="-1" k3="1"/>
<feColorMatrix type="matrix" values="0 0 0 0 0.534167 0 0 0 0 0.645967 0 0 0 0 0.749167 0 0 0 0.68 0"/>
<feBlend mode="normal" in2="shape" result="effect1_innerShadow"/>
<feColorMatrix in="SourceAlpha" type="matrix" values="0 0 0 0 0 0 0 0 0 0 0 0 0 0 0 0 0 0 127 0" result="hardAlpha"/>
<feOffset dx="-3" dy="-3"/>
<feGaussianBlur stdDeviation="3.5"/>
<feComposite in2="hardAlpha" operator="arithmetic" k2="-1" k3="1"/>
<feColorMatrix type="matrix" values="0 0 0 0 1 0 0 0 0 1 0 0 0 0 1 0 0 0 0.3 0"/>
<feBlend mode="normal" in2="effect1_innerShadow" result="effect2_innerShadow"/>
</filter>
<filter id="awards_=213-" x="58.5" y="-2.5" width="37.5" height="51" filterUnits="userSpaceOnUse" color-interpolation-filters="sRGB">
<feFlood flood-opacity="0" result="BackgroundImageFix"/>
<feBlend mode="normal" in="SourceGraphic" in2="BackgroundImageFix" result="shape"/>
<feColorMatrix in="SourceAlpha" type="matrix" values="0 0 0 0 0 0 0 0 0 0 0 0 0 0 0 0 0 0 127 0" result="hardAlpha"/>
<feOffset dx="3" dy="3"/>
<feGaussianBlur stdDeviation="3.5"/>
<feComposite in2="hardAlpha" operator="arithmetic" k2="-1" k3="1"/>
<feColorMatrix type="matrix" values="0 0 0 0 0.534167 0 0 0 0 0.645967 0 0 0 0 0.749167 0 0 0 0.68 0"/>
<feBlend mode="normal" in2="shape" result="effect1_innerShadow"/>
<feColorMatrix in="SourceAlpha" type="matrix" values="0 0 0 0 0 0 0 0 0 0 0 0 0 0 0 0 0 0 127 0" result="hardAlpha"/>
<feOffset dx="-3" dy="-3"/>
<feGaussianBlur stdDeviation="3.5"/>
<feComposite in2="hardAlpha" operator="arithmetic" k2="-1" k3="1"/>
<feColorMatrix type="matrix" values="0 0 0 0 1 0 0 0 0 1 0 0 0 0 1 0 0 0 0.3 0"/>
<feBlend mode="normal" in2="effect1_innerShadow" result="effect2_innerShadow"/>
</filter>
</defs>
</svg>
