<svg width="60" height="60" viewBox="0 0 60 60" fill="none" xmlns="http://www.w3.org/2000/svg">
<path d="M42.2897 16.2355H37.3738H27.542H19.6766H15.7439V17.2187V22.1346V35.8991V41.7981V43.7645H17.7103H33.4411H41.3066H43.2729V38.8486V30V18.2018V16.2355H42.2897Z" fill="#A9E4D8" fill-opacity="0.4"/>
<path d="M24.5926 38.8486H26.5589V36.8822H28.5253V38.8486H30.4917V36.8822H32.458C34.087 36.8822 35.4075 35.5617 35.4075 33.9327V31.9663C35.405 31.2384 35.1316 30.5374 34.6407 30C35.1316 29.4625 35.405 28.7615 35.4075 28.0336V26.0673C35.4075 24.4383 34.087 23.1177 32.458 23.1177H30.4917V21.1514H28.5253V23.1177H26.5589V21.1514H24.5926V23.1177H22.6262V25.0841H23.6094V34.9159H22.6262V36.8822H24.5926V38.8486ZM33.4412 33.9327C33.4412 34.4756 33.001 34.9159 32.458 34.9159H25.5758V30.9832H32.458C33.001 30.9832 33.4412 31.4234 33.4412 31.9663V33.9327ZM33.4412 26.0673V28.0336C33.4412 28.5766 33.001 29.0168 32.458 29.0168H25.5758V25.0841H32.458C33.001 25.0841 33.4412 25.5243 33.4412 26.0673Z" fill="#0ACAA0"/>
<path d="M57.0374 19.185C55.792 19.1902 54.6839 19.9771 54.2688 21.1514H52.1215V18.2018C52.1215 17.6589 51.6813 17.2187 51.1384 17.2187H44.2561V16.2355C44.2561 15.6925 43.8159 15.2523 43.2729 15.2523V7.38686H54.2688C54.8118 8.92271 56.497 9.72756 58.0328 9.18448C59.5686 8.64152 60.3735 6.95622 59.8304 5.4205C59.2874 3.88465 57.6021 3.07979 56.0664 3.62288C55.2264 3.9198 54.5657 4.58062 54.2688 5.4205H42.2897C41.7468 5.4205 41.3066 5.86072 41.3066 6.40368V15.2523H38.357V8.37004C38.357 7.82708 37.9168 7.38686 37.3738 7.38686H36.3907V6.22277C37.9265 5.67981 38.7314 3.99452 38.1883 2.45879C37.6452 0.923066 35.9601 0.118088 34.4243 0.661049C32.8885 1.20401 32.0836 2.8893 32.6267 4.42515C32.9236 5.26516 33.5844 5.92585 34.4243 6.22277V8.37004C34.4243 8.913 34.8645 9.35322 35.4075 9.35322H36.3907V15.2523H28.5252V6.22277C30.0611 5.67981 30.8659 3.99452 30.3228 2.45879C29.7798 0.923066 28.0947 0.118088 26.5589 0.661049C25.023 1.20401 24.2182 2.8893 24.7612 4.42515C25.0582 5.26516 25.719 5.92585 26.5589 6.22277V15.2523H20.6598V9.35322C20.6598 8.81026 20.2196 8.37004 19.6766 8.37004H14.7607V6.22277C16.2966 5.67981 17.1014 3.99452 16.5583 2.45879C16.0154 0.922943 14.3302 0.118088 12.7944 0.661049C11.2585 1.20401 10.4537 2.8893 10.9967 4.42515C11.2937 5.26516 11.9545 5.92585 12.7944 6.22277V9.35322C12.7944 9.89618 13.2346 10.3364 13.7775 10.3364H18.6934V15.2523H15.7439C15.2009 15.2523 14.7607 15.6925 14.7607 16.2355H10.828V10.3364C10.828 9.79343 10.3878 9.35322 9.84482 9.35322H5.73119C5.18823 7.81737 3.50294 7.01251 1.96722 7.55559C0.431366 8.09856 -0.373489 9.78373 0.169472 11.3196C0.712433 12.8554 2.39773 13.6603 3.93345 13.1172C4.77346 12.8203 5.43415 12.1595 5.73107 11.3196H8.86152V17.2187C8.86152 17.7616 9.30173 18.2018 9.8447 18.2018H14.7606V21.1514H5.73119C5.18823 19.6155 3.50294 18.8107 1.96722 19.3537C0.431366 19.8967 -0.373489 21.5819 0.169472 23.1177C0.712433 24.6536 2.39773 25.4584 3.93345 24.9153C4.77346 24.6184 5.43415 23.9576 5.73107 23.1177H14.7606V34.9159H10.8279V30C10.8279 29.457 10.3877 29.0168 9.8447 29.0168H5.73119C5.18823 27.481 3.50294 26.6761 1.96722 27.2192C0.431366 27.7621 -0.373489 29.4473 0.169472 30.9832C0.712433 32.519 2.39773 33.3239 3.93345 32.7808C4.77346 32.4839 5.43415 31.823 5.73107 30.9832H8.86152V35.8991C8.86152 36.442 9.30173 36.8822 9.8447 36.8822H14.7606V40.815H9.8447C9.30173 40.815 8.86152 41.2552 8.86152 41.7981V49.6636H5.73119C5.18823 48.1277 3.50294 47.3229 1.96722 47.866C0.431489 48.409 -0.373489 50.0942 0.169595 51.6299C0.712679 53.1657 2.39785 53.9706 3.93357 53.4276C4.77358 53.1306 5.43427 52.4698 5.73119 51.6299H9.84482C10.3878 51.6299 10.828 51.1897 10.828 50.6468V42.7813H14.7607V43.7645C14.7607 44.3075 15.2009 44.7477 15.7439 44.7477H16.7271V53.7772C15.1912 54.3202 14.3864 56.0054 14.9295 57.5412C15.4724 59.077 17.1577 59.8819 18.6934 59.3388C20.2293 58.7958 21.0341 57.1105 20.4911 55.5748C20.1941 54.7348 19.5333 54.0741 18.6934 53.7772V44.7477H32.4579V49.6636H27.542C26.9991 49.6636 26.5589 50.1038 26.5589 50.6468V53.7772C25.023 54.3202 24.2182 56.0054 24.7612 57.5412C25.3042 59.077 26.9895 59.8819 28.5252 59.3388C30.0611 58.7958 30.8659 57.1105 30.3228 55.5748C30.0259 54.7348 29.3651 54.0741 28.5252 53.7772V51.6299H33.4411C33.9841 51.6299 34.4243 51.1897 34.4243 50.6468V44.7477H40.3234V50.6468C40.3234 51.1897 40.7636 51.6299 41.3066 51.6299H48.1888V53.7772C46.653 54.3202 45.8481 56.0054 46.3912 57.5412C46.9342 59.077 48.6194 59.8819 50.1552 59.3388C51.691 58.7958 52.4959 57.1105 51.9528 55.5748C51.6559 54.7348 50.9951 54.0741 50.1552 53.7772V50.6468C50.1552 50.1038 49.715 49.6636 49.172 49.6636H42.2897V44.7477H43.2729C43.8159 44.7477 44.2561 44.3075 44.2561 43.7645V39.8318H48.1888V44.7477C48.1888 45.2906 48.629 45.7309 49.172 45.7309H53.2856C53.8286 47.2667 55.5139 48.0716 57.0496 47.5285C58.5854 46.9855 59.3903 45.3002 58.8472 43.7645C58.3043 42.2286 56.619 41.4238 55.0832 41.9669C54.2432 42.2638 53.5825 42.9246 53.2856 43.7645H50.1552V38.8486C50.1552 38.3056 49.715 37.8654 49.172 37.8654H44.2561V30.9832H53.2856C53.8286 32.519 55.5139 33.3239 57.0496 32.7808C58.5854 32.2378 59.3903 30.5525 58.8472 29.0168C58.3043 27.481 56.619 26.6761 55.0832 27.2192C54.2432 27.5161 53.5825 28.1769 53.2856 29.0168H44.2561V19.185H50.1552V22.1345C50.1552 22.6775 50.5954 23.1177 51.1384 23.1177H54.2688C54.8145 24.6496 56.4988 25.4492 58.0308 24.9035C59.5627 24.3579 60.3623 22.6736 59.8166 21.1415C59.398 19.9666 58.2847 19.1828 57.0374 19.185ZM57.0374 5.4205C57.5804 5.4205 58.0206 5.86072 58.0206 6.40368C58.0206 6.94664 57.5804 7.38686 57.0374 7.38686C56.4945 7.38686 56.0542 6.94664 56.0542 6.40368C56.0542 5.86072 56.4945 5.4205 57.0374 5.4205ZM35.4075 2.47096C35.9504 2.47096 36.3907 2.91118 36.3907 3.45414C36.3907 3.9971 35.9504 4.43732 35.4075 4.43732C34.8645 4.43732 34.4243 3.9971 34.4243 3.45414C34.4243 2.91118 34.8645 2.47096 35.4075 2.47096ZM27.542 2.47096C28.085 2.47096 28.5252 2.91118 28.5252 3.45414C28.5252 3.9971 28.085 4.43732 27.542 4.43732C26.9991 4.43732 26.5589 3.9971 26.5589 3.45414C26.5589 2.91118 26.9991 2.47096 27.542 2.47096ZM13.7775 2.47096C14.3205 2.47096 14.7607 2.91118 14.7607 3.45414C14.7607 3.9971 14.3205 4.43732 13.7775 4.43732C13.2346 4.43732 12.7944 3.9971 12.7944 3.45414C12.7944 2.91118 13.2346 2.47096 13.7775 2.47096ZM2.96256 11.3196C2.4196 11.3196 1.97938 10.8794 1.97938 10.3364C1.97938 9.79343 2.4196 9.35322 2.96256 9.35322C3.50552 9.35322 3.94574 9.79343 3.94574 10.3364C3.94574 10.8794 3.50552 11.3196 2.96256 11.3196ZM2.96256 23.1177C2.4196 23.1177 1.97938 22.6775 1.97938 22.1345C1.97938 21.5916 2.4196 21.1514 2.96256 21.1514C3.50552 21.1514 3.94574 21.5916 3.94574 22.1345C3.94574 22.6775 3.50552 23.1177 2.96256 23.1177ZM2.96256 30.9832C2.4196 30.9832 1.97938 30.5429 1.97938 30C1.97938 29.457 2.4196 29.0168 2.96256 29.0168C3.50552 29.0168 3.94574 29.457 3.94574 30C3.94574 30.5429 3.50552 30.9832 2.96256 30.9832ZM2.96256 51.6299C2.4196 51.6299 1.97938 51.1897 1.97938 50.6468C1.97938 50.1038 2.4196 49.6636 2.96256 49.6636C3.50552 49.6636 3.94574 50.1038 3.94574 50.6468C3.94574 51.1897 3.50552 51.6299 2.96256 51.6299ZM17.7103 57.529C17.1673 57.529 16.7271 57.0888 16.7271 56.5458C16.7271 56.0029 17.1673 55.5626 17.7103 55.5626C18.2532 55.5626 18.6934 56.0029 18.6934 56.5458C18.6934 57.0888 18.2532 57.529 17.7103 57.529ZM27.542 57.529C26.9991 57.529 26.5589 57.0888 26.5589 56.5458C26.5589 56.0029 26.9991 55.5626 27.542 55.5626C28.085 55.5626 28.5252 56.0029 28.5252 56.5458C28.5252 57.0888 28.085 57.529 27.542 57.529ZM49.172 57.529C48.629 57.529 48.1888 57.0888 48.1888 56.5458C48.1888 56.0029 48.629 55.5626 49.172 55.5626C49.715 55.5626 50.1552 56.0029 50.1552 56.5458C50.1552 57.0888 49.715 57.529 49.172 57.529ZM56.0542 43.7645C56.5972 43.7645 57.0374 44.2047 57.0374 44.7477C57.0374 45.2906 56.5972 45.7309 56.0542 45.7309C55.5113 45.7309 55.0711 45.2906 55.0711 44.7477C55.0711 44.2047 55.5113 43.7645 56.0542 43.7645ZM56.0542 29.0168C56.5972 29.0168 57.0374 29.457 57.0374 30C57.0374 30.5429 56.5972 30.9832 56.0542 30.9832C55.5113 30.9832 55.0711 30.5429 55.0711 30C55.0711 29.457 55.5113 29.0168 56.0542 29.0168ZM42.2897 42.7813H16.7271V17.2187H42.2897V42.7813ZM57.0374 23.1177C56.4945 23.1177 56.0542 22.6775 56.0542 22.1345C56.0542 21.5916 56.4945 21.1514 57.0374 21.1514C57.5804 21.1514 58.0206 21.5916 58.0206 22.1345C58.0206 22.6775 57.5804 23.1177 57.0374 23.1177Z" fill="#0ACAA0"/>
</svg>
