<svg width="287" height="180" viewBox="0 0 287 180" fill="none" xmlns="http://www.w3.org/2000/svg">
<g opacity="0.5" filter="url(#filter0_ii)">
<path fill-rule="evenodd" clip-rule="evenodd" d="M199.583 -25.121C255.512 -17.4492 294.652 33.9583 287.006 89.7006C279.359 145.443 227.822 184.412 171.893 176.74C153.492 174.216 136.907 166.957 123.209 156.367L104.462 170.542C104.753 175.974 102.426 181.446 97.7533 184.979L16.3567 246.526C8.8643 252.191 -1.82219 250.725 -7.51228 243.251L-28.1179 216.188C-33.808 208.714 -32.347 198.063 -24.8547 192.398L56.542 130.852C61.2165 127.317 67.1342 126.559 72.3062 128.303L91.0503 114.13C84.5043 98.1311 81.9549 80.2594 84.4708 61.9183C92.1172 6.17597 143.655 -32.7929 199.583 -25.121ZM110.473 144.675L96.4916 155.247L84.9389 140.073L98.9196 129.502C102.29 134.905 106.159 139.986 110.473 144.675ZM-14.5518 205.93L39.1954 165.29L59.6642 192.458L6.05383 232.994L-14.5518 205.93ZM87.4505 171.448L73.2304 182.2L52.7617 155.032L66.8448 144.384L87.4505 171.448ZM187 150.544C145.83 150.544 112.456 117.17 112.456 76C112.456 34.8303 145.83 1.45566 187 1.45566C228.17 1.45566 261.544 34.8303 261.544 76C261.544 117.17 228.17 150.544 187 150.544Z" fill="#ECEFF4"/>
</g>
<defs>
<filter id="filter0_ii" x="-33.5876" y="-28.0848" width="323.547" height="280.06" filterUnits="userSpaceOnUse" color-interpolation-filters="sRGB">
<feFlood flood-opacity="0" result="BackgroundImageFix"/>
<feBlend mode="normal" in="SourceGraphic" in2="BackgroundImageFix" result="shape"/>
<feColorMatrix in="SourceAlpha" type="matrix" values="0 0 0 0 0 0 0 0 0 0 0 0 0 0 0 0 0 0 127 0" result="hardAlpha"/>
<feOffset dx="2" dy="2"/>
<feGaussianBlur stdDeviation="2.5"/>
<feComposite in2="hardAlpha" operator="arithmetic" k2="-1" k3="1"/>
<feColorMatrix type="matrix" values="0 0 0 0 0.65098 0 0 0 0 0.670588 0 0 0 0 0.741176 0 0 0 1 0"/>
<feBlend mode="normal" in2="shape" result="effect1_innerShadow"/>
<feColorMatrix in="SourceAlpha" type="matrix" values="0 0 0 0 0 0 0 0 0 0 0 0 0 0 0 0 0 0 127 0" result="hardAlpha"/>
<feOffset dx="-2" dy="-2"/>
<feGaussianBlur stdDeviation="2.5"/>
<feComposite in2="hardAlpha" operator="arithmetic" k2="-1" k3="1"/>
<feColorMatrix type="matrix" values="0 0 0 0 0.980392 0 0 0 0 0.984314 0 0 0 0 1 0 0 0 1 0"/>
<feBlend mode="normal" in2="effect1_innerShadow" result="effect2_innerShadow"/>
</filter>
</defs>
</svg>
