<svg width="60" height="60" viewBox="0 0 60 60" fill="none" xmlns="http://www.w3.org/2000/svg">
<path d="M33.75 17.8125H48.75V29.0625H33.75V17.8125Z" fill="#A9E4D8" fill-opacity="0.4"/>
<path d="M20.5 25H24.5L25 37H20L20.5 25Z" fill="#A9E4D8" fill-opacity="0.4"/>
<path d="M13.125 36.5625H15.9375H19.6875H25.3125H28.125V40.3125H26.25H13.125" fill="#A9E4D8" fill-opacity="0.4"/>
<path d="M13.125 40.3125H7.5H5.625V36.5625H8.4375H13.125" fill="#A9E4D8" fill-opacity="0.4"/>
<path d="M13.125 17.8125H8.4375V36.5625H13.125H15.9375V32.8125V29.0625V25.3125V21.5625V17.8125H13.125Z" fill="#A9E4D8" fill-opacity="0.4"/>
<path d="M54.375 10.3125H48.75C47.7159 10.3097 46.8778 9.47156 46.875 8.4375V2.8125L54.375 10.3125Z" fill="#A9E4D8" fill-opacity="0.4"/>
<path d="M8 41H26V57H8V41Z" fill="#A9E4D8" fill-opacity="0.4"/>
<path d="M55.0378 9.64969L47.5378 2.14969C47.3625 1.97344 47.1234 1.875 46.875 1.875H16.875C14.2875 1.87781 12.1903 3.975 12.1875 6.5625V15H14.0625V6.5625C14.0625 5.00906 15.3216 3.75 16.875 3.75H45.9375V8.4375C45.9375 9.99094 47.1966 11.25 48.75 11.25H53.4375V53.4375C53.4375 54.9909 52.1784 56.25 50.625 56.25H29.0625V58.125H50.625C53.2125 58.1222 55.3097 56.025 55.3125 53.4375V10.3125C55.3125 10.0641 55.2141 9.825 55.0378 9.64969ZM47.8125 8.4375V5.07562L52.1119 9.375H48.75C48.2325 9.375 47.8125 8.955 47.8125 8.4375Z" fill="#0ACAA0"/>
<path d="M17.8125 7.5H19.6875V9.375H17.8125V7.5Z" fill="#0ACAA0"/>
<path d="M21.5625 7.5H27.1875V9.375H21.5625V7.5Z" fill="#0ACAA0"/>
<path d="M17.8125 11.25H27.1875V13.125H17.8125V11.25Z" fill="#0ACAA0"/>
<path d="M49.6875 17.8125C49.6875 17.295 49.2675 16.875 48.75 16.875H33.75C33.2325 16.875 32.8125 17.295 32.8125 17.8125V29.0625C32.8125 29.58 33.2325 30 33.75 30H48.75C49.2675 30 49.6875 29.58 49.6875 29.0625V17.8125ZM47.8125 28.125H34.6875V18.75H47.8125V28.125Z" fill="#0ACAA0"/>
<path d="M29.0625 36.5625C29.0625 36.045 28.6425 35.625 28.125 35.625H26.25V28.125C26.25 27.9553 26.2041 27.7884 26.1159 27.6422L23.3034 22.9547C22.9997 22.5113 22.3931 22.3978 21.9497 22.7016C21.8503 22.7691 21.765 22.8553 21.6966 22.9547L18.8841 27.6422C18.7959 27.7884 18.75 27.9553 18.75 28.125V35.625H16.875V17.8125C16.875 17.295 16.455 16.875 15.9375 16.875H8.4375C7.92 16.875 7.5 17.295 7.5 17.8125V35.625H5.625C5.1075 35.625 4.6875 36.045 4.6875 36.5625V40.3125C4.6875 40.83 5.1075 41.25 5.625 41.25H6.5625V55.3125C6.5625 56.8659 7.82156 58.125 9.375 58.125H24.375C25.9284 58.125 27.1875 56.8659 27.1875 55.3125V41.25H28.125C28.6425 41.25 29.0625 40.83 29.0625 40.3125V36.5625ZM22.5 25.26L24.2194 28.125H20.7806L22.5 25.26ZM20.625 30H24.375V35.625H20.625V30ZM9.375 18.75H15V20.625H13.125V22.5H15V24.375H12.1875V26.25H15V28.125H13.125V30H15V31.875H12.1875V33.75H15V35.625H9.375V18.75ZM25.3125 55.3125C25.3125 55.83 24.8925 56.25 24.375 56.25H9.375C8.8575 56.25 8.4375 55.83 8.4375 55.3125V41.25H25.3125V55.3125ZM27.1875 39.375H6.5625V37.5H27.1875V39.375Z" fill="#0ACAA0"/>
<path d="M36.5625 33.75H49.6875V35.625H36.5625V33.75Z" fill="#0ACAA0"/>
<path d="M32.8125 37.5H49.6875V39.375H32.8125V37.5Z" fill="#0ACAA0"/>
<path d="M32.8125 41.25H49.6875V43.125H32.8125V41.25Z" fill="#0ACAA0"/>
<path d="M32.8125 45H49.6875V46.875H32.8125V45Z" fill="#0ACAA0"/>
<path d="M32.8125 48.75H49.6875V50.625H32.8125V48.75Z" fill="#0ACAA0"/>
<path d="M32.8125 33.75H34.6875V35.625H32.8125V33.75Z" fill="#0ACAA0"/>
</svg>
