<svg width="60" height="60" viewBox="0 0 60 60" fill="none" xmlns="http://www.w3.org/2000/svg">
<path d="M51.5625 53.4375V56.25C51.5625 56.4986 51.4637 56.7371 51.2879 56.9129C51.1121 57.0887 50.8736 57.1875 50.625 57.1875H9.375C9.12636 57.1875 8.8879 57.0887 8.71209 56.9129C8.53627 56.7371 8.4375 56.4986 8.4375 56.25V53.4375H51.5625Z" fill="#A9E4D8" fill-opacity="0.4"/>
<path d="M50.625 29.0625V32.8125C50.6235 33.3093 50.4255 33.7854 50.0742 34.1367C49.7229 34.488 49.2468 34.686 48.75 34.6875H11.25C10.7532 34.686 10.2771 34.488 9.92581 34.1367C9.5745 33.7854 9.37648 33.3093 9.375 32.8125V29.0625H50.625Z" fill="#A9E4D8" fill-opacity="0.4"/>
<path d="M42.1875 2.8125H17.8125C17.3157 2.81398 16.8396 3.012 16.4883 3.36331C16.137 3.71462 15.939 4.19068 15.9375 4.6875V8.4375H44.0625V4.6875C44.061 4.19068 43.863 3.71462 43.5117 3.36331C43.1604 3.012 42.6843 2.81398 42.1875 2.8125Z" fill="#A9E4D8" fill-opacity="0.4"/>
<path d="M39.375 40.3125V44.0625H20.625V40.3125H25.3125H34.6875H39.375Z" fill="#A9E4D8" fill-opacity="0.4"/>
<path d="M25.3125 34.6875H34.6875V40.3125H25.3125V34.6875Z" fill="#A9E4D8" fill-opacity="0.4"/>
<path d="M52.2281 52.7719L46.6031 47.1469C46.4244 46.9742 46.186 46.8769 45.9375 46.875H17.8125V45C17.8103 44.2548 17.5132 43.5407 16.9863 43.0137C16.4593 42.4868 15.7452 42.1897 15 42.1875H9.375C9.12636 42.1875 8.8879 42.0887 8.71209 41.9129C8.53627 41.7371 8.4375 41.4986 8.4375 41.25C8.4375 41.0014 8.53627 40.7629 8.71209 40.5871C8.8879 40.4113 9.12636 40.3125 9.375 40.3125H15C15.7452 40.3103 16.4593 40.0132 16.9863 39.4863C17.5132 38.9593 17.8103 38.2452 17.8125 37.5V35.625H24.375V39.375H20.625C20.3764 39.375 20.1379 39.4738 19.9621 39.6496C19.7863 39.8254 19.6875 40.0639 19.6875 40.3125V44.0625C19.6875 44.3111 19.7863 44.5496 19.9621 44.7254C20.1379 44.9012 20.3764 45 20.625 45H39.375C39.6236 45 39.8621 44.9012 40.0379 44.7254C40.2137 44.5496 40.3125 44.3111 40.3125 44.0625V40.3125C40.3125 40.0639 40.2137 39.8254 40.0379 39.6496C39.8621 39.4738 39.6236 39.375 39.375 39.375H35.625V35.625H48.75C49.4952 35.6228 50.2093 35.3257 50.7363 34.7988C51.2632 34.2718 51.5603 33.5577 51.5625 32.8125V8.4375C51.5603 7.69226 51.2632 6.97819 50.7363 6.45122C50.2093 5.92426 49.4952 5.62723 48.75 5.625H46.875V7.5H48.75C48.9986 7.5 49.2371 7.59877 49.4129 7.77459C49.5887 7.9504 49.6875 8.18886 49.6875 8.4375V28.125H44.8312C44.9404 27.8244 44.9975 27.5073 45 27.1875V4.6875C44.9978 3.94226 44.7007 3.22819 44.1738 2.70122C43.6468 2.17426 42.9327 1.87723 42.1875 1.875H17.8125C17.0673 1.87723 16.3532 2.17426 15.8262 2.70122C15.2993 3.22819 15.0022 3.94226 15 4.6875V27.1875C15.0025 27.5073 15.0596 27.8244 15.1688 28.125H10.3125V8.4375C10.3125 8.18886 10.4113 7.9504 10.5871 7.77459C10.7629 7.59877 11.0014 7.5 11.25 7.5H13.125V5.625H11.25C10.5048 5.62723 9.79068 5.92426 9.26372 6.45122C8.73676 6.97819 8.43973 7.69226 8.4375 8.4375V32.8125C8.43973 33.5577 8.73676 34.2718 9.26372 34.7988C9.79068 35.3257 10.5048 35.6228 11.25 35.625H15.9375V37.5C15.9375 37.7486 15.8387 37.9871 15.6629 38.1629C15.4871 38.3387 15.2486 38.4375 15 38.4375H9.375C8.62908 38.4375 7.91371 38.7338 7.38626 39.2613C6.85882 39.7887 6.5625 40.5041 6.5625 41.25C6.5625 41.9959 6.85882 42.7113 7.38626 43.2387C7.91371 43.7662 8.62908 44.0625 9.375 44.0625H15C15.2486 44.0625 15.4871 44.1613 15.6629 44.3371C15.8387 44.5129 15.9375 44.7514 15.9375 45V46.875H14.0625C13.814 46.8769 13.5756 46.9742 13.3969 47.1469L7.77187 52.7719C7.59919 52.9506 7.50185 53.189 7.5 53.4375V56.25C7.50148 56.7468 7.6995 57.2229 8.05081 57.5742C8.40212 57.9255 8.87818 58.1235 9.375 58.125H50.625C51.1218 58.1235 51.5979 57.9255 51.9492 57.5742C52.3005 57.2229 52.4985 56.7468 52.5 56.25V53.4375C52.4981 53.189 52.4008 52.9506 52.2281 52.7719ZM38.4375 41.25V43.125H21.5625V41.25H38.4375ZM26.25 39.375V35.625H33.75V39.375H26.25ZM16.875 4.6875C16.875 4.43886 16.9738 4.2004 17.1496 4.02459C17.3254 3.84877 17.5639 3.75 17.8125 3.75H42.1875C42.4361 3.75 42.6746 3.84877 42.8504 4.02459C43.0262 4.2004 43.125 4.43886 43.125 4.6875V7.5H16.875V4.6875ZM16.875 9.375H43.125V27.1875C43.125 27.4361 43.0262 27.6746 42.8504 27.8504C42.6746 28.0262 42.4361 28.125 42.1875 28.125H17.8125C17.5639 28.125 17.3254 28.0262 17.1496 27.8504C16.9738 27.6746 16.875 27.4361 16.875 27.1875V9.375ZM11.25 33.75C11.0014 33.75 10.7629 33.6512 10.5871 33.4754C10.4113 33.2996 10.3125 33.0611 10.3125 32.8125V30H49.6875V32.8125C49.6875 33.0611 49.5887 33.2996 49.4129 33.4754C49.2371 33.6512 48.9986 33.75 48.75 33.75H11.25ZM14.4469 48.75H45.5531L49.3031 52.5H10.6969L14.4469 48.75ZM50.625 56.25H9.375V54.375H50.625V56.25Z" fill="#0ACAA0"/>
<path d="M15 49.6875H16.875V51.5625H15V49.6875Z" fill="#0ACAA0"/>
<path d="M18.75 49.6875H20.625V51.5625H18.75V49.6875Z" fill="#0ACAA0"/>
<path d="M39.375 49.6875H41.25V51.5625H39.375V49.6875Z" fill="#0ACAA0"/>
<path d="M22.5 49.6875H37.5V51.5625H22.5V49.6875Z" fill="#0ACAA0"/>
<path d="M43.125 49.6875H45V51.5625H43.125V49.6875Z" fill="#0ACAA0"/>
<path d="M44.0625 30.9375H45.9375V32.8125H44.0625V30.9375Z" fill="#0ACAA0"/>
<path d="M25.5872 18.4753L26.9129 17.1497L24.7632 15L26.9129 12.8503L25.5872 11.5247L22.7747 14.3372C22.599 14.513 22.5002 14.7514 22.5002 15C22.5002 15.2486 22.599 15.487 22.7747 15.6628L25.5872 18.4753Z" fill="#0ACAA0"/>
<path d="M34.4128 11.5247L33.0872 12.8503L35.2368 15L33.0872 17.1497L34.4128 18.4753L37.2253 15.6628C37.401 15.487 37.4998 15.2486 37.4998 15C37.4998 14.7514 37.401 14.513 37.2253 14.3372L34.4128 11.5247Z" fill="#0ACAA0"/>
<path d="M28.1912 17.5104L30.0709 11.8831L31.8494 12.4772L29.9696 18.1045L28.1912 17.5104Z" fill="#0ACAA0"/>
<path d="M22.5 20.625H26.25V22.5H22.5V20.625Z" fill="#0ACAA0"/>
<path d="M28.125 20.625H35.625V22.5H28.125V20.625Z" fill="#0ACAA0"/>
<path d="M24.375 24.375H30V26.25H24.375V24.375Z" fill="#0ACAA0"/>
<path d="M31.875 24.375H35.625V26.25H31.875V24.375Z" fill="#0ACAA0"/>
<path d="M18.75 4.6875H20.625V6.5625H18.75V4.6875Z" fill="#0ACAA0"/>
<path d="M22.5 4.6875H24.375V6.5625H22.5V4.6875Z" fill="#0ACAA0"/>
<path d="M26.25 4.6875H28.125V6.5625H26.25V4.6875Z" fill="#0ACAA0"/>
</svg>
