<svg viewBox="0 0 287 180" fill="none" xmlns="http://www.w3.org/2000/svg">
<g opacity="0.5" filter="url(#filter0_ii_____01)">
<path fill-rule="evenodd" clip-rule="evenodd" d="M199.583 -25.121C255.512 -17.4492 294.652 33.9583 287.006 89.7006C279.359 145.443 227.822 184.412 171.893 176.74C153.492 174.216 136.907 166.957 123.209 156.367L104.462 170.542C104.753 175.974 102.426 181.446 97.7533 184.979L16.3567 246.526C8.8643 252.191 -1.82219 250.725 -7.51228 243.251L-28.1179 216.188C-33.808 208.714 -32.347 198.063 -24.8547 192.398L56.542 130.852C61.2165 127.317 67.1342 126.559 72.3062 128.303L91.0503 114.13C84.5043 98.1311 81.9549 80.2594 84.4708 61.9183C92.1172 6.17597 143.655 -32.7929 199.583 -25.121ZM110.473 144.675L96.4916 155.247L84.9389 140.073L98.9196 129.502C102.29 134.905 106.159 139.986 110.473 144.675ZM-14.5518 205.93L39.1954 165.29L59.6642 192.458L6.05383 232.994L-14.5518 205.93ZM87.4505 171.448L73.2304 182.2L52.7617 155.032L66.8448 144.384L87.4505 171.448ZM187 150.544C145.83 150.544 112.456 117.17 112.456 76C112.456 34.8303 145.83 1.45566 187 1.45566C228.17 1.45566 261.544 34.8303 261.544 76C261.544 117.17 228.17 150.544 187 150.544Z" fill="#ECEFF4"/>
</g>
<g opacity="0.5" filter="url(#filter1_ii_______02)">
<path fill-rule="evenodd" clip-rule="evenodd" d="M190.916 52.528C192.621 52.5203 194.312 52.848 195.891 53.4925C197.473 54.1382 198.913 55.0892 200.128 56.2912C201.342 57.4933 202.308 58.9229 202.971 60.4983C203.633 62.0737 203.978 63.7641 203.987 65.473L203.987 65.5013C203.982 67.2641 203.615 69.0072 202.91 70.6228C202.86 70.7366 202.809 70.8497 202.756 70.9619C204.217 71.9404 205.491 73.1945 206.501 74.6696C208.429 77.4871 209.255 80.9143 208.824 84.3009C208.392 87.6875 206.732 90.7977 204.159 93.0414C201.59 95.2809 198.29 96.5014 194.883 96.4723H173.987C172.673 96.4723 171.413 95.9503 170.483 95.0211C169.554 94.0918 169.032 92.8315 169.032 91.5173C169.032 90.2032 169.554 88.9429 170.483 88.0136C171.413 87.0844 172.673 86.5623 173.987 86.5623H175.038V62.438H173.987C172.673 62.438 171.413 61.9159 170.483 60.9867C169.554 60.0574 169.032 58.7971 169.032 57.483C169.032 56.1688 169.554 54.9085 170.483 53.9793C171.413 53.05 172.673 52.528 173.987 52.528H190.916ZM184.948 68.5441H190.924C191.734 68.5441 192.51 68.2225 193.083 67.6499C193.656 67.0774 193.977 66.3008 193.977 65.4911C193.977 64.6813 193.656 63.9048 193.083 63.3322C192.51 62.7596 191.734 62.438 190.924 62.438H184.948V68.5441ZM184.948 78.4541V86.5623H194.928C194.942 86.5623 194.955 86.5624 194.969 86.5626C196.041 86.56 197.07 86.1378 197.835 85.3854C198.598 84.6361 199.037 83.6196 199.062 82.5525C199.022 81.4651 198.567 80.4334 197.789 79.6706C196.998 78.8958 195.937 78.4595 194.831 78.4541H192.23C192.03 78.4663 191.83 78.4663 191.63 78.4541H184.948Z" fill="#ECEFF4"/>
</g>
<g opacity="0.5" filter="url(#filter2_ii_____03)">
<path fill-rule="evenodd" clip-rule="evenodd" d="M170.483 26.4513C171.412 25.522 172.672 25 173.986 25C175.3 25 176.561 25.522 177.49 26.4513C178.419 27.3805 178.941 28.6409 178.941 29.955V37.0121H183.045V29.955C183.045 28.6409 183.568 27.3805 184.497 26.4513C185.426 25.522 186.686 25 188.001 25C189.315 25 190.575 25.522 191.504 26.4513C192.433 27.3805 192.956 28.6409 192.956 29.955V37.0121H197.06V29.955C197.06 28.6409 197.582 27.3805 198.511 26.4513C199.44 25.522 200.701 25 202.015 25C203.329 25 204.589 25.522 205.518 26.4513C206.448 27.3805 206.97 28.6409 206.97 29.955V37.0121H221.034C222.348 37.0121 223.608 37.5342 224.538 38.4634C225.467 39.3927 225.989 40.653 225.989 41.9671V56.0313H232.045C233.359 56.0313 234.619 56.5534 235.549 57.4826C236.478 58.4119 237 59.6722 237 60.9863C237 62.3005 236.478 63.5608 235.549 64.4901C234.619 65.4193 233.359 65.9414 232.045 65.9414H225.989V70.0455H232.045C233.359 70.0455 234.619 70.5675 235.549 71.4968C236.478 72.426 237 73.6864 237 75.0005C237 76.3146 236.478 77.575 235.549 78.5042C234.619 79.4335 233.359 79.9555 232.045 79.9555H225.989V84.0597H232.045C233.359 84.0597 234.619 84.5817 235.549 85.5109C236.478 86.4402 237 87.7005 237 89.0147C237 90.3288 236.478 91.5891 235.549 92.5184C234.619 93.4476 233.359 93.9697 232.045 93.9697H225.989V108.034C225.989 109.348 225.467 110.608 224.538 111.538C223.608 112.467 222.348 112.989 221.034 112.989H206.97V119.045C206.97 120.359 206.448 121.619 205.518 122.549C204.589 123.478 203.329 124 202.015 124C200.701 124 199.44 123.478 198.511 122.549C197.582 121.619 197.06 120.359 197.06 119.045V112.989H192.956V119.045C192.956 120.359 192.433 121.619 191.504 122.549C190.575 123.478 189.315 124 188.001 124C186.686 124 185.426 123.478 184.497 122.549C183.568 121.619 183.045 120.359 183.045 119.045V112.989H178.941V119.045C178.941 120.359 178.419 121.619 177.49 122.549C176.561 123.478 175.3 124 173.986 124C172.672 124 171.412 123.478 170.483 122.549C169.553 121.619 169.031 120.359 169.031 119.045V112.989H154.967C153.653 112.989 152.393 112.467 151.463 111.538C150.534 110.608 150.012 109.348 150.012 108.034V93.9697H142.955C141.641 93.9697 140.381 93.4476 139.451 92.5184C138.522 91.5891 138 90.3288 138 89.0147C138 87.7005 138.522 86.4402 139.451 85.5109C140.381 84.5817 141.641 84.0597 142.955 84.0597H150.012V79.9555H142.955C141.641 79.9555 140.381 79.4335 139.451 78.5042C138.522 77.575 138 76.3146 138 75.0005C138 73.6864 138.522 72.426 139.451 71.4968C140.381 70.5675 141.641 70.0455 142.955 70.0455H150.012V65.9414H142.955C141.641 65.9414 140.381 65.4193 139.451 64.4901C138.522 63.5608 138 62.3005 138 60.9863C138 59.6722 138.522 58.4119 139.451 57.4826C140.381 56.5534 141.641 56.0313 142.955 56.0313H150.012V41.9671C150.012 40.653 150.534 39.3927 151.463 38.4634C152.393 37.5342 153.653 37.0121 154.967 37.0121H169.031V29.955C169.031 28.6409 169.553 27.3805 170.483 26.4513ZM216.079 46.9221H159.922V103.079H216.079V46.9221Z" fill="#ECEFF4"/>
</g>
<defs>
<filter id="filter0_ii_____01" x="-33.5876" y="-28.0848" width="323.547" height="280.06" filterUnits="userSpaceOnUse" color-interpolation-filters="sRGB">
<feFlood flood-opacity="0" result="BackgroundImageFix"/>
<feBlend mode="normal" in="SourceGraphic" in2="BackgroundImageFix" result="shape"/>
<feColorMatrix in="SourceAlpha" type="matrix" values="0 0 0 0 0 0 0 0 0 0 0 0 0 0 0 0 0 0 127 0" result="hardAlpha"/>
<feOffset dx="2" dy="2"/>
<feGaussianBlur stdDeviation="2.5"/>
<feComposite in2="hardAlpha" operator="arithmetic" k2="-1" k3="1"/>
<feColorMatrix type="matrix" values="0 0 0 0 0.65098 0 0 0 0 0.670588 0 0 0 0 0.741176 0 0 0 1 0"/>
<feBlend mode="normal" in2="shape" result="effect1_innerShadow"/>
<feColorMatrix in="SourceAlpha" type="matrix" values="0 0 0 0 0 0 0 0 0 0 0 0 0 0 0 0 0 0 127 0" result="hardAlpha"/>
<feOffset dx="-2" dy="-2"/>
<feGaussianBlur stdDeviation="2.5"/>
<feComposite in2="hardAlpha" operator="arithmetic" k2="-1" k3="1"/>
<feColorMatrix type="matrix" values="0 0 0 0 0.980392 0 0 0 0 0.984314 0 0 0 0 1 0 0 0 1 0"/>
<feBlend mode="normal" in2="effect1_innerShadow" result="effect2_innerShadow"/>
</filter>
<filter id="filter1_ii_______02" x="167.032" y="50.5278" width="43.9035" height="47.945" filterUnits="userSpaceOnUse" color-interpolation-filters="sRGB">
<feFlood flood-opacity="0" result="BackgroundImageFix"/>
<feBlend mode="normal" in="SourceGraphic" in2="BackgroundImageFix" result="shape"/>
<feColorMatrix in="SourceAlpha" type="matrix" values="0 0 0 0 0 0 0 0 0 0 0 0 0 0 0 0 0 0 127 0" result="hardAlpha"/>
<feOffset dx="2" dy="2"/>
<feGaussianBlur stdDeviation="2.5"/>
<feComposite in2="hardAlpha" operator="arithmetic" k2="-1" k3="1"/>
<feColorMatrix type="matrix" values="0 0 0 0 0.65098 0 0 0 0 0.670588 0 0 0 0 0.741176 0 0 0 1 0"/>
<feBlend mode="normal" in2="shape" result="effect1_innerShadow"/>
<feColorMatrix in="SourceAlpha" type="matrix" values="0 0 0 0 0 0 0 0 0 0 0 0 0 0 0 0 0 0 127 0" result="hardAlpha"/>
<feOffset dx="-2" dy="-2"/>
<feGaussianBlur stdDeviation="2.5"/>
<feComposite in2="hardAlpha" operator="arithmetic" k2="-1" k3="1"/>
<feColorMatrix type="matrix" values="0 0 0 0 0.980392 0 0 0 0 0.984314 0 0 0 0 1 0 0 0 1 0"/>
<feBlend mode="normal" in2="effect1_innerShadow" result="effect2_innerShadow"/>
</filter>
<filter id="filter2_ii_____03" x="136" y="23" width="103" height="103" filterUnits="userSpaceOnUse" color-interpolation-filters="sRGB">
<feFlood flood-opacity="0" result="BackgroundImageFix"/>
<feBlend mode="normal" in="SourceGraphic" in2="BackgroundImageFix" result="shape"/>
<feColorMatrix in="SourceAlpha" type="matrix" values="0 0 0 0 0 0 0 0 0 0 0 0 0 0 0 0 0 0 127 0" result="hardAlpha"/>
<feOffset dx="2" dy="2"/>
<feGaussianBlur stdDeviation="2.5"/>
<feComposite in2="hardAlpha" operator="arithmetic" k2="-1" k3="1"/>
<feColorMatrix type="matrix" values="0 0 0 0 0.65098 0 0 0 0 0.670588 0 0 0 0 0.741176 0 0 0 1 0"/>
<feBlend mode="normal" in2="shape" result="effect1_innerShadow"/>
<feColorMatrix in="SourceAlpha" type="matrix" values="0 0 0 0 0 0 0 0 0 0 0 0 0 0 0 0 0 0 127 0" result="hardAlpha"/>
<feOffset dx="-2" dy="-2"/>
<feGaussianBlur stdDeviation="2.5"/>
<feComposite in2="hardAlpha" operator="arithmetic" k2="-1" k3="1"/>
<feColorMatrix type="matrix" values="0 0 0 0 0.980392 0 0 0 0 0.984314 0 0 0 0 1 0 0 0 1 0"/>
<feBlend mode="normal" in2="effect1_innerShadow" result="effect2_innerShadow"/>
</filter>
</defs>
</svg>
