<svg width="60" height="60" viewBox="0 0 60 60" fill="none" xmlns="http://www.w3.org/2000/svg">
<path d="M51.5625 53.4375V56.25C51.5625 56.4986 51.4637 56.7371 51.2879 56.9129C51.1121 57.0887 50.8736 57.1875 50.625 57.1875H9.375C9.12636 57.1875 8.8879 57.0887 8.71209 56.9129C8.53627 56.7371 8.4375 56.4986 8.4375 56.25V53.4375H51.5625Z" fill="#A9E4D8" fill-opacity="0.4"/>
<path d="M50.625 29.0625V32.8125C50.6235 33.3093 50.4255 33.7854 50.0742 34.1367C49.7229 34.488 49.2468 34.686 48.75 34.6875H11.25C10.7532 34.686 10.2771 34.488 9.92581 34.1367C9.5745 33.7854 9.37648 33.3093 9.375 32.8125V29.0625H50.625Z" fill="#A9E4D8" fill-opacity="0.4"/>
<path d="M41.25 6.5625V27.1875C41.2485 27.6843 41.0505 28.1604 40.6992 28.5117C40.3479 28.863 39.8718 29.061 39.375 29.0625H20.625C20.1282 29.061 19.6521 28.863 19.3008 28.5117C18.9495 28.1604 18.7515 27.6843 18.75 27.1875V6.5625H30C28.8473 6.56174 27.7223 6.9151 26.777 7.57478C25.8318 8.23446 25.1121 9.16859 24.7152 10.2508C24.3183 11.333 24.2635 12.5109 24.5581 13.6253C24.8528 14.7397 25.4826 15.7366 26.3625 16.4813C25.3825 17.2218 24.4865 18.0675 23.6906 19.0031C23.4665 19.4316 23.4165 19.9302 23.5513 20.3947C23.686 20.8591 23.995 21.2535 24.4137 21.4956C24.8324 21.7376 25.3284 21.8085 25.7981 21.6934C26.2678 21.5783 26.6749 21.2862 26.9344 20.8781C27.339 19.7367 27.6187 18.5548 27.7688 17.3531C28.4725 17.6596 29.2324 17.8161 30 17.8125C31.4918 17.8125 32.9226 17.2199 33.9775 16.165C35.0324 15.1101 35.625 13.6793 35.625 12.1875C35.625 10.6957 35.0324 9.26492 33.9775 8.21003C32.9226 7.15513 31.4918 6.5625 30 6.5625H41.25Z" fill="#A9E4D8" fill-opacity="0.4"/>
<path d="M41.25 4.6875V6.5625H18.75V4.6875C18.7515 4.19068 18.9495 3.71462 19.3008 3.36331C19.6521 3.012 20.1282 2.81398 20.625 2.8125H39.375C39.8718 2.81398 40.3479 3.012 40.6992 3.36331C41.0505 3.71462 41.2485 4.19068 41.25 4.6875Z" fill="#A9E4D8" fill-opacity="0.4"/>
<path d="M39.375 40.3125V44.0625H20.625V40.3125H25.3125H34.6875H39.375Z" fill="#A9E4D8" fill-opacity="0.4"/>
<path d="M25.3125 34.6875H34.6875V40.3125H25.3125V34.6875Z" fill="#A9E4D8" fill-opacity="0.4"/>
<path d="M52.2281 52.7719L46.6031 47.1469C46.4244 46.9742 46.186 46.8769 45.9375 46.875H17.8125V45C17.8103 44.2548 17.5132 43.5407 16.9863 43.0137C16.4593 42.4868 15.7452 42.1897 15 42.1875H9.375C9.12636 42.1875 8.8879 42.0887 8.71209 41.9129C8.53627 41.7371 8.4375 41.4986 8.4375 41.25C8.4375 41.0014 8.53627 40.7629 8.71209 40.5871C8.8879 40.4113 9.12636 40.3125 9.375 40.3125H15C15.7452 40.3103 16.4593 40.0132 16.9863 39.4863C17.5132 38.9593 17.8103 38.2452 17.8125 37.5V35.625H24.375V39.375H20.625C20.3764 39.375 20.1379 39.4738 19.9621 39.6496C19.7863 39.8254 19.6875 40.0639 19.6875 40.3125V44.0625C19.6875 44.3111 19.7863 44.5496 19.9621 44.7254C20.1379 44.9012 20.3764 45 20.625 45H39.375C39.6236 45 39.8621 44.9012 40.0379 44.7254C40.2137 44.5496 40.3125 44.3111 40.3125 44.0625V40.3125C40.3125 40.0639 40.2137 39.8254 40.0379 39.6496C39.8621 39.4738 39.6236 39.375 39.375 39.375H35.625V35.625H48.75C49.4952 35.6228 50.2093 35.3257 50.7363 34.7988C51.2632 34.2718 51.5603 33.5577 51.5625 32.8125V8.4375C51.5603 7.69226 51.2632 6.97819 50.7363 6.45122C50.2093 5.92426 49.4952 5.62723 48.75 5.625H44.0625V7.5H48.75C48.9986 7.5 49.2371 7.59877 49.4129 7.77459C49.5887 7.9504 49.6875 8.18886 49.6875 8.4375V28.125H42.0187C42.1279 27.8244 42.185 27.5073 42.1875 27.1875V4.6875C42.1853 3.94226 41.8882 3.22819 41.3613 2.70122C40.8343 2.17426 40.1202 1.87723 39.375 1.875H20.625C19.8798 1.87723 19.1657 2.17426 18.6387 2.70122C18.1118 3.22819 17.8147 3.94226 17.8125 4.6875V27.1875C17.815 27.5073 17.8721 27.8244 17.9813 28.125H10.3125V8.4375C10.3125 8.18886 10.4113 7.9504 10.5871 7.77459C10.7629 7.59877 11.0014 7.5 11.25 7.5H15.9375V5.625H11.25C10.5048 5.62723 9.79068 5.92426 9.26372 6.45122C8.73676 6.97819 8.43973 7.69226 8.4375 8.4375V32.8125C8.43973 33.5577 8.73676 34.2718 9.26372 34.7988C9.79068 35.3257 10.5048 35.6228 11.25 35.625H15.9375V37.5C15.9375 37.7486 15.8387 37.9871 15.6629 38.1629C15.4871 38.3387 15.2486 38.4375 15 38.4375H9.375C8.62908 38.4375 7.91371 38.7338 7.38626 39.2613C6.85882 39.7887 6.5625 40.5041 6.5625 41.25C6.5625 41.9959 6.85882 42.7113 7.38626 43.2387C7.91371 43.7662 8.62908 44.0625 9.375 44.0625H15C15.2486 44.0625 15.4871 44.1613 15.6629 44.3371C15.8387 44.5129 15.9375 44.7514 15.9375 45V46.875H14.0625C13.814 46.8769 13.5756 46.9742 13.3969 47.1469L7.77187 52.7719C7.59919 52.9506 7.50185 53.189 7.5 53.4375V56.25C7.50148 56.7468 7.6995 57.2229 8.05081 57.5742C8.40212 57.9255 8.87818 58.1235 9.375 58.125H50.625C51.1218 58.1235 51.5979 57.9255 51.9492 57.5742C52.3005 57.2229 52.4985 56.7468 52.5 56.25V53.4375C52.4981 53.189 52.4008 52.9506 52.2281 52.7719ZM38.4375 41.25V43.125H21.5625V41.25H38.4375ZM26.25 39.375V35.625H33.75V39.375H26.25ZM19.6875 4.6875C19.6875 4.43886 19.7863 4.2004 19.9621 4.02459C20.1379 3.84877 20.3764 3.75 20.625 3.75H39.375C39.6236 3.75 39.8621 3.84877 40.0379 4.02459C40.2137 4.2004 40.3125 4.43886 40.3125 4.6875V27.1875C40.3125 27.4361 40.2137 27.6746 40.0379 27.8504C39.8621 28.0262 39.6236 28.125 39.375 28.125H20.625C20.3764 28.125 20.1379 28.0262 19.9621 27.8504C19.7863 27.6746 19.6875 27.4361 19.6875 27.1875V4.6875ZM11.25 33.75C11.0014 33.75 10.7629 33.6512 10.5871 33.4754C10.4113 33.2996 10.3125 33.0611 10.3125 32.8125V30H49.6875V32.8125C49.6875 33.0611 49.5887 33.2996 49.4129 33.4754C49.2371 33.6512 48.9986 33.75 48.75 33.75H11.25ZM14.4469 48.75H45.5531L49.3031 52.5H10.6969L14.4469 48.75ZM50.625 56.25H9.375V54.375H50.625V56.25Z" fill="#0ACAA0"/>
<path d="M15 49.6875H16.875V51.5625H15V49.6875Z" fill="#0ACAA0"/>
<path d="M18.75 49.6875H20.625V51.5625H18.75V49.6875Z" fill="#0ACAA0"/>
<path d="M39.375 49.6875H41.25V51.5625H39.375V49.6875Z" fill="#0ACAA0"/>
<path d="M22.5 49.6875H37.5V51.5625H22.5V49.6875Z" fill="#0ACAA0"/>
<path d="M43.125 49.6875H45V51.5625H43.125V49.6875Z" fill="#0ACAA0"/>
<path d="M44.0625 30.9375H45.9375V32.8125H44.0625V30.9375Z" fill="#0ACAA0"/>
<path d="M36.5623 12.1876C36.5652 11.1309 36.3128 10.0891 35.8266 9.15079C35.3405 8.21252 34.6349 7.40553 33.77 6.79844C32.905 6.19136 31.9062 5.80213 30.8586 5.66385C29.8109 5.52557 28.7454 5.64234 27.7525 6.00422C26.7597 6.3661 25.8689 6.9624 25.156 7.7424C24.443 8.5224 23.929 9.46304 23.6575 10.4843C23.3861 11.5056 23.3653 12.5774 23.597 13.6084C23.8286 14.6394 24.3058 15.5993 24.988 16.4063C24.1984 17.025 23.4886 17.7392 22.8749 18.5326C22.6902 18.8527 22.5704 19.206 22.5222 19.5724C22.4741 19.9388 22.4987 20.3111 22.5944 20.668C22.7878 21.3889 23.2596 22.0034 23.9061 22.3763C24.2262 22.561 24.5795 22.6808 24.9459 22.729C25.3123 22.7771 25.6846 22.7525 26.0416 22.6568C26.7624 22.4634 27.3769 21.9916 27.7498 21.3451C28.117 20.457 28.3724 19.5268 28.5102 18.5757C29.4727 18.8021 30.474 18.8077 31.439 18.592C32.4041 18.3764 33.3078 17.9451 34.0824 17.3306C34.857 16.716 35.4826 15.9341 35.912 15.0434C36.3415 14.1527 36.5638 13.1764 36.5623 12.1876ZM26.1242 20.4076C25.999 20.6212 25.7944 20.7765 25.5551 20.8398C25.3157 20.9031 25.0611 20.8691 24.8467 20.7454C24.6323 20.6216 24.4756 20.418 24.4107 20.1791C24.3458 19.9402 24.3781 19.6853 24.5005 19.4701C25.2078 18.6779 25.9881 17.9541 26.8311 17.3082C26.6928 18.3612 26.4562 19.3988 26.1242 20.4076ZM28.5936 14.2557C28.4323 14.1626 28.2469 14.1196 28.061 14.1323C27.8752 14.145 27.6973 14.2128 27.5502 14.327C27.2998 14.521 26.8939 14.837 26.4252 15.2138C25.6645 14.3388 25.2432 13.2198 25.238 12.0604C25.2329 10.9009 25.6441 9.77817 26.397 8.8964C27.1499 8.01464 28.1943 7.43249 29.3402 7.25587C30.4861 7.07926 31.6573 7.31994 32.6408 7.9341C33.6242 8.54826 34.3544 9.49508 34.6986 10.6023C35.0428 11.7095 34.978 12.9034 34.516 13.9669C34.0541 15.0303 33.2257 15.8926 32.1816 16.3967C31.1375 16.9009 29.9471 17.0134 28.827 16.7138C28.9264 16.0773 29.0052 15.5288 29.0502 15.197C29.0762 15.0125 29.0467 14.8244 28.9654 14.6567C28.8841 14.4891 28.7546 14.3495 28.5936 14.2557Z" fill="#0ACAA0"/>
<path d="M36.5625 5.625H38.4375V7.5H36.5625V5.625Z" fill="#0ACAA0"/>
<path d="M21.5625 5.625H23.4375V7.5H21.5625V5.625Z" fill="#0ACAA0"/>
<path d="M32.8125 20.625H38.4375V22.5H32.8125V20.625Z" fill="#0ACAA0"/>
<path d="M32.8125 24.375H38.4375V26.25H32.8125V24.375Z" fill="#0ACAA0"/>
<path d="M29.0625 11.25H30.9375V13.125H29.0625V11.25Z" fill="#0ACAA0"/>
</svg>
