<svg width="60" height="60" viewBox="0 0 60 60" fill="none" xmlns="http://www.w3.org/2000/svg">
<path d="M59 55V58C59 58.2652 58.8946 58.5196 58.7071 58.7071C58.5196 58.8946 58.2652 59 58 59H2C1.73478 59 1.48043 58.8946 1.29289 58.7071C1.10536 58.5196 1 58.2652 1 58V55H59Z" fill="#A9E4D8" fill-opacity="0.4"/>
<path d="M52.68 47.92C52.8674 48.1062 53.1208 48.2108 53.385 48.2108C53.6492 48.2108 53.9026 48.1062 54.09 47.92L55 47.01L59 55H38L36 51H24L22 55H1L7 43H47.76L52.68 47.92Z" fill="#A9E4D8" fill-opacity="0.4"/>
<path d="M56.9198 43.6799L52.9998 39.7599L50.5598 37.3199L46.3198 41.5599L47.7598 42.9999L52.6798 47.9199C52.8672 48.1062 53.1206 48.2107 53.3848 48.2107C53.649 48.2107 53.9025 48.1062 54.0898 47.9199L54.9998 47.0099L56.9198 45.0899C57.1061 44.9026 57.2106 44.6491 57.2106 44.3849C57.2106 44.1208 57.1061 43.8673 56.9198 43.6799Z" fill="#A9E4D8" fill-opacity="0.4"/>
<path d="M47.02 35.19L45 33.17L44.07 32.24L44.06 32.23C43.3052 33.3447 42.3447 34.3052 41.23 35.06L41.24 35.07L43.16 36.99L44.19 38.02L44.2 38.03L47.03 35.2L47.02 35.19Z" fill="#A9E4D8" fill-opacity="0.4"/>
<path d="M40 9C39.7348 9 39.4804 8.89464 39.2929 8.70711C39.1054 8.51957 39 8.26522 39 8V1H17C16.4701 1.00158 15.9623 1.2128 15.5875 1.58753C15.2128 1.96227 15.0016 2.47005 15 3V35C15.0016 35.5299 15.2128 36.0377 15.5875 36.4125C15.9623 36.7872 16.4701 36.9984 17 37H35C33.0233 37.0019 31.0825 36.4714 29.3816 35.4642C27.6807 34.4569 26.2825 33.0102 25.3338 31.276C24.3851 29.5418 23.921 27.5841 23.9902 25.6085C24.0595 23.633 24.6595 21.7126 25.7272 20.049C26.795 18.3855 28.2911 17.0402 30.0583 16.1545C31.8255 15.2689 33.7987 14.8755 35.7704 15.0157C37.7422 15.156 39.6398 15.8247 41.2638 16.9516C42.8879 18.0785 44.1785 19.6221 45 21.42V9H40Z" fill="#A9E4D8" fill-opacity="0.4"/>
<path d="M59.894 54.552L56.218 47.209L57.627 45.799C58.0019 45.4239 58.2126 44.9153 58.2126 44.385C58.2126 43.8547 58.0019 43.3461 57.627 42.971L54 39.343V11C54 10.2044 53.6839 9.44129 53.1213 8.87868C52.5587 8.31607 51.7957 8 51 8H45.5L39.8 0.4C39.7069 0.275804 39.5861 0.175 39.4472 0.105573C39.3084 0.036145 39.1552 0 39 0H17C16.2044 0 15.4413 0.316071 14.8787 0.87868C14.3161 1.44129 14 2.20435 14 3V8H9C8.20435 8 7.44129 8.31607 6.87868 8.87868C6.31607 9.44129 6 10.2044 6 11V42.764L0.105 54.553C0.0358033 54.6918 -0.000144297 54.8449 4.3531e-07 55V58C4.3531e-07 58.5304 0.210714 59.0391 0.585787 59.4142C0.96086 59.7893 1.46957 60 2 60H58C58.5304 60 59.0391 59.7893 59.4142 59.4142C59.7893 59.0391 60 58.5304 60 58V55C60 54.8445 59.9637 54.6911 59.894 54.552ZM38.618 54L36.9 50.553C36.8166 50.386 36.688 50.2457 36.529 50.148C36.3699 50.0502 36.1867 49.999 36 50H24C23.8142 49.9999 23.632 50.0516 23.4739 50.1493C23.3158 50.247 23.1881 50.3868 23.105 50.553L21.382 54H2.618L7.618 44H47.343L51.971 48.627C52.3331 48.9903 52.8215 49.1997 53.3343 49.2115C53.8472 49.2232 54.3447 49.0364 54.723 48.69L57.381 54H38.618ZM36.382 54H23.618L24.618 52H35.382L36.382 54ZM27.929 33.071C26.5305 31.6725 25.578 29.8907 25.1922 27.9508C24.8063 26.011 25.0043 24.0003 25.7612 22.1731C26.5181 20.3458 27.7998 18.784 29.4443 17.6852C31.0888 16.5864 33.0222 15.9999 35 15.9999C36.9778 15.9999 38.9112 16.5864 40.5557 17.6852C42.2002 18.784 43.4819 20.3458 44.2388 22.1731C44.9957 24.0003 45.1937 26.011 44.8078 27.9508C44.422 29.8907 43.4695 31.6725 42.071 33.071C40.1942 34.9436 37.6512 35.9953 35 35.9953C32.3488 35.9953 29.8058 34.9436 27.929 33.071ZM40 4L43 8H40V4ZM43.485 34.485C43.724 34.247 43.942 33.996 44.157 33.742L45.607 35.192L44.192 36.607L42.742 35.157C43 34.942 43.247 34.724 43.485 34.485ZM47.728 35.9L49.142 37.314L46.313 40.143L44.9 38.728L47.728 35.9ZM53.385 47.214L47.728 41.557L50.556 38.728L56.214 44.385L53.385 47.214ZM52 11V37.343L48.435 33.778C48.2475 33.5905 47.9932 33.4852 47.728 33.4852C47.4628 33.4852 47.2085 33.5905 47.021 33.778L45.327 32.085C46.2834 30.4555 46.8427 28.6237 46.9596 26.7379C47.0765 24.852 46.7478 22.9652 46 21.23V10H51C51.2652 10 51.5196 10.1054 51.7071 10.2929C51.8946 10.4804 52 10.7348 52 11ZM16 3C16 2.73478 16.1054 2.48043 16.2929 2.29289C16.4804 2.10536 16.7348 2 17 2H38V8C38 8.53043 38.2107 9.03914 38.5858 9.41421C38.9609 9.78929 39.4696 10 40 10H44V18.084C43.831 17.893 43.668 17.698 43.485 17.515C42.2995 16.3289 40.8785 15.4045 39.3137 14.8014C37.7489 14.1982 36.0751 13.9298 34.4002 14.0133C32.7253 14.0968 31.0865 14.5305 29.5895 15.2863C28.0925 16.0421 26.7705 17.1033 25.7089 18.4014C24.6472 19.6995 23.8694 21.2057 23.4256 22.8229C22.9818 24.4402 22.882 26.1324 23.1324 27.7906C23.3829 29.4488 23.9781 31.036 24.8797 32.45C25.7813 33.864 26.9693 35.0733 28.367 36H17C16.7348 36 16.4804 35.8946 16.2929 35.7071C16.1054 35.5196 16 35.2652 16 35V3ZM8 11C8 10.7348 8.10536 10.4804 8.29289 10.2929C8.48043 10.1054 8.73478 10 9 10H14V35C14 35.7957 14.3161 36.5587 14.8787 37.1213C15.4413 37.6839 16.2044 38 17 38H35V37.994C37.1407 37.991 39.2417 37.4155 41.085 36.327L42.778 38.021C42.5905 38.2085 42.4852 38.4628 42.4852 38.728C42.4852 38.9932 42.5905 39.2475 42.778 39.435L45.343 42H8V11ZM2 58V56H58V58H2Z" fill="#0ACAA0"/>
<path d="M8 50H10V52H8V50Z" fill="#0ACAA0"/>
<path d="M12 50H14V52H12V50Z" fill="#0ACAA0"/>
<path d="M46 50H48V52H46V50Z" fill="#0ACAA0"/>
<path d="M50 50H52V52H50V50Z" fill="#0ACAA0"/>
<path d="M13 46H15V48H13V46Z" fill="#0ACAA0"/>
<path d="M9 46H11V48H9V46Z" fill="#0ACAA0"/>
<path d="M17 46H19V48H17V46Z" fill="#0ACAA0"/>
<path d="M21 46H23V48H21V46Z" fill="#0ACAA0"/>
<path d="M25 46H27V48H25V46Z" fill="#0ACAA0"/>
<path d="M29 46H31V48H29V46Z" fill="#0ACAA0"/>
<path d="M33 46H35V48H33V46Z" fill="#0ACAA0"/>
<path d="M37 46H39V48H37V46Z" fill="#0ACAA0"/>
<path d="M41 46H43V48H41V46Z" fill="#0ACAA0"/>
<path d="M45 46H47V48H45V46Z" fill="#0ACAA0"/>
<path d="M16 50H20V52H16V50Z" fill="#0ACAA0"/>
<path d="M40 50H44V52H40V50Z" fill="#0ACAA0"/>
<path d="M40.657 20.3429C39.3483 19.0342 37.6263 18.2197 35.7844 18.0382C33.9424 17.8567 32.0946 18.3195 30.5556 19.3478C29.0167 20.376 27.8819 21.906 27.3445 23.6771C26.8072 25.4483 26.9006 27.3509 27.6089 29.0609C28.3171 30.7709 29.5963 32.1824 31.2286 33.0549C32.8609 33.9274 34.7452 34.207 36.5605 33.846C38.3758 33.485 40.0097 32.5057 41.1839 31.075C42.3581 29.6443 42.9999 27.8508 43 25.9999C43.0029 24.9489 42.7973 23.9078 42.3951 22.9368C41.993 21.9657 41.4022 21.0841 40.657 20.3429ZM39.243 30.2429C38.2615 31.2246 36.9701 31.8355 35.5886 31.9717C34.2072 32.1079 32.8213 31.7609 31.6671 30.9898C30.5128 30.2187 29.6616 29.0712 29.2585 27.7429C28.8555 26.4146 28.9254 24.9876 29.4565 23.7051C29.9876 22.4226 30.9469 21.3639 32.1711 20.7094C33.3952 20.0549 34.8084 19.8452 36.1699 20.1158C37.5314 20.3865 38.7569 21.1208 39.6376 22.1938C40.5184 23.2667 40.9998 24.6118 41 25.9999C41.0021 26.7882 40.8479 27.5691 40.5464 28.2974C40.2448 29.0257 39.8018 29.6869 39.243 30.2429Z" fill="#0ACAA0"/>
<path d="M20 9H28V11H20V9Z" fill="#0ACAA0"/>
<path d="M20 6H24V8H20V6Z" fill="#0ACAA0"/>
<path d="M26 6H28V8H26V6Z" fill="#0ACAA0"/>
<path d="M20 14H26V16H20V14Z" fill="#0ACAA0"/>
<path d="M20 18H22V20H20V18Z" fill="#0ACAA0"/>
</svg>
