<svg width="60" height="60" viewBox="0 0 60 60" fill="none" xmlns="http://www.w3.org/2000/svg">
<path d="M49.6875 38.4375V42.1875C49.6875 43.1821 49.2924 44.1359 48.5891 44.8391C47.8859 45.5424 46.9321 45.9375 45.9375 45.9375H6.5625C5.56794 45.9375 4.61411 45.5424 3.91085 44.8391C3.20759 44.1359 2.8125 43.1821 2.8125 42.1875V38.4375H49.6875Z" fill="#A9E4D8" fill-opacity="0.4"/>
<path d="M57.1875 18.75V15L54.075 14.5594C53.8553 13.6954 53.5111 12.868 53.0531 12.1031L54.9469 9.58125L52.2937 6.92812L49.7719 8.82187C49.007 8.36389 48.1796 8.01965 47.3156 7.8L46.875 4.6875H43.125L42.6844 7.8C41.8204 8.01965 40.993 8.36389 40.2281 8.82187L37.7063 6.92812L35.0531 9.58125L36.9469 12.1031C36.9277 12.1291 36.912 12.1575 36.9 12.1875C36.4614 12.9265 36.133 13.7256 35.925 14.5594L32.8125 15V18.75L35.925 19.1906C36.1447 20.0546 36.4889 20.882 36.9469 21.6469L35.0531 24.1688L37.7063 26.8219L40.2281 24.9281C40.993 25.3861 41.8204 25.7303 42.6844 25.95L43.125 29.0625H46.875L47.3156 25.95C48.1494 25.742 48.9485 25.4136 49.6875 24.975C49.7175 24.963 49.7459 24.9473 49.7719 24.9281L52.2937 26.8219L54.9469 24.1688L53.0531 21.6469C53.5111 20.882 53.8553 20.0546 54.075 19.1906L57.1875 18.75ZM45 21.5625C44.0729 21.5625 43.1666 21.2876 42.3958 20.7725C41.6249 20.2574 41.0241 19.5254 40.6693 18.6688C40.3145 17.8123 40.2217 16.8698 40.4026 15.9605C40.5834 15.0512 41.0299 14.216 41.6854 13.5604C42.341 12.9049 43.1762 12.4584 44.0855 12.2776C44.9948 12.0967 45.9373 12.1895 46.7938 12.5443C47.6504 12.8991 48.3824 13.4999 48.8975 14.2708C49.4126 15.0416 49.6875 15.9479 49.6875 16.875C49.6875 17.4906 49.5663 18.1001 49.3307 18.6688C49.0951 19.2375 48.7498 19.7543 48.3146 20.1896C47.8793 20.6248 47.3625 20.9701 46.7938 21.2057C46.2251 21.4413 45.6156 21.5625 45 21.5625Z" fill="#A9E4D8" fill-opacity="0.4"/>
<path d="M36.9469 53.9907C37.1231 54.1625 37.2629 54.3682 37.358 54.5953C37.453 54.8224 37.5013 55.0663 37.5 55.3125C37.4985 55.8094 37.3005 56.2854 36.9492 56.6367C36.5979 56.988 36.1218 57.186 35.625 57.1875H16.875C16.3789 57.1839 15.9041 56.9851 15.5532 56.6343C15.2024 56.2835 15.0037 55.8087 15 55.3125C15.0015 54.8157 15.1995 54.3397 15.5508 53.9883C15.9021 53.637 16.3782 53.439 16.875 53.4375H35.625C35.8712 53.4362 36.1151 53.4845 36.3422 53.5796C36.5693 53.6746 36.775 53.8144 36.9469 53.9907Z" fill="#A9E4D8" fill-opacity="0.4"/>
<path d="M32.8125 45.9375L33.75 53.4375H18.75L19.6875 45.9375H32.8125Z" fill="#A9E4D8" fill-opacity="0.4"/>
<path d="M29.0625 34.5937V38.4375H20.625L18.9187 30.7687L19.6875 30L22.5 30.9375L23.1562 28.3125L25.725 29.4562C26.7183 29.8984 27.5622 30.619 28.1545 31.5308C28.7468 32.4425 29.0622 33.5065 29.0625 34.5937Z" fill="#A9E4D8" fill-opacity="0.4"/>
<path d="M25.6969 10.8657C25.525 10.6894 25.3193 10.5496 25.0922 10.4546C24.8651 10.3595 24.6212 10.3112 24.375 10.3125H11.25C10.7532 10.314 10.2771 10.512 9.92581 10.8633C9.5745 11.2146 9.37648 11.6907 9.375 12.1875C9.37868 12.6837 9.57741 13.1584 9.92824 13.5093C10.2791 13.8601 10.7539 14.0588 11.25 14.0625H24.375C24.8718 14.061 25.3479 13.863 25.6992 13.5117C26.0505 13.1604 26.2485 12.6844 26.25 12.1875C26.2513 11.9413 26.203 11.6974 26.108 11.4703C26.0129 11.2432 25.8731 11.0375 25.6969 10.8657Z" fill="#A9E4D8" fill-opacity="0.4"/>
<path d="M24.375 10.3125H19.6875V4.77185C20.8413 4.95578 21.9058 5.50447 22.725 6.33748C23.2498 6.85757 23.666 7.47684 23.9492 8.15925C24.2325 8.84167 24.3772 9.57361 24.375 10.3125Z" fill="#A9E4D8" fill-opacity="0.4"/>
<path d="M23.1562 28.3125L22.5 30.9375L19.6875 30L18.75 28.125L20.625 27.1875L23.1562 28.3125Z" fill="#A9E4D8" fill-opacity="0.4"/>
<path d="M18.9188 30.7687L20.625 38.4374H15L16.7062 30.7687L17.8125 31.8749L18.9188 30.7687Z" fill="#A9E4D8" fill-opacity="0.4"/>
<path d="M19.6875 4.77188V10.3125H15.9375V3.75C15.9375 3.50136 16.0363 3.2629 16.2121 3.08709C16.3879 2.91127 16.6264 2.8125 16.875 2.8125H18.75C18.9986 2.8125 19.2371 2.91127 19.4129 3.08709C19.5887 3.2629 19.6875 3.50136 19.6875 3.75V4.77188Z" fill="#A9E4D8" fill-opacity="0.4"/>
<path d="M18.75 28.125L19.6875 30L18.9188 30.7687L17.8125 31.875L16.7062 30.7687L15.9375 30L16.875 28.125H18.75Z" fill="#A9E4D8" fill-opacity="0.4"/>
<path d="M16.875 28.125L15.9375 30L13.125 30.9375L12.4688 28.3125L15 27.1875L16.875 28.125Z" fill="#A9E4D8" fill-opacity="0.4"/>
<path d="M16.7062 30.7687L15 38.4375H6.5625V34.5937C6.56276 33.5065 6.87814 32.4425 7.47047 31.5308C8.06279 30.619 8.90668 29.8984 9.9 29.4562L12.4688 28.3125L13.125 30.9375L15.9375 30L16.7062 30.7687Z" fill="#A9E4D8" fill-opacity="0.4"/>
<path d="M15.9375 4.77185V10.3125H11.25C11.2495 8.98364 11.7202 7.69768 12.5785 6.6832C13.4367 5.66873 14.6269 4.99147 15.9375 4.77185Z" fill="#A9E4D8" fill-opacity="0.4"/>
<path d="M29.0625 11.25H33.75V13.125H29.0625V11.25Z" fill="#0ACAA0"/>
<path d="M48.75 28.125V37.5H30V34.5938C29.9994 33.3261 29.6316 32.0858 28.9412 31.0227C28.2507 29.9596 27.2672 29.1192 26.1094 28.6031L21.5625 26.5781V25.2375C22.4216 24.7371 23.1736 24.0722 23.7753 23.2807C24.3769 22.4892 24.8165 21.5867 25.0688 20.625H25.3125C26.0584 20.625 26.7738 20.3287 27.3012 19.8012C27.8287 19.2738 28.125 18.5584 28.125 17.8125C28.125 17.0666 27.8287 16.3512 27.3012 15.8238C26.7738 15.2963 26.0584 15 25.3125 15V14.8312C25.8644 14.6387 26.3421 14.2781 26.6785 13.8C27.0148 13.322 27.193 12.7505 27.1878 12.166C27.1826 11.5815 26.9944 11.0133 26.6496 10.5413C26.3049 10.0692 25.8209 9.71712 25.2656 9.53438C25.0941 8.075 24.4331 6.71679 23.3906 5.68125C22.6252 4.90557 21.6727 4.34048 20.625 4.04062V3.75C20.6235 3.25318 20.4255 2.77712 20.0742 2.42581C19.7229 2.0745 19.2468 1.87648 18.75 1.875H16.875C16.3782 1.87648 15.9021 2.0745 15.5508 2.42581C15.1995 2.77712 15.0015 3.25318 15 3.75V4.03125C13.772 4.39225 12.6773 5.10646 11.8521 6.08496C11.027 7.06347 10.5079 8.26305 10.3594 9.53438C9.80414 9.71712 9.32013 10.0692 8.97536 10.5413C8.63059 11.0133 8.44239 11.5815 8.43722 12.166C8.43205 12.7505 8.61016 13.322 8.94652 13.8C9.28288 14.2781 9.76059 14.6387 10.3125 14.8312V15C9.56658 15 8.85121 15.2963 8.32376 15.8238C7.79632 16.3512 7.5 17.0666 7.5 17.8125C7.5 18.5584 7.79632 19.2738 8.32376 19.8012C8.85121 20.3287 9.56658 20.625 10.3125 20.625H10.5563C10.8085 21.5867 11.2481 22.4892 11.8497 23.2807C12.4514 24.0722 13.2034 24.7371 14.0625 25.2375V26.5781L9.51562 28.6031C8.35782 29.1192 7.37427 29.9596 6.68384 31.0227C5.9934 32.0858 5.62564 33.3261 5.625 34.5938V37.5H3.75V15.9375C3.75223 15.1923 4.04926 14.4782 4.57622 13.9512C5.10319 13.4243 5.81726 13.1272 6.5625 13.125V11.25C5.3193 11.25 4.12701 11.7439 3.24794 12.6229C2.36886 13.502 1.875 14.6943 1.875 15.9375V42.1875C1.875 43.4307 2.36886 44.623 3.24794 45.5021C4.12701 46.3811 5.3193 46.875 6.5625 46.875H18.6281L17.925 52.5H16.875C16.1291 52.5 15.4137 52.7963 14.8863 53.3238C14.3588 53.8512 14.0625 54.5666 14.0625 55.3125C14.0625 56.0584 14.3588 56.7738 14.8863 57.3012C15.4137 57.8287 16.1291 58.125 16.875 58.125H35.625C36.3709 58.125 37.0863 57.8287 37.6137 57.3012C38.1412 56.7738 38.4375 56.0584 38.4375 55.3125C38.4375 54.5666 38.1412 53.8512 37.6137 53.3238C37.0863 52.7963 36.3709 52.5 35.625 52.5H34.575L33.8719 46.875H45.9375C47.1807 46.875 48.373 46.3811 49.2521 45.5021C50.1311 44.623 50.625 43.4307 50.625 42.1875V28.125H48.75ZM10.3125 18.75C10.0639 18.75 9.8254 18.6512 9.64959 18.4754C9.47377 18.2996 9.375 18.0611 9.375 17.8125C9.375 17.5639 9.47377 17.3254 9.64959 17.1496C9.8254 16.9738 10.0639 16.875 10.3125 16.875V18.75ZM22.5 31.875C22.6571 31.8758 22.8118 31.8371 22.95 31.7625C23.0634 31.6991 23.1627 31.6131 23.2417 31.51C23.3207 31.4068 23.3777 31.2885 23.4094 31.1625L23.7937 29.625L25.3406 30.3094C26.1695 30.6776 26.8737 31.2784 27.3679 32.0388C27.8621 32.7993 28.1251 33.6868 28.125 34.5938V37.5H21.375L19.95 31.0781L22.2 31.8281C22.2974 31.8574 22.3983 31.8732 22.5 31.875ZM22.0594 28.8469L21.8344 29.7281L20.3531 29.2313L20.0063 28.5469L20.6531 28.2281L22.0594 28.8469ZM26.25 17.8125C26.25 18.0611 26.1512 18.2996 25.9754 18.4754C25.7996 18.6512 25.5611 18.75 25.3125 18.75V16.875C25.5611 16.875 25.7996 16.9738 25.9754 17.1496C26.1512 17.3254 26.25 17.5639 26.25 17.8125ZM20.625 6.02812C21.1618 6.26208 21.6512 6.59255 22.0688 7.00312C22.7205 7.64909 23.1645 8.47502 23.3438 9.375H20.625V6.02812ZM16.875 3.75H18.75V9.375H16.875V3.75ZM15 6.02812V9.375H12.2812C12.4306 8.6391 12.7559 7.95029 13.2293 7.36745C13.7028 6.78462 14.3103 6.32508 15 6.02812ZM10.3125 12.1875C10.3125 11.9389 10.4113 11.7004 10.5871 11.5246C10.7629 11.3488 11.0014 11.25 11.25 11.25H24.375C24.6236 11.25 24.8621 11.3488 25.0379 11.5246C25.2137 11.7004 25.3125 11.9389 25.3125 12.1875C25.3125 12.4361 25.2137 12.6746 25.0379 12.8504C24.8621 13.0262 24.6236 13.125 24.375 13.125H11.25C11.0014 13.125 10.7629 13.0262 10.5871 12.8504C10.4113 12.6746 10.3125 12.4361 10.3125 12.1875ZM12.1875 18.75V15H23.4375V18.75C23.4375 20.2418 22.8449 21.6726 21.79 22.7275C20.7351 23.7824 19.3043 24.375 17.8125 24.375C16.3207 24.375 14.8899 23.7824 13.835 22.7275C12.7801 21.6726 12.1875 20.2418 12.1875 18.75ZM17.2594 32.6062C17.4129 32.7395 17.6093 32.8128 17.8125 32.8128C18.0157 32.8128 18.2121 32.7395 18.3656 32.6062L19.4531 37.5H16.1719L17.2594 32.6062ZM17.0812 29.8125L17.4563 29.0625H18.1687L18.5438 29.8125L17.8125 30.5531L17.0812 29.8125ZM18.525 27.1875H17.1L15.9375 26.6062V26.0063C17.1664 26.3313 18.4586 26.3313 19.6875 26.0063V26.6062L18.525 27.1875ZM14.9719 28.2281L15.6187 28.5469L15.2719 29.2313L13.7906 29.7281L13.5656 28.8469L14.9719 28.2281ZM7.5 34.5938C7.49989 33.6868 7.76288 32.7993 8.2571 32.0388C8.75132 31.2784 9.45554 30.6776 10.2844 30.3094L11.8313 29.625L12.2156 31.1625C12.2473 31.2885 12.3043 31.4068 12.3833 31.51C12.4623 31.6131 12.5616 31.6991 12.675 31.7625C12.8132 31.8371 12.9679 31.8758 13.125 31.875C13.2267 31.8732 13.3276 31.8574 13.425 31.8281L15.675 31.0781L14.25 37.5H7.5V34.5938ZM35.625 54.375C35.8736 54.375 36.1121 54.4738 36.2879 54.6496C36.4637 54.8254 36.5625 55.0639 36.5625 55.3125C36.5625 55.5611 36.4637 55.7996 36.2879 55.9754C36.1121 56.1512 35.8736 56.25 35.625 56.25H16.875C16.6264 56.25 16.3879 56.1512 16.2121 55.9754C16.0363 55.7996 15.9375 55.5611 15.9375 55.3125C15.9375 55.0639 16.0363 54.8254 16.2121 54.6496C16.3879 54.4738 16.6264 54.375 16.875 54.375H35.625ZM19.8094 52.5L20.5125 46.875H31.9875L32.6906 52.5H19.8094ZM48.75 42.1875C48.7478 42.9327 48.4507 43.6468 47.9238 44.1738C47.3968 44.7007 46.6827 44.9978 45.9375 45H6.5625C5.81726 44.9978 5.10319 44.7007 4.57622 44.1738C4.04926 43.6468 3.75223 42.9327 3.75 42.1875V39.375H48.75V42.1875Z" fill="#0ACAA0"/>
<path d="M43.125 41.25H45V43.125H43.125V41.25Z" fill="#0ACAA0"/>
<path d="M14.0625 16.875H15.9375V18.75H14.0625V16.875Z" fill="#0ACAA0"/>
<path d="M19.6875 16.875H21.5625V18.75H19.6875V16.875Z" fill="#0ACAA0"/>
<path d="M57.3206 14.0719L54.8062 13.7128C54.6363 13.1841 54.4234 12.6702 54.1697 12.1762L55.6931 10.1456C55.8285 9.96508 55.8942 9.74178 55.8782 9.5167C55.8622 9.29162 55.7655 9.07987 55.6059 8.92031L52.9547 6.26906C52.7952 6.10975 52.5836 6.01324 52.3588 5.99723C52.1339 5.98122 51.9108 6.04677 51.7303 6.18187L49.6988 7.70438C49.2048 7.45094 48.6909 7.23835 48.1622 7.06875L47.8031 4.55437C47.7711 4.33106 47.6596 4.12679 47.4891 3.97904C47.3186 3.83129 47.1006 3.74997 46.875 3.75H43.125C42.8994 3.74997 42.6814 3.83129 42.5109 3.97904C42.3404 4.12679 42.2289 4.33106 42.1969 4.55437L41.8378 7.06875C41.3091 7.23835 40.7952 7.45094 40.3012 7.70438L38.2697 6.18187C38.0892 6.04677 37.8661 5.98122 37.6412 5.99723C37.4164 6.01324 37.2048 6.10975 37.0453 6.26906L34.3941 8.92031C34.2345 9.07987 34.1378 9.29162 34.1218 9.5167C34.1058 9.74178 34.1715 9.96508 34.3069 10.1456L35.8303 12.1762C35.5766 12.6702 35.3637 13.1841 35.1938 13.7128L32.6794 14.0719C32.4561 14.1039 32.2518 14.2154 32.104 14.3859C31.9563 14.5564 31.875 14.7744 31.875 15V18.75C31.875 18.9756 31.9563 19.1936 32.104 19.3641C32.2518 19.5346 32.4561 19.6461 32.6794 19.6781L35.1938 20.0372C35.3637 20.5659 35.5766 21.0798 35.8303 21.5737L34.3069 23.6044C34.1715 23.7849 34.1058 24.0082 34.1218 24.2333C34.1378 24.4584 34.2345 24.6701 34.3941 24.8297L37.0453 27.4809C37.2048 27.6403 37.4164 27.7368 37.6412 27.7528C37.8661 27.7688 38.0892 27.7032 38.2697 27.5681L40.3012 26.0456C40.7952 26.2991 41.3091 26.5116 41.8378 26.6812L42.1969 29.1956C42.2289 29.4189 42.3404 29.6232 42.5109 29.771C42.6814 29.9187 42.8994 30 43.125 30H46.875C47.1006 30 47.3186 29.9187 47.4891 29.771C47.6596 29.6232 47.7711 29.4189 47.8031 29.1956L48.1622 26.6812C48.6909 26.5116 49.2048 26.2991 49.6988 26.0456L51.7303 27.5681C51.9108 27.7032 52.1339 27.7688 52.3588 27.7528C52.5836 27.7368 52.7952 27.6403 52.9547 27.4809L55.6059 24.8297C55.7655 24.6701 55.8622 24.4584 55.8782 24.2333C55.8942 24.0082 55.8285 23.7849 55.6931 23.6044L54.1697 21.5737C54.4234 21.0798 54.6363 20.5659 54.8062 20.0372L57.3206 19.6781C57.5439 19.6461 57.7482 19.5346 57.896 19.3641C58.0437 19.1936 58.125 18.9756 58.125 18.75V15C58.125 14.7744 58.0437 14.5564 57.896 14.3859C57.7482 14.2154 57.5439 14.1039 57.3206 14.0719ZM56.25 17.9372L53.9409 18.2672C53.7574 18.2935 53.5858 18.3736 53.4478 18.4974C53.3098 18.6212 53.2116 18.7832 53.1656 18.9628C52.9677 19.7394 52.6593 20.4836 52.2497 21.1725C52.155 21.3323 52.1099 21.5165 52.12 21.702C52.1302 21.8874 52.1952 22.0656 52.3069 22.2141L53.7056 24.0797L52.2056 25.5797L50.3391 24.1809C50.1906 24.0697 50.0125 24.0049 49.8273 23.9949C49.642 23.9849 49.458 24.0301 49.2984 24.1247C48.6101 24.5343 47.8662 24.8422 47.0897 25.0387C46.9096 25.0845 46.7471 25.1826 46.6229 25.3209C46.4988 25.4591 46.4184 25.6311 46.3922 25.815L46.0622 28.125H43.9378L43.6087 25.8159C43.5825 25.632 43.5022 25.46 43.378 25.3218C43.2538 25.1836 43.0913 25.0854 42.9112 25.0397C42.1348 24.8431 41.3908 24.5352 40.7025 24.1256C40.5429 24.031 40.3589 23.9858 40.1737 23.9958C39.9884 24.0058 39.8103 24.0706 39.6619 24.1819L37.7953 25.5806L36.2953 24.0806L37.6941 22.215C37.8057 22.0666 37.8707 21.8883 37.8809 21.7029C37.8911 21.5175 37.846 21.3332 37.7513 21.1734C37.3417 20.4846 37.0332 19.7404 36.8353 18.9638C36.7894 18.7841 36.6912 18.6222 36.5532 18.4984C36.4152 18.3745 36.2435 18.2944 36.06 18.2681L33.75 17.9372V15.8128L36.0591 15.4828C36.2426 15.4565 36.4142 15.3764 36.5522 15.2526C36.6902 15.1288 36.7884 14.9668 36.8344 14.7872C37.0323 14.0106 37.3407 13.2664 37.7503 12.5775C37.845 12.4177 37.8901 12.2335 37.88 12.048C37.8698 11.8626 37.8048 11.6844 37.6931 11.5359L36.2944 9.67031L37.7944 8.17031L39.6609 9.56906C39.8094 9.68035 39.9875 9.74509 40.1727 9.75511C40.358 9.76512 40.542 9.71995 40.7016 9.62531C41.3899 9.21571 42.1338 8.90784 42.9103 8.71125C43.0904 8.66555 43.2529 8.56736 43.3771 8.42915C43.5012 8.29094 43.5816 8.11894 43.6078 7.935L43.9378 5.625H46.0622L46.3913 7.93406C46.4175 8.11801 46.4978 8.29 46.622 8.42821C46.7462 8.56642 46.9087 8.66461 47.0888 8.71031C47.8652 8.9069 48.6092 9.21477 49.2975 9.62437C49.4571 9.71901 49.6411 9.76418 49.8263 9.75417C50.0116 9.74415 50.1897 9.67941 50.3381 9.56813L52.2047 8.16937L53.7047 9.66937L52.3059 11.535C52.1943 11.6834 52.1293 11.8617 52.1191 12.0471C52.1089 12.2325 52.154 12.4168 52.2487 12.5766C52.6583 13.2654 52.9668 14.0096 53.1647 14.7863C53.2106 14.9659 53.3088 15.1278 53.4468 15.2516C53.5848 15.3755 53.7565 15.4556 53.94 15.4819L56.25 15.8128V17.9372Z" fill="#0ACAA0"/>
<path d="M45 11.25C43.8875 11.25 42.7999 11.5799 41.8749 12.198C40.9499 12.8161 40.2289 13.6946 39.8032 14.7224C39.3774 15.7502 39.266 16.8812 39.4831 17.9724C39.7001 19.0635 40.2359 20.0658 41.0225 20.8525C41.8092 21.6391 42.8115 22.1749 43.9026 22.3919C44.9938 22.609 46.1248 22.4976 47.1526 22.0718C48.1804 21.6461 49.0589 20.9251 49.677 20.0001C50.2951 19.0751 50.625 17.9875 50.625 16.875C50.6235 15.3836 50.0304 13.9537 48.9758 12.8992C47.9213 11.8446 46.4914 11.2515 45 11.25ZM45 20.625C44.2583 20.625 43.5333 20.4051 42.9166 19.993C42.2999 19.581 41.8193 18.9953 41.5355 18.3101C41.2516 17.6248 41.1774 16.8708 41.3221 16.1434C41.4668 15.416 41.8239 14.7478 42.3484 14.2233C42.8728 13.6989 43.541 13.3417 44.2684 13.1971C44.9958 13.0524 45.7498 13.1266 46.4351 13.4105C47.1203 13.6943 47.706 14.1749 48.118 14.7916C48.5301 15.4083 48.75 16.1333 48.75 16.875C48.75 17.8696 48.3549 18.8234 47.6516 19.5266C46.9484 20.2299 45.9946 20.625 45 20.625Z" fill="#0ACAA0"/>
<path d="M33.75 30H41.25V31.875H33.75V30Z" fill="#0ACAA0"/>
<path d="M33.75 33.75H41.25V35.625H33.75V33.75Z" fill="#0ACAA0"/>
</svg>
