<svg width="60" height="60" viewBox="0 0 60 60" fill="none" xmlns="http://www.w3.org/2000/svg">
<g clip-path="url(#clip0)">
<path d="M21 33.0004C21 34.1048 20.1045 35.0004 19 35.0004C17.8955 35.0004 17 34.1048 17 33.0004C17 31.8954 17.8955 31.0004 19 31.0004C20.1045 31.0004 21 31.8954 21 33.0004Z" fill="#A9E4D8" fill-opacity="0.4"/>
<path d="M30 21.0005V24.0005C30 24.5527 29.5522 25.0005 29 25.0005H21C20.4478 25.0005 20 24.5527 20 24.0005V21.0005H30Z" fill="#A9E4D8" fill-opacity="0.4"/>
<path d="M48 45.0004V41.0004L45.6499 40.5302C45.4658 39.8666 45.2007 39.2284 44.8603 38.6302L46.1899 36.64L43.3603 33.8099L41.3701 35.14C40.7715 34.7997 40.1333 34.5345 39.4702 34.35L39 32.0004H35L34.5303 34.35C33.8667 34.5345 33.2285 34.7997 32.6304 35.14L30.6401 33.8099L27.8101 36.64L29.1401 38.6302C28.7998 39.2284 28.5342 39.8666 28.3501 40.5302L26 41.0004V45.0004L28.3501 45.4701C28.5342 46.1337 28.7998 46.7719 29.1401 47.37L27.8101 49.3602L30.6401 52.1903L32.6304 50.8602C33.2285 51.2006 33.8667 51.4662 34.5303 51.6503L35 54.0004H39L39.4702 51.6503C40.1333 51.4662 40.7715 51.2006 41.3701 50.8602L43.3603 52.1903L46.1899 49.3602L44.8603 47.37C45.2007 46.7719 45.4658 46.1337 45.6499 45.4701L48 45.0004ZM37 48.0004C34.2388 48.0004 32 45.7616 32 43.0004C32 40.2386 34.2388 38.0004 37 38.0004C39.7617 38.0004 42 40.2386 42 43.0004C42 45.7616 39.7617 48.0004 37 48.0004Z" fill="#A9E4D8" fill-opacity="0.4"/>
<path d="M44 5.00044C47.314 5.00044 50 7.68646 50 11.0004C54.9707 11.0004 59 15.0297 59 20.0004C59 24.9706 54.9707 29.0003 50 29.0003H37.0001V23.0004C36.9972 21.8968 36.1036 21.0033 35.0001 21.0004H15.0002C13.8972 21.0033 13.0036 21.8968 13.0002 23.0004V29.0003H8.00021C4.13451 29.0003 1.00024 25.8661 1.00024 22.0004C1.00024 18.1342 4.13451 15.0004 8.00021 15.0004C8.33517 15.0014 8.66964 15.0277 9.00021 15.08V15.0004C9.0007 12.6098 10.4201 10.4472 12.613 9.49602C14.8063 8.54486 17.3552 8.98675 19.1003 10.62C19.696 5.8686 23.3004 2.05026 28.0094 1.18161C32.7189 0.312961 37.4483 2.5942 39.7003 6.82026C40.8277 5.65571 42.3795 4.99898 44 5.00044Z" fill="#A9E4D8" fill-opacity="0.4"/>
<path d="M60.0006 20.0008C59.9942 14.8426 56.0709 10.5331 50.9357 10.0438C50.4538 6.58243 47.4958 4.00481 44.0007 4.0009C42.5485 3.99602 41.1315 4.44816 39.9499 5.29289C37.3234 1.39447 32.6614 -0.610405 28.0251 0.164493C23.3889 0.93988 19.6326 4.35197 18.4168 8.89248C16.407 7.76455 13.97 7.70059 11.9036 8.72207C9.83724 9.74355 8.40804 11.7186 8.08383 14.0008H8.00082C3.58287 14.0008 0.000854492 17.5824 0.000854492 22.0008C0.000854492 26.4188 3.58287 30.0008 8.00082 30.0008H10.0008V28.0008H8.00082C4.68736 28.0008 2.00085 25.3143 2.00085 22.0008C2.00085 18.6869 4.68736 16.0008 8.00082 16.0008C8.28939 16.0028 8.57699 16.0262 8.86214 16.0707C9.1556 16.0985 9.4471 15.9984 9.66194 15.7967C9.8802 15.5897 10.0033 15.3016 10.0008 15.0008C9.99788 13.0082 11.18 11.2045 13.0081 10.412C14.8367 9.62001 16.9607 9.99013 18.4129 11.3549C18.6873 11.6112 19.0828 11.6923 19.4358 11.5643C19.7893 11.4364 20.0413 11.1215 20.0877 10.7484C20.6302 6.42813 23.907 2.95598 28.1892 2.16546C32.4709 1.37542 36.7722 3.44866 38.821 7.29043C38.9709 7.57266 39.2473 7.76553 39.5632 7.81045C39.8796 7.85489 40.1984 7.746 40.4206 7.51651C41.84 6.06144 43.9987 5.60978 45.882 6.37442C47.7653 7.13907 48.9982 8.96816 49.0006 11.0009C49.0006 11.5531 49.4484 12.0009 50.0006 12.0009C54.4191 12.0009 58.0006 15.5824 58.0006 20.0008C58.0006 24.4188 54.4191 28.0008 50.0006 28.0008H40.0007V30.0008H50.0006C55.5211 29.9944 59.9947 25.5208 60.0006 20.0008Z" fill="#0ACAA0"/>
<path d="M45.0001 10.0005H47.0001V12.0005H45.0001V10.0005Z" fill="#0ACAA0"/>
<path d="M41 10.0005H43V12.0005H41V10.0005Z" fill="#0ACAA0"/>
<path d="M54 20.0005C54 22.2095 52.2095 24.0005 50 24.0005V26.0005C53.3125 25.9971 55.9971 23.3125 56 20.0005H54Z" fill="#0ACAA0"/>
<path d="M46.0001 24.0004H48.0001V26.0004H46.0001V24.0004Z" fill="#0ACAA0"/>
<path d="M35.0001 58.0003H15.0002C14.448 58.0003 14.0002 57.5525 14.0002 57.0003V23.0005C14.0002 22.4477 14.448 22.0005 15.0002 22.0005H19.0002V24.0005C19.0002 25.105 19.8957 26.0005 21.0002 26.0005H29.0002C30.1047 26.0005 31.0002 25.105 31.0002 24.0005V22.0005H35.0001C35.5524 22.0005 36.0001 22.4477 36.0001 23.0005V29.0004H38.0001V23.0005C38.0001 21.3433 36.6574 20.0005 35.0001 20.0005H15.0002C13.3435 20.0005 12.0002 21.3433 12.0002 23.0005V57.0003C12.0002 58.657 13.3435 60.0003 15.0002 60.0003H35.0001C36.6574 60.0003 38.0001 58.657 38.0001 57.0003H36.0001C36.0001 57.5525 35.5524 58.0003 35.0001 58.0003ZM29.0002 24.0005H21.0002V22.0005H29.0002V24.0005Z" fill="#0ACAA0"/>
<path d="M37.0001 37.0004C33.6866 37.0004 31.0001 39.6864 31.0001 43.0004C31.0001 46.3138 33.6866 49.0004 37.0001 49.0004C40.3141 49.0004 43.0001 46.3138 43.0001 43.0004C42.9972 39.6879 40.3126 37.0033 37.0001 37.0004ZM37.0001 47.0004C34.7911 47.0004 33.0001 45.2094 33.0001 43.0004C33.0001 40.7909 34.7911 39.0004 37.0001 39.0004C39.2096 39.0004 41.0001 40.7909 41.0001 43.0004C41.0001 45.2094 39.2096 47.0004 37.0001 47.0004Z" fill="#0ACAA0"/>
<path d="M48.2004 40.0204L46.4265 39.6649C46.3103 39.3348 46.1765 39.0106 46.0266 38.6942L47.0266 37.1942C47.2908 36.7972 47.2385 36.2694 46.9016 35.932L44.0715 33.1C43.7341 32.7631 43.2063 32.7108 42.8093 32.975L41.3093 33.975C40.9929 33.8251 40.6687 33.6913 40.3386 33.5751L39.9802 31.8002C39.8855 31.3344 39.4758 30.9999 39.0002 31.0004H35.0002C34.5251 30.9999 34.1155 31.3344 34.0203 31.8002L33.6653 33.5741C33.3347 33.6903 33.011 33.8241 32.6946 33.974L31.1946 32.974C30.7976 32.7098 30.2693 32.7621 29.9324 33.099L27.1003 35.9291C26.7634 36.266 26.7107 36.7943 26.9753 37.1913L27.9753 38.6913C27.825 39.0077 27.6917 39.3319 27.5754 39.662L25.8005 40.0204C25.3347 40.1151 25.0002 40.5248 25.0002 41.0004V45.0004C25.0002 45.4755 25.3347 45.8851 25.8005 45.9803L27.5745 46.3353C27.6907 46.6654 27.824 46.9896 27.9744 47.306L26.9744 48.806C26.7097 49.203 26.762 49.7308 27.0994 50.0682L29.9294 52.9003C30.2664 53.2372 30.7947 53.2894 31.1912 53.0253L32.6912 52.0253C33.0076 52.1752 33.3318 52.3089 33.6624 52.4252L34.0203 54.2001C34.1155 54.6659 34.5251 55.0004 35.0002 55.0004H39.0002C39.4758 55.0004 39.8855 54.6659 39.9802 54.2001L40.3352 52.4261C40.6658 52.3099 40.99 52.1766 41.3064 52.0262L42.8064 53.0262C43.2029 53.2909 43.7312 53.2381 44.0686 52.9012L46.9001 50.0712C47.2376 49.7342 47.2898 49.2059 47.0251 48.809L46.0251 47.309C46.1755 46.9925 46.3093 46.6688 46.4255 46.3382L48.2004 45.9803C48.6663 45.8851 49.0002 45.4755 49.0002 45.0004V41.0004C49.0002 40.5248 48.6663 40.1151 48.2004 40.0204ZM47.0002 44.18L45.4524 44.4901C45.0852 44.5638 44.7903 44.8363 44.6873 45.1962C44.5193 45.7841 44.2844 46.3509 43.9876 46.8851C43.8049 47.2123 43.8206 47.6141 44.0286 47.9261L44.9026 49.2362L43.2322 50.9061L41.9226 50.0321C41.6106 49.8246 41.2087 49.8085 40.8816 49.9911C40.3469 50.2884 39.7805 50.5233 39.1921 50.6913C38.8323 50.7938 38.5598 51.0892 38.4866 51.4559L38.1804 53.0004H35.8206L35.5105 51.452C35.4368 51.0853 35.1643 50.7899 34.8044 50.6874C34.2166 50.5189 33.6497 50.284 33.1155 49.9872C32.7883 49.8046 32.3865 49.8207 32.0745 50.0282L30.7644 50.9022L29.0945 49.2323L29.9685 47.9222C30.176 47.6102 30.1917 47.2084 30.0095 46.8812C29.7122 46.3465 29.4773 45.7801 29.3093 45.1923C29.2068 44.8324 28.9114 44.5599 28.5442 44.4862L27.0002 44.18V41.8202L28.5486 41.5101C28.9153 41.4364 29.2107 41.1639 29.3132 40.8041C29.4812 40.2162 29.7161 39.6498 30.0134 39.1151C30.196 38.788 30.1799 38.3861 29.9724 38.0741L29.0984 36.764L30.7683 35.0941L32.0784 35.9681C32.3904 36.1757 32.7922 36.1918 33.1194 36.0092C33.6536 35.7123 34.2205 35.4769 34.8084 35.309C35.1682 35.2064 35.4407 34.911 35.5144 34.5443L35.8206 33.0004H38.1804L38.4905 34.5482C38.5642 34.9154 38.8362 35.2103 39.1965 35.3134C39.7844 35.4813 40.3508 35.7162 40.8855 36.0131C41.2126 36.1957 41.6145 36.1796 41.9265 35.972L43.2366 35.098L44.9065 36.7679L44.0325 38.078C43.825 38.39 43.8088 38.7919 43.9915 39.119C44.2883 39.6537 44.5232 40.2201 44.6912 40.808C44.7942 41.1683 45.0891 41.4408 45.4563 41.514L47.0002 41.8202V44.18Z" fill="#0ACAA0"/>
<path d="M4.00024 46.0004H2.00024V48.0004H0.000244141V50.0004H2.00024V52.0004H4.00024V50.0004H6.00024V48.0004H4.00024V46.0004Z" fill="#0ACAA0"/>
<path d="M2.00024 42.0002H4.00024V44.0002H2.00024V42.0002Z" fill="#0ACAA0"/>
<path d="M2.00024 38.0004H4.00024V40.0004H2.00024V38.0004Z" fill="#0ACAA0"/>
<path d="M2.00024 34.0004H4.00024V36.0004H2.00024V34.0004Z" fill="#0ACAA0"/>
<path d="M58 54.0002H56V56.0002H54V58.0002H56V60.0002H58V58.0002H60V56.0002H58V54.0002Z" fill="#0ACAA0"/>
<path d="M56 50.0002H58V52.0002H56V50.0002Z" fill="#0ACAA0"/>
<path d="M56 46.0004H58V48.0004H56V46.0004Z" fill="#0ACAA0"/>
<path d="M56 42.0002H58V44.0002H56V42.0002Z" fill="#0ACAA0"/>
<path d="M8.00012 47.0004H10.0001V55.0004H8.00012V47.0004Z" fill="#0ACAA0"/>
<path d="M8.00012 43.0002H10.0001V45.0002H8.00012V43.0002Z" fill="#0ACAA0"/>
<path d="M8.00012 39.0004H10.0001V41.0004H8.00012V39.0004Z" fill="#0ACAA0"/>
<path d="M51.0001 33.0004H53.0001V39.0004H51.0001V33.0004Z" fill="#0ACAA0"/>
<path d="M51.0001 41.0004H53.0001V43.0004H51.0001V41.0004Z" fill="#0ACAA0"/>
<path d="M51.0001 45.0004H53.0001V47.0004H51.0001V45.0004Z" fill="#0ACAA0"/>
<path d="M22.0001 33.0004C22.0001 31.3431 20.6573 30.0004 19.0001 30.0004C17.3434 30.0004 16.0001 31.3431 16.0001 33.0004C16.0001 34.6571 17.3434 36.0004 19.0001 36.0004C20.6573 36.0004 22.0001 34.6571 22.0001 33.0004ZM18.0001 33.0004C18.0001 32.4476 18.4479 32.0004 19.0001 32.0004C19.5524 32.0004 20.0001 32.4476 20.0001 33.0004C20.0001 33.5526 19.5524 34.0004 19.0001 34.0004C18.4479 34.0004 18.0001 33.5526 18.0001 33.0004Z" fill="#0ACAA0"/>
<path d="M20.2932 44.7069C20.4807 44.8949 20.7351 44.9999 21.0002 45.0004H23.0002V43.0004H21.4143L20.0002 41.5863V38.0004H18.0002V42.0004C18.0002 42.2655 18.1057 42.5199 18.2932 42.7069L20.2932 44.7069Z" fill="#0ACAA0"/>
</g>
<defs>
<clipPath id="clip0">
<path d="M0 0H60V60H0V0Z" fill="white"/>
</clipPath>
</defs>
</svg>
