<svg width="63" height="60" viewBox="0 0 63 60" fill="none" xmlns="http://www.w3.org/2000/svg">
<path fill-rule="evenodd" clip-rule="evenodd" d="M19.8621 0L25.0345 2.89655L30 5.7931V11.5862V17.3793L25.0345 20.2759L19.8621 23.3793L14.8965 20.2759L9.72412 17.3793V11.5862V5.7931L14.8965 2.89655L19.8621 0Z" fill="#31456A"/>
<path fill-rule="evenodd" clip-rule="evenodd" d="M31.0345 18.2068L36.207 21.3102L41.1725 24.2068V29.9999V35.793L36.207 38.6895L31.0345 41.5861L26.069 38.6895L20.8966 35.793V29.9999V24.2068L26.069 21.3102L31.0345 18.2068Z" fill="#31456A"/>
<path fill-rule="evenodd" clip-rule="evenodd" d="M42.2069 36.6206L47.3793 39.5172L52.3448 42.4137V48.2068V54.2068L47.3793 57.1034L42.2069 59.9999L37.2414 57.1034L32.069 54.2068V48.2068V42.4137L37.2414 39.5172L42.2069 36.6206Z" fill="#31456A"/>
<path fill-rule="evenodd" clip-rule="evenodd" d="M52.1379 6L57.3103 8.89655L62.2759 12V17.7931V23.5862L57.3103 26.4828L52.1379 29.3793L47.1724 26.4828L42 23.5862V17.7931V12L47.1724 8.89655L52.1379 6Z" fill="#31456A"/>
<path fill-rule="evenodd" clip-rule="evenodd" d="M10.1379 30.6206L15.3103 33.5172L20.2759 36.4137V42.2068V47.9999L15.3103 51.1034L10.1379 53.9999L5.17241 51.1034L0 47.9999V42.2068V36.4137L5.17241 33.5172L10.1379 30.6206Z" fill="#31456A"/>
</svg>
