<svg width="51" height="60" viewBox="0 0 51 60" fill="none" xmlns="http://www.w3.org/2000/svg">
<path fill-rule="evenodd" clip-rule="evenodd" d="M50.4762 30.0001C49.2857 31.6668 48.0952 33.0954 46.9048 34.2859C44.0476 37.143 40.7143 39.524 36.9048 40.9525C38.8095 42.143 40.7143 43.5716 42.381 45.2382C45.2381 48.3335 47.619 51.9049 49.0476 56.1906C49.0476 55.9525 48.8095 55.7144 48.5714 55.7144C36.1905 43.0954 15.9524 43.0954 3.57143 55.7144C2.14286 56.9049 0.952381 58.3335 0 60.0001C0.238095 52.6192 4.04762 41.1906 11.6667 38.3335C9.28572 28.5716 12.1429 18.0954 19.2857 10.7144C24.2857 5.95253 30.7143 2.85729 37.8571 2.3811C35.7143 3.57158 33.5714 5.00015 31.6667 6.90491C25.4762 13.0954 23.0952 22.143 25.4762 30.4763C33.0952 35.0001 42.8571 34.7621 50.4762 30.0001Z" fill="#31456A"/>
<path fill-rule="evenodd" clip-rule="evenodd" d="M30.7142 0C31.6666 0 32.8571 0 34.0476 0C27.619 1.19048 21.9047 4.52381 17.3809 8.80952C11.6666 14.5238 8.09518 22.619 8.09518 31.4286C8.09518 33.0952 8.09518 35 8.57137 36.6667C7.61899 35.9524 6.66661 35.2381 5.71423 34.2857C3.57137 32.1429 1.66661 29.5238 0.238037 26.6667C2.1428 11.6667 14.9999 0 30.7142 0Z" fill="#31456A"/>
</svg>
