<svg width="114" height="18" viewBox="0 0 114 18" fill="none" xmlns="http://www.w3.org/2000/svg">
<path d="M6.98607 6.71564C6.98607 6.71564 6.04248 6.62176 6.04248 7.46257V11.1973H12.2737V12.3181C12.2737 12.3181 12.2923 12.8781 11.7072 12.8781H6.04248V17.7336H12.8402C12.8402 17.7336 16.956 17.0983 16.9941 12.8781V6.71564H6.98607ZM33.0075 14.2117C32.6838 14.4278 32.4443 14.5864 32.2751 14.6876C31.6698 15.0622 31.0928 15.3512 30.5579 15.5818C29.7835 15.899 29.0932 16.0576 28.4741 16.0576C26.3482 16.0576 24.5881 15.4086 23.1654 14.096C21.7428 12.7834 21.0403 11.1398 21.0403 9.14986C21.0403 7.23194 21.674 5.57297 22.955 4.15921C24.2361 2.74626 25.785 2.05354 27.6155 2.05354C28.3762 2.05354 29.1919 2.18302 30.0368 2.45817C31.1349 2.80372 32.0219 3.32326 32.7259 4.0006L31.5007 5.3561C30.9803 4.85193 30.3046 4.47644 29.5156 4.2458C28.9249 4.07262 28.2775 3.98684 27.5588 3.98684C26.2778 3.98684 25.1934 4.50476 24.3348 5.52928C23.4762 6.56754 23.04 7.79356 23.04 9.23564C23.04 10.664 23.532 11.8317 24.5177 12.7696C25.5033 13.7068 26.7561 14.1826 28.2766 14.1826C28.9103 14.1826 29.5585 13.9803 30.2197 13.5918C30.7691 13.1735 31.0508 12.9711 31.0645 12.9566V10.0004H26.9535L27.5443 8.15448H33.0075V14.2117ZM45.4255 10.6057C45.4255 12.0332 44.9189 13.2738 43.9049 14.3121C42.8909 15.3503 41.6382 15.8844 40.1459 15.8844C38.7661 15.8844 37.5555 15.3649 36.5132 14.3412C35.4709 13.3175 34.9643 12.0769 34.9643 10.6203C34.9643 9.17819 35.4579 7.93761 36.4428 6.8702C37.4277 5.8028 38.6391 5.28407 40.061 5.28407C41.6382 5.28407 42.9192 5.78905 43.9186 6.81275C44.9189 7.80813 45.4255 9.07703 45.4255 10.6057ZM43.4962 10.6348C43.4962 9.66859 43.1725 8.84639 42.5251 8.18281C41.8777 7.50466 41.0749 7.17286 40.1176 7.17286C39.2169 7.17286 38.4562 7.51922 37.8226 8.21194C37.1889 8.90385 36.879 9.69692 36.879 10.5911C36.879 11.5291 37.2027 12.3221 37.8363 12.9857C38.47 13.6493 39.259 13.9948 40.2155 13.9948C41.1033 13.9948 41.8632 13.6631 42.5114 12.9995C43.1725 12.3359 43.4962 11.5428 43.4962 10.6348ZM57.6743 10.6057C57.6743 12.0332 57.1677 13.2738 56.1537 14.3121C55.1397 15.3503 53.887 15.8844 52.3947 15.8844C51.015 15.8844 49.8043 15.3649 48.762 14.3412C47.7205 13.3175 47.2131 12.0769 47.2131 10.6203C47.2131 9.17819 47.7068 7.93761 48.6916 6.8702C49.6773 5.8028 50.8879 5.28407 52.3098 5.28407C53.887 5.28407 55.168 5.78905 56.1675 6.81275C57.1677 7.80813 57.6743 9.07703 57.6743 10.6057ZM55.745 10.6348C55.745 9.66859 55.4213 8.84639 54.7739 8.18281C54.1265 7.50466 53.3238 7.17286 52.3664 7.17286C51.4657 7.17286 50.705 7.51922 50.0714 8.21194C49.4377 8.90385 49.1278 9.69692 49.1278 10.5911C49.1278 11.5291 49.4515 12.3221 50.0859 12.9857C50.7188 13.6493 51.5078 13.9948 52.4651 13.9948C53.3521 13.9948 54.112 13.6631 54.7602 12.9995C55.4213 12.3359 55.745 11.5428 55.745 10.6348ZM69.0087 15.5955L67.2348 15.8699V14.1535L66.8544 14.5856C66.5194 14.8995 66.1398 15.1621 65.728 15.3649C65.1235 15.6437 64.4652 15.7865 63.7995 15.7833C62.4197 15.7833 61.2366 15.2783 60.2793 14.2538C59.3219 13.2293 58.8437 12.0187 58.8437 10.6057C58.8437 9.14905 59.3219 7.89471 60.2655 6.85564C61.2091 5.81656 62.3631 5.29783 63.7429 5.29783C64.5319 5.29783 65.2214 5.42731 65.7984 5.68708C66.207 5.87483 66.5591 6.12003 66.8544 6.4235C66.9532 6.55298 67.0519 6.69702 67.1506 6.8265V2.32707L69.0362 2.05273L69.0087 15.5955ZM67.3473 10.7352C67.3473 9.72605 67.009 8.87472 66.3195 8.18281C65.63 7.47552 64.8548 7.12997 63.9686 7.12997C62.983 7.12997 62.1948 7.46177 61.5895 8.12535C61.0254 8.75899 60.73 9.5383 60.73 10.4471C60.73 11.4708 61.0254 12.3213 61.617 12.9849C62.2077 13.6485 62.9547 13.9803 63.8699 13.9803C64.7706 13.9803 65.5596 13.6776 66.2637 13.0577C66.9815 12.4225 67.3473 11.644 67.3473 10.7352Z" fill="#004E88"/>
<path d="M4.5318 0.739258H16.8049L16.8057 5.40863H5.66475C5.66475 5.40863 4.72117 5.57615 4.72117 6.52864V17.7335H0V5.42644C0 5.42644 0.0938731 1.78481 4.5318 0.739258Z" fill="#FE9C00"/>
<path d="M73.6759 4.20814H78.9554L78.5467 2.34686H71.6204V15.8897L73.6759 15.587V9.64468H77.7723V7.79878H73.6759V4.20814Z" fill="#FE9C00"/>
<path d="M81.9262 4.75519L83.1935 3.15449L81.9966 1.56836L80.7155 3.15449L81.9262 4.75519Z" fill="#FE9C00"/>
<path d="M80.9267 15.8605L82.8131 15.6008V5.54906L80.9267 5.83716V15.8605Z" fill="#FE9C00"/>
<path d="M90.4443 7.49531L91.3313 5.44791C91.2892 5.41877 90.9509 5.44791 90.3594 5.4908C89.7403 5.54825 89.3316 5.62109 89.1067 5.70687C88.6842 5.86629 88.3039 6.13982 87.9802 6.51531C87.7552 6.88999 87.5157 7.25011 87.2907 7.61103V5.51993L85.5451 5.83716V15.8897L87.4307 15.587V10.8853C87.4282 10.1681 87.5975 9.4608 87.9243 8.82248C88.2197 8.26005 88.558 7.88537 88.9521 7.71219C89.1625 7.61103 89.3591 7.5382 89.5428 7.50988C89.7265 7.48155 89.9094 7.46699 90.0923 7.46699C90.2102 7.46808 90.3278 7.47754 90.4443 7.49531Z" fill="#FE9C00"/>
<path d="M103.495 15.8751L105.381 15.6008V9.15428C105.381 7.98572 105.157 7.0915 104.691 6.48618C104.129 5.75057 103.269 5.38964 102.115 5.38964C100.904 5.38964 99.9886 5.90918 99.3412 6.93288C99.0313 6.35589 98.7214 5.95288 98.3977 5.75057C98.0173 5.50536 97.4686 5.38964 96.7225 5.38964C96.0614 5.38964 95.4698 5.62109 94.9632 6.09693C94.7795 6.2693 94.5828 6.5145 94.3854 6.81797V5.5345L92.6261 5.83716V15.9326L94.5828 15.5862V9.61555C94.5828 8.96653 94.6953 8.43323 94.9203 8.01485C95.2157 7.45242 95.6948 7.17808 96.3567 7.17808H96.5396C97.0187 7.17808 97.3845 7.3367 97.6661 7.65473C97.934 7.97115 98.0748 8.43323 98.0748 9.03855V15.9326L99.9611 15.5862V9.1826C99.9611 8.77878 100.087 8.37497 100.313 8.00028C100.651 7.45242 101.158 7.17808 101.819 7.17808C102.369 7.17808 102.791 7.32213 103.073 7.61103C103.354 7.89913 103.495 8.3604 103.495 8.99566V15.8751Z" fill="#FE9C00"/>
<path d="M113.029 14.8368C113.676 14.2453 114 13.4805 114 12.558C114 11.7358 113.775 11.0868 113.254 10.568C112.789 10.0776 112.141 9.73127 111.297 9.52896C110.452 9.34202 109.917 9.16884 109.664 9.01023C109.368 8.82248 109.227 8.51982 109.227 8.11601C109.227 7.69762 109.382 7.3804 109.678 7.16352C109.931 6.99115 110.255 6.90456 110.65 6.90456C111.058 6.90456 111.494 7.06317 111.945 7.3804C112.14 7.51798 112.324 7.67232 112.493 7.84167L113.62 6.61647C113.38 6.24097 112.972 5.92375 112.409 5.62109C111.846 5.31762 111.227 5.17357 110.564 5.17357C109.692 5.17357 108.932 5.44791 108.298 6.0249C107.664 6.6019 107.341 7.32213 107.341 8.18803C107.341 8.89451 107.495 9.44237 107.791 9.86075C108.058 10.2217 108.481 10.5389 109.072 10.8416C109.17 10.8853 109.861 11.1013 111.143 11.4906C111.79 11.6783 112.114 12.0247 112.114 12.5289C112.114 12.9764 111.987 13.3227 111.705 13.5679C111.438 13.8131 111.058 13.9426 110.578 13.9426C109.889 13.9426 109.298 13.6828 108.805 13.1779C108.72 13.0913 108.635 12.9764 108.538 12.8323L107.214 14.0146C107.51 14.4759 107.96 14.866 108.565 15.2115C109.17 15.5579 109.832 15.7311 110.578 15.7311C111.564 15.7311 112.382 15.4422 113.029 14.8368Z" fill="#FE9C00"/>
</svg>
